<svg width="50" height="50" viewBox="0 0 50 50" fill="none" xmlns="http://www.w3.org/2000/svg">
<g clip-path="url(#clip0_520_2)">
<mask id="mask0_520_2" style="mask-type:luminance" maskUnits="userSpaceOnUse" x="0" y="0" width="50" height="50">
<path d="M0 0H50V50H0V0Z" fill="white"/>
</mask>
<g mask="url(#mask0_520_2)">
<path d="M10.5834 0H12.8375V2.22708H14.9V0H17.1542V6.74167H14.9V4.48542H12.8375V6.74167H10.5855L10.5834 0ZM20.1167 2.23542H18.1334V0H24.3563V2.23542H22.3709V6.74167H20.1167V2.23542ZM25.3438 0H27.6938L29.1396 2.36875L30.5834 0H32.9334V6.74167H30.6896V3.4L29.1396 5.79792H29.1L27.548 3.40208V6.74167H25.3438V0ZM34.0542 0H36.3105V4.51458H39.4771V6.74375H34.0542V0Z" fill="black"/>
<path fill-rule="evenodd" clip-rule="evenodd" d="M10.5125 45.9833L6.25 9.82709H43.75L39.4854 45.9792L24.9792 50L10.5125 45.9833ZM19.1312 26.1917L18.7271 21.65H35.6958L36.0917 17.2167H13.8833L15.0792 30.6271H30.4479L29.9333 36.3771L24.9875 37.7146H24.9833L20.0458 36.3813L19.7292 32.8458H15.275L15.8958 39.8083L24.9792 42.3292L34.0771 39.8083L35.1854 27.3833L35.2937 26.1938H19.1312V26.1917Z" fill="black"/>
</g>
</g>
<defs>
<clipPath id="clip0_520_2">
<rect width="50" height="50" fill="white"/>
</clipPath>
</defs>
</svg>
