<svg width="30" height="30" viewBox="0 0 30 30" fill="none" xmlns="http://www.w3.org/2000/svg">
<path d="M12.5613 15.8946C9.4619 16.7604 14.4466 18.5489 18.3925 16.8584C17.7464 16.6073 17.2828 16.3172 17.2828 16.3172C15.5231 16.6498 14.707 16.676 13.1097 16.4937C11.7914 16.3427 12.5613 15.8946 12.5613 15.8946ZM17.92 14.2055C15.588 14.6543 14.2408 14.64 12.5343 14.464C11.215 14.3276 12.0787 13.688 12.0787 13.688C8.6655 14.8209 13.9785 16.1062 18.7488 14.711C18.2421 14.5326 17.92 14.2055 17.92 14.2055ZM19.7479 4.42476C19.7479 4.42476 12.8482 6.14765 16.1432 9.94476C17.1161 11.0646 15.8882 12.0715 15.8882 12.0715C15.8882 12.0715 18.3569 10.7972 17.2232 9.20085C16.1643 7.71281 15.3525 6.97382 19.7479 4.42476ZM8.78433 19.0559C16.829 20.3597 23.4485 18.4685 21.3623 17.527C21.3623 17.527 21.9321 17.9969 20.7344 18.3602C18.4575 19.05 11.2553 19.2581 9.25495 18.3876C8.53636 18.0748 9.88472 17.6407 10.3087 17.5495C10.751 17.4537 11.0036 17.4712 11.0036 17.4712C10.2039 16.9078 5.83448 18.577 8.78433 19.0559ZM18.5971 12.6293C18.9839 12.3654 19.5182 12.1362 19.5182 12.1362C19.5182 12.1362 17.9967 12.4083 16.4805 12.5355C14.6247 12.6912 12.6339 12.7219 11.6346 12.5883C9.26854 12.2719 12.9316 11.4016 12.9316 11.4016C12.9316 11.4016 11.5089 11.3053 9.75979 12.1514C7.69097 13.1519 14.8767 13.6078 18.5971 12.6293ZM19.503 15.0743C19.4857 15.1212 19.4275 15.1739 19.4275 15.1739C24.4774 13.8464 22.6207 10.4946 20.2061 11.343C19.9945 11.4178 19.8832 11.5922 19.8832 11.5922C19.8832 11.5922 20.017 11.5383 20.3156 11.4759C21.536 11.2219 23.2849 13.11 19.503 15.0743ZM15.2357 11.3653C14.4907 9.68109 11.9646 8.20804 15.2369 5.62359C19.3174 2.40281 17.2235 0.307495 17.2235 0.307495C18.0682 3.63492 14.2443 4.64015 12.8641 6.71249C11.9242 8.12437 13.3256 9.64195 15.2357 11.3653ZM19.6396 19.721C16.5414 20.3041 12.72 20.2364 10.4542 19.8623C10.4542 19.8623 10.9183 20.2467 13.3035 20.4C16.9326 20.632 22.5072 20.2709 22.6392 18.5536C22.6392 18.5534 22.3856 19.2042 19.6396 19.721ZM11.9838 23.3285C11.3071 23.3285 10.7296 23.4959 10.2475 23.7087L10.3938 24.293C10.7732 24.1535 11.2417 24.0241 11.7236 24.0241C12.3916 24.0241 12.6562 24.293 12.6562 24.8494V25.3125H12.375C10.7528 25.3125 10.0209 25.9184 10.0209 26.865C10.0209 27.6804 10.5035 28.1323 11.4114 28.1323C11.995 28.1323 12.4312 27.9342 12.8383 27.5815L12.9124 28.125H13.5937V24.7284C13.5937 23.8849 13.1428 23.3285 11.9838 23.3285ZM12.6562 26.9618C12.4218 27.2585 11.9782 27.4254 11.6533 27.4254C11.1909 27.4254 10.953 27.1041 10.953 26.659C10.953 26.1771 11.2347 25.7812 12.311 25.7812H12.6562V26.9618ZM16.315 27.1127L16.1193 26.2671L15.239 23.4375H14.2101L15.6283 28.125H16.8063C17.4822 26.4844 17.9648 24.8437 18.2327 23.4375H17.2317C17.0744 24.6094 16.7592 25.8806 16.315 27.1127ZM20.6285 23.3285C19.9514 23.3285 19.3603 23.4959 18.8784 23.7087L19.0181 24.293C19.398 24.1535 19.8904 24.0241 20.3723 24.0241C21.0393 24.0241 21.3281 24.293 21.3281 24.8494V25.3125H20.9934C19.3708 25.3125 18.6391 25.9184 18.6391 26.865C18.6391 27.6804 19.121 28.1323 20.0289 28.1323C20.613 28.1323 21.0482 27.9342 21.4565 27.5815L21.531 28.125H22.2656V24.7284C22.2656 23.8849 21.7865 23.3285 20.6285 23.3285ZM20.2978 27.4212C19.8349 27.4212 19.5839 27.1017 19.5839 26.6569C19.5839 26.1752 19.8532 25.7812 20.9282 25.7812H21.3281V26.9531H21.3124C20.969 27.1875 20.6217 27.4212 20.2978 27.4212ZM8.43745 27.0405C8.43745 27.8072 8.33315 28.1276 8.208 28.3767C8.06386 28.6563 7.72683 28.9568 7.36401 29.1429L7.81729 29.6925C8.29354 29.5169 8.74144 29.2055 9.01073 28.8119C9.28026 28.4081 9.37495 27.9937 9.37495 26.9681V21.7969H8.43745V27.0405Z" fill="black"/>
</svg>
