<svg width="695" height="364" viewBox="0 0 695 364" fill="none" xmlns="http://www.w3.org/2000/svg">
<g clip-path="url(#clip0_555_125)">
<rect width="695" height="364" fill="white"/>
<rect width="1584" height="396" fill="#D9D9D9"/>
<rect width="695" height="182" fill="#F5F6EF"/>
<path d="M0 182H695V364H0V182Z" fill="#FFEBCC" fill-opacity="0.75"/>
<path d="M264.349 94.2275C264.349 94.2275 261.142 96.0938 266.635 96.7246C273.289 97.4844 276.69 97.375 284.022 95.9893C284.022 95.9893 285.955 97.1973 288.646 98.2441C272.205 105.288 251.436 97.8359 264.349 94.2275ZM262.338 85.0332C262.338 85.0332 258.74 87.6982 264.237 88.2666C271.347 89 276.959 89.0605 286.678 87.1895C286.678 87.1895 288.019 88.5527 290.131 89.2959C270.256 95.1104 248.118 89.7539 262.338 85.0332Z" fill="#0074BD"/>
<path d="M279.274 69.4365C283.328 74.1025 278.212 78.2979 278.212 78.2979C278.212 78.2979 288.498 72.9883 283.774 66.3369C279.361 60.1367 275.979 57.0576 294.293 46.4365C294.293 46.4365 265.545 53.6143 279.274 69.4365Z" fill="#EA2D2E"/>
<path d="M301.02 101.028C301.02 101.028 303.394 102.986 298.404 104.5C288.916 107.374 258.908 108.241 250.573 104.614C247.579 103.311 253.197 101.502 254.964 101.122C256.807 100.723 257.859 100.796 257.859 100.796C254.527 98.4493 236.321 105.404 248.612 107.399C282.132 112.832 309.713 104.952 301.02 101.028ZM265.893 75.5069C265.893 75.5069 250.63 79.1329 260.488 80.4512C264.652 81.0079 272.947 80.8799 280.68 80.2315C286.997 79.7012 293.337 78.5674 293.337 78.5674C293.337 78.5674 291.111 79.5225 289.499 80.6221C273.997 84.6993 244.057 82.7998 252.677 78.6319C259.965 75.1055 265.893 75.5069 265.893 75.5069ZM293.273 90.8096C309.03 82.6241 301.744 74.7569 296.659 75.8164C295.416 76.0762 294.857 76.3008 294.857 76.3008C294.857 76.3008 295.321 75.5743 296.203 75.2627C306.264 71.7276 313.999 85.6934 292.959 91.2246C292.959 91.2246 293.2 91.0059 293.273 90.8096Z" fill="#0074BD"/>
<path d="M283.775 29.2822C283.775 29.2822 292.501 38.0117 275.498 51.4326C261.863 62.2012 272.389 68.3398 275.492 75.3564C267.533 68.1748 261.695 61.8525 265.611 55.9697C271.362 47.335 287.295 43.1465 283.775 29.2822Z" fill="#EA2D2E"/>
<path d="M267.442 112.999C282.563 113.966 305.791 112.461 306.341 105.306C306.341 105.306 305.284 108.018 293.842 110.17C280.934 112.6 265.011 112.317 255.569 110.759C255.569 110.759 257.503 112.36 267.442 112.999Z" fill="#0074BD"/>
<path d="M305.643 125.833H305.182V125.575H306.422V125.833H305.963V127.119H305.642L305.643 125.833ZM308.118 125.897H308.112L307.655 127.119H307.444L306.99 125.897H306.985V127.119H306.681V125.575H307.127L307.548 126.668L307.97 125.575H308.413V127.119H308.118V125.897ZM264.964 140.341C263.538 141.577 262.03 142.272 260.676 142.272C258.748 142.272 257.702 141.114 257.702 139.26C257.702 137.253 258.821 135.783 263.306 135.783H264.963L264.964 140.341ZM268.9 144.782V131.035C268.9 127.521 266.896 125.202 262.067 125.202C259.249 125.202 256.778 125.899 254.77 126.786L255.348 129.221C256.93 128.64 258.976 128.101 260.983 128.101C263.767 128.101 264.963 129.221 264.963 131.539V133.276H263.572C256.813 133.276 253.764 135.898 253.764 139.842C253.764 143.239 255.773 145.17 259.558 145.17C261.989 145.17 263.807 144.166 265.503 142.696L265.812 144.783L268.9 144.782ZM282.037 144.782H277.128L271.219 125.555H275.507L279.175 137.37L279.99 140.92C281.842 135.785 283.154 130.572 283.811 125.556H287.981C286.865 131.885 284.854 138.835 282.037 144.782ZM300.873 140.341C299.442 141.577 297.934 142.272 296.584 142.272C294.654 142.272 293.609 141.114 293.609 139.26C293.609 137.253 294.731 135.783 299.211 135.783H300.872L300.873 140.341ZM304.812 144.782V131.035C304.812 127.521 302.801 125.202 297.977 125.202C295.155 125.202 292.686 125.899 290.677 126.786L291.256 129.221C292.838 128.64 294.887 128.101 296.895 128.101C299.674 128.101 300.873 129.221 300.873 131.539V133.276H299.482C292.722 133.276 289.673 135.898 289.673 139.842C289.673 143.239 291.681 145.17 295.464 145.17C297.896 145.17 299.711 144.166 301.412 142.696L301.723 144.783L304.812 144.782ZM249.447 148.05C248.327 149.689 246.513 150.987 244.528 151.719L242.586 149.429C244.097 148.653 245.391 147.402 245.993 146.236C246.513 145.198 246.729 143.863 246.729 140.669V118.714H250.912V140.367C250.912 144.64 250.572 146.367 249.447 148.05Z" fill="#EA2D2E"/>
<path d="M359.66 124.289C359.074 123.996 358.684 123.313 358.684 122.531C358.684 121.359 359.562 120.48 360.734 120.48C361.125 120.48 361.516 120.578 361.809 120.773C363.957 122.238 366.301 122.922 368.352 122.922C370.598 122.922 371.867 121.945 371.867 120.48V120.383C371.867 118.625 369.426 118.039 366.789 117.258C363.469 116.281 359.758 114.914 359.758 110.617V110.52C359.758 106.223 363.273 103.684 367.766 103.684C370.207 103.684 372.648 104.367 374.895 105.539C375.578 105.93 376.164 106.613 376.164 107.492C376.164 108.664 375.187 109.543 374.016 109.543C373.625 109.543 373.332 109.445 372.941 109.25C371.086 108.273 369.23 107.687 367.668 107.687C365.617 107.687 364.543 108.664 364.543 109.934V110.031C364.543 111.691 366.984 112.375 369.621 113.254C372.941 114.23 376.652 115.793 376.652 119.797V119.895C376.652 124.68 372.941 127.023 368.254 127.023C365.422 127.023 362.297 126.145 359.66 124.289ZM396.867 115.402C396.867 111.008 393.937 108.176 390.422 108.176C386.906 108.176 383.879 111.105 383.879 115.402V115.5C383.879 119.797 386.906 122.727 390.422 122.727C393.937 122.531 396.867 119.797 396.867 115.402ZM378.898 106.32C378.898 104.855 379.973 103.684 381.437 103.684C382.902 103.684 384.074 104.855 384.074 106.32V107.883C385.734 105.539 388.078 103.684 391.691 103.684C396.965 103.684 402.141 107.883 402.141 115.305V115.402C402.141 122.824 397.062 127.023 391.691 127.023C387.98 127.023 385.637 125.168 384.074 123.117V131.027C384.074 132.492 382.902 133.566 381.437 133.566C380.07 133.566 378.898 132.492 378.898 131.027V106.32ZM404.289 106.223C404.289 104.758 405.363 103.586 406.828 103.586C408.293 103.586 409.465 104.758 409.465 106.223V107.492C409.758 105.539 412.883 103.684 415.129 103.684C416.789 103.684 417.668 104.758 417.668 106.223C417.668 107.59 416.789 108.469 415.617 108.664C411.906 109.348 409.367 112.473 409.367 116.965V124.387C409.367 125.754 408.195 126.926 406.73 126.926C405.363 126.926 404.191 125.852 404.191 124.387V106.223M420.012 106.223C420.012 104.758 421.184 103.586 422.648 103.586C424.113 103.586 425.285 104.758 425.285 106.223V124.387C425.285 125.852 424.113 126.926 422.648 126.926C421.184 126.926 420.012 125.852 420.012 124.387V106.223ZM427.531 106.32C427.531 104.855 428.703 103.684 430.168 103.684C431.633 103.684 432.902 104.855 432.902 106.32V107.395C434.367 105.344 436.613 103.684 440.227 103.684C445.5 103.684 448.527 107.102 448.527 112.277V124.387C448.527 125.852 447.355 126.926 445.891 126.926C444.426 126.926 443.156 125.852 443.156 124.387V113.84C443.156 110.324 441.301 108.371 438.176 108.371C435.051 108.371 432.902 110.422 432.902 113.937V124.387C432.902 125.852 431.73 126.926 430.168 126.926C428.703 126.926 427.531 125.852 427.531 124.387V106.32ZM462.004 122.629C458.391 122.629 455.363 119.895 455.363 115.402V115.305C455.363 110.91 458.391 108.078 462.004 108.078C465.617 108.078 468.742 111.008 468.742 115.305V115.402C468.742 119.699 465.617 122.629 462.004 122.629ZM471.281 103.781C469.816 103.781 468.645 104.953 468.645 106.418V107.98C466.887 105.637 464.543 103.781 460.734 103.781C455.266 103.781 449.992 107.98 449.992 115.5V115.598C449.992 123.02 455.266 127.316 460.734 127.316C464.543 127.316 466.984 125.461 468.645 123.41C468.352 127.512 465.812 129.562 461.32 129.562C458.684 129.562 456.34 128.879 454.191 127.805C453.898 127.707 453.605 127.609 453.215 127.609C451.945 127.609 450.969 128.586 450.969 129.758C450.969 130.734 451.555 131.418 452.434 131.809C455.266 133.176 458.098 133.859 461.418 133.859C465.617 133.859 468.84 132.883 470.988 130.832C472.941 128.977 474.016 126.145 474.016 122.336V106.32C473.918 104.855 472.746 103.781 471.281 103.781ZM425.285 97.4336C425.285 98.8008 424.113 99.9727 422.648 99.9727C421.184 99.9727 420.012 98.8008 420.012 97.4336C420.012 96.0664 421.184 94.8945 422.648 94.8945C424.113 94.8945 425.285 96.0664 425.285 97.4336ZM438.957 80.5391C433.195 88.1563 420.793 85.6172 412.785 85.9102C412.785 85.9102 411.418 86.0078 409.953 86.2031C409.953 86.2031 410.539 86.0078 411.125 85.7148C416.691 83.8594 419.328 83.4687 422.746 81.7109C429.094 78.4883 435.441 71.5547 436.711 64.3281C434.27 71.2617 426.945 77.2188 420.207 79.6602C415.617 81.3203 407.316 82.8828 407.316 82.8828L407.023 82.6875C401.359 80.0508 401.164 68.0391 411.516 64.2305C416.008 62.5703 420.305 63.4492 425.188 62.375C430.363 61.2031 436.418 57.3945 438.859 52.4141C441.594 60.5195 444.914 72.9219 438.957 80.5391ZM439.055 50.0703C438.371 51.6328 437.492 53.0977 436.516 54.3672C432.219 50.0703 426.262 47.4336 419.621 47.4336C406.633 47.4336 396.086 57.7852 396.086 70.3828C396.086 77.0234 399.016 82.9805 403.605 87.1797L404.094 87.668C403.215 86.9844 403.117 85.7148 403.801 84.9336C404.484 84.0547 405.754 83.957 406.633 84.6406C407.512 85.3242 407.609 86.5938 406.926 87.375C406.242 88.2539 404.973 88.3516 404.094 87.668L404.484 87.9609C408.586 91.2813 413.859 93.332 419.621 93.332C432.023 93.332 442.18 83.8594 443.059 72.043C443.84 66.2812 442.082 58.8594 439.055 50.0703ZM480.168 105.344H479.289V106.516H480.168C480.461 106.516 480.754 106.32 480.754 105.93C480.754 105.539 480.461 105.344 480.168 105.344ZM480.656 108.273L479.777 106.906H479.191V108.273H478.703V104.953H480.07C480.656 104.953 481.145 105.344 481.145 105.93C481.145 106.711 480.461 106.906 480.266 106.906L481.145 108.273H480.656ZM479.875 104.074C478.508 104.074 477.336 105.148 477.336 106.516C477.336 107.883 478.508 108.957 479.875 108.957C481.242 108.957 482.414 107.883 482.414 106.516C482.414 105.246 481.242 104.074 479.875 104.074ZM479.875 109.543C478.215 109.543 476.848 108.273 476.848 106.613C476.848 104.953 478.215 103.684 479.875 103.684C481.535 103.684 482.902 104.953 482.902 106.613C482.902 108.176 481.535 109.543 479.875 109.543Z" fill="#5FB832"/>
<path d="M500.172 288.003H502.579V278.497L506.306 286.784C506.746 287.787 507.347 288.142 508.528 288.142C509.709 288.142 510.287 287.787 510.727 286.784L514.454 278.497V288.003H516.861V278.513C516.861 277.587 516.49 277.139 515.726 276.908C513.897 276.337 512.671 276.831 512.115 278.066L508.458 286.244L504.917 278.065C504.385 276.831 503.135 276.337 501.306 276.907C500.542 277.139 500.172 277.587 500.172 278.512L500.172 288.003ZM518.863 280.265H521.269V285.502C521.247 285.786 521.361 286.454 522.679 286.475C523.352 286.486 527.871 286.475 527.914 286.475V280.239H530.326C530.337 280.239 530.324 288.743 530.324 288.779C530.337 290.876 527.721 291.331 526.516 291.367H518.915V289.747C518.928 289.747 526.51 289.749 526.529 289.746C528.079 289.583 527.896 288.813 527.895 288.554V287.922H522.779C520.399 287.901 518.883 286.862 518.863 285.667C518.862 285.557 518.915 280.318 518.863 280.265Z" fill="#00618A"/>
<path d="M532.182 288.003H539.103C539.913 288.003 540.701 287.833 541.325 287.54C542.366 287.062 542.876 286.414 542.876 285.565V283.806C542.876 283.111 542.297 282.463 541.163 282.031C540.561 281.799 539.82 281.677 539.102 281.677H536.185C535.213 281.677 534.75 281.384 534.635 280.736C534.612 280.659 534.612 280.597 534.612 280.52V279.424C534.612 279.362 534.612 279.3 534.635 279.224C534.75 278.73 535.005 278.591 535.862 278.513L536.093 278.498H542.968V276.894H536.209C535.237 276.894 534.728 276.955 534.265 277.094C532.83 277.542 532.204 278.252 532.204 279.486V280.89C532.204 281.97 533.432 282.896 535.492 283.112C535.724 283.127 535.954 283.144 536.186 283.144H538.686C538.779 283.144 538.871 283.144 538.941 283.158C539.705 283.22 540.029 283.359 540.261 283.636C540.32 283.691 540.367 283.758 540.399 283.833C540.431 283.907 540.447 283.987 540.445 284.068V285.473C540.445 285.642 540.33 285.858 540.098 286.043C539.89 286.229 539.543 286.352 539.08 286.383L538.825 286.398H532.182V288.003ZM557.893 285.21C557.893 286.861 559.12 287.787 561.596 287.972C561.828 287.987 562.059 288.003 562.291 288.003H568.564V286.398H562.245C560.833 286.398 560.301 286.043 560.301 285.194V276.893H557.894L557.893 285.21ZM544.412 285.293V279.572C544.412 278.119 545.433 277.237 547.451 276.958C547.666 276.928 547.883 276.912 548.1 276.912H552.67C552.902 276.912 553.11 276.927 553.342 276.958C555.36 277.237 556.381 278.118 556.381 279.572V285.293C556.381 286.473 555.947 287.104 554.948 287.515L557.32 289.656H554.525L552.606 287.924L550.675 288.046H548.1C547.621 288.043 547.146 287.975 546.685 287.845C545.154 287.428 544.412 286.623 544.412 285.293ZM547.01 285.154C547.01 285.232 547.033 285.31 547.056 285.402C547.195 286.067 547.822 286.438 548.772 286.438H550.959L548.951 284.625H551.746L553.497 286.207C553.821 286.034 554.033 285.771 554.107 285.433C554.13 285.356 554.13 285.279 554.13 285.201V279.712C554.13 279.651 554.13 279.573 554.107 279.495C553.968 278.877 553.342 278.522 552.414 278.522H548.772C547.705 278.522 547.009 278.986 547.009 279.712L547.01 285.154Z" fill="#E48E00"/>
<path d="M570.681 274.23C569.202 274.189 568.071 274.327 567.105 274.734C566.83 274.85 566.392 274.853 566.348 275.197C566.498 275.356 566.522 275.592 566.642 275.786C566.873 276.16 567.262 276.66 567.61 276.922C567.989 277.209 568.38 277.516 568.788 277.764C569.512 278.206 570.32 278.458 571.018 278.9C571.429 279.161 571.837 279.489 572.238 279.784C572.437 279.928 572.569 280.155 572.828 280.246V280.204C572.692 280.032 572.657 279.795 572.533 279.615L571.986 279.068C571.451 278.358 570.772 277.735 570.05 277.217C569.474 276.804 568.186 276.245 567.946 275.576L567.904 275.534C568.312 275.488 568.79 275.34 569.166 275.239C569.799 275.069 570.364 275.113 571.018 274.944L571.901 274.691V274.524C571.571 274.185 571.335 273.736 570.975 273.43C570.034 272.628 569.005 271.826 567.946 271.157C567.359 270.787 566.633 270.546 566.01 270.232C565.802 270.126 565.434 270.071 565.295 269.895C564.967 269.478 564.79 268.95 564.537 268.465C563.998 267.415 563.493 266.349 563.022 265.267C562.704 264.537 562.495 263.818 562.097 263.163C560.187 260.022 558.13 258.126 554.944 256.262C554.266 255.866 553.45 255.71 552.588 255.505L551.199 255.421C550.918 255.303 550.623 254.958 550.358 254.79C549.302 254.123 546.595 252.673 545.813 254.58C545.32 255.784 546.552 256.958 546.992 257.568C547.301 257.996 547.697 258.475 547.918 258.956C548.063 259.272 548.087 259.589 548.212 259.924C548.518 260.748 548.784 261.645 549.18 262.406C549.379 262.792 549.6 263.198 549.853 263.542C550.008 263.753 550.274 263.847 550.315 264.173C550.056 264.536 550.04 265.101 549.895 265.561C549.237 267.635 549.485 270.212 550.442 271.747C550.735 272.219 551.427 273.229 552.377 272.841C553.209 272.502 553.023 271.453 553.261 270.527C553.315 270.317 553.282 270.163 553.387 270.022V270.064L554.145 271.579C554.706 272.482 555.7 273.425 556.543 274.061C556.98 274.391 557.325 274.963 557.89 275.155V275.113H557.848C557.738 274.942 557.567 274.872 557.427 274.734C557.097 274.411 556.731 274.011 556.459 273.64C555.692 272.6 555.015 271.46 554.397 270.274C554.103 269.708 553.847 269.083 553.598 268.507C553.502 268.285 553.503 267.948 553.304 267.834C553.031 268.256 552.631 268.598 552.42 269.096C552.084 269.893 552.04 270.865 551.915 271.873L551.831 271.915C551.245 271.773 551.039 271.17 550.821 270.653C550.27 269.344 550.168 267.236 550.653 265.73C550.778 265.34 551.345 264.112 551.115 263.752C551.005 263.393 550.644 263.185 550.442 262.91C550.178 262.541 549.952 262.147 549.769 261.732C549.318 260.711 549.108 259.566 548.634 258.534C548.406 258.041 548.023 257.542 547.708 257.104C547.359 256.618 546.968 256.26 546.698 255.673C546.602 255.464 546.471 255.13 546.613 254.915C546.658 254.771 546.723 254.71 546.866 254.663C547.11 254.475 547.79 254.726 548.044 254.831C548.719 255.112 549.282 255.378 549.854 255.757C550.128 255.939 550.405 256.291 550.738 256.388H551.116C551.709 256.524 552.372 256.429 552.926 256.598C553.904 256.895 554.781 257.358 555.576 257.86C558.002 259.392 559.984 261.572 561.341 264.172C561.559 264.591 561.654 264.99 561.845 265.434C562.233 266.329 562.722 267.251 563.107 268.127C563.492 269.001 563.868 269.883 564.412 270.61C564.698 270.992 565.803 271.197 566.305 271.409C566.658 271.558 567.234 271.713 567.568 271.913C568.204 272.298 568.822 272.755 569.419 273.176C569.717 273.388 570.636 273.849 570.681 274.23ZM551.873 258.199C551.618 258.195 551.364 258.223 551.116 258.283V258.325H551.158C551.305 258.628 551.564 258.822 551.747 259.083L552.168 259.966L552.21 259.925C552.47 259.741 552.589 259.448 552.588 258.999C552.483 258.889 552.468 258.751 552.378 258.62C552.258 258.444 552.025 258.346 551.873 258.199Z" fill="#00618A"/>
<path d="M134.023 255.609L124.732 271.715L115.449 255.609L124.738 239.525L134.023 255.609Z" fill="#5A676D"/>
<path d="M143.313 239.525H124.742L134.028 255.609H152.606L143.313 239.525Z" fill="#BCAE79"/>
<path d="M143.309 271.724L152.599 255.616L161.882 271.724L152.595 287.808L143.309 271.724Z" fill="#5A676D"/>
<path d="M134.016 287.808H152.59L143.304 271.722L124.726 271.724L134.016 287.808Z" fill="#BCAE79"/>
<path d="M110.176 306.198V296.349H108.601V300.422H103.945V296.349H102.358V306.198H103.945V301.779H108.601V306.198H110.176ZM114.74 306.198V296.349H113.149V306.198H114.74ZM124.263 303.221C124.263 302.199 123.664 301.223 122.38 300.973V300.945C123.387 300.595 124.058 299.705 124.058 298.698C124.058 297.18 122.95 296.306 120.805 296.306C119.608 296.306 118.484 296.334 117.713 296.347V306.196C118.807 306.212 119.798 306.239 120.397 306.239C123.417 306.242 124.263 304.505 124.263 303.221ZM122.396 298.947C122.396 299.938 121.623 300.538 120.148 300.538C119.814 300.538 119.565 300.538 119.301 300.522V297.604C119.715 297.586 120.128 297.576 120.542 297.574C121.943 297.576 122.396 298.144 122.396 298.947ZM122.586 303.25C122.586 304.244 121.899 304.942 120.455 304.942C119.945 304.942 119.551 304.914 119.301 304.868V301.733C119.521 301.719 120.031 301.719 120.192 301.719C121.579 301.719 122.586 302.126 122.586 303.25ZM131.805 306.198V304.841H128.203V301.779H131.631V300.479H128.203V297.677H131.805V296.349H126.612V306.198H131.805ZM141.008 306.198L138.411 302.77C138.164 302.447 137.857 302.069 137.58 301.719C139.184 301.543 140.368 300.535 140.368 298.961C140.368 297.004 138.967 296.29 136.923 296.29C135.815 296.29 134.998 296.306 134.284 296.347V306.198H135.872V301.936H135.946L139.01 306.198H141.008ZM138.704 299.137C138.704 300.115 137.93 300.771 136.646 300.771C136.388 300.774 136.131 300.762 135.873 300.742V297.62C136.149 297.602 136.426 297.59 136.704 297.59C138.031 297.59 138.704 298.057 138.704 299.137Z" fill="#5A676D"/>
<path d="M150.954 306.198V296.349H149.408V299.267C149.408 300.712 149.449 302.827 149.509 303.951C149.145 303.237 148.752 302.449 148.312 301.719L145.06 296.349H142.974V306.198H144.519V302.886C144.519 301.486 144.49 299.488 144.433 298.524C144.758 299.234 145.123 299.926 145.527 300.595L148.896 306.198H150.954ZM161.471 306.198L157.896 296.349H156.131L152.601 306.198H154.206L154.964 304.024H158.946L159.706 306.198L161.471 306.198ZM158.523 302.753H155.371L156.481 299.705C156.671 299.181 156.831 298.64 156.934 298.144H156.962C157.078 298.684 157.211 299.151 157.401 299.662L158.523 302.753ZM168.136 297.691V296.349H161.134V297.691H163.832V306.198H165.423V297.691H168.136ZM174.975 306.198V304.841H171.372V301.779H174.798V300.479H171.372V297.677H174.975V296.349H169.781V306.198H174.975Z" fill="#BCAE79"/>
<g clip-path="url(#clip1_555_125)">
<path d="M245.073 271.305H241.384C241.323 271.305 241.262 271.293 241.205 271.269C241.149 271.246 241.098 271.211 241.054 271.168C241.011 271.124 240.977 271.073 240.954 271.016C240.93 270.959 240.918 270.898 240.919 270.836V267.108C240.919 267.046 240.907 266.986 240.884 266.929C240.861 266.872 240.828 266.821 240.785 266.777C240.742 266.734 240.691 266.699 240.634 266.676C240.578 266.653 240.518 266.641 240.457 266.641H239.074C238.951 266.642 238.834 266.69 238.747 266.776C238.66 266.864 238.612 266.983 238.612 267.107V270.836C238.612 270.961 238.564 271.08 238.479 271.17C238.391 271.256 238.273 271.305 238.15 271.305H236.769C236.647 271.305 236.529 271.256 236.441 271.17C236.398 271.126 236.364 271.074 236.341 271.016C236.319 270.959 236.307 270.898 236.308 270.836V267.108C236.307 266.983 236.258 266.863 236.171 266.774C236.128 266.73 236.076 266.696 236.02 266.673C235.963 266.65 235.903 266.638 235.842 266.639H234.462C234.401 266.639 234.34 266.65 234.284 266.674C234.228 266.697 234.176 266.732 234.133 266.775C234.091 266.819 234.057 266.871 234.034 266.928C234.011 266.985 233.999 267.046 234 267.107V277.836C234 277.962 234.048 278.08 234.136 278.167C234.179 278.211 234.23 278.246 234.286 278.27C234.343 278.293 234.403 278.305 234.464 278.304H245.073C245.134 278.304 245.195 278.291 245.251 278.268C245.307 278.244 245.358 278.209 245.401 278.166C245.444 278.122 245.478 278.071 245.501 278.014C245.524 277.957 245.536 277.896 245.536 277.835V271.782C245.537 271.72 245.526 271.658 245.504 271.6C245.481 271.542 245.448 271.49 245.405 271.445C245.361 271.401 245.31 271.365 245.253 271.341C245.196 271.317 245.135 271.305 245.073 271.305H245.073ZM243.217 275.266C243.218 275.358 243.201 275.449 243.167 275.534C243.133 275.619 243.082 275.697 243.018 275.762C242.953 275.828 242.877 275.879 242.792 275.915C242.708 275.95 242.618 275.968 242.526 275.968H241.6C241.417 275.968 241.241 275.895 241.11 275.765C240.982 275.631 240.91 275.453 240.909 275.267V274.337C240.909 274.148 240.984 273.971 241.11 273.838C241.241 273.708 241.417 273.634 241.6 273.633H242.526C242.618 273.633 242.708 273.652 242.792 273.687C242.876 273.723 242.953 273.775 243.017 273.84C243.081 273.905 243.132 273.983 243.167 274.068C243.201 274.153 243.219 274.244 243.218 274.336L243.217 275.266ZM282.524 278.412C282.247 278.45 281.965 278.476 281.681 278.485C281.12 278.518 280.564 278.356 280.107 278.026C279.761 277.733 279.587 277.22 279.587 276.517V271.105H278.324V270.307H279.587V268.459L280.41 267.9V270.302H282.524V271.103H280.414V276.246C280.414 276.476 280.359 277.669 281.611 277.669C281.921 277.666 282.228 277.618 282.524 277.524V278.412ZM276.935 266.713V268.071H275.708V266.714L276.935 266.713ZM276.743 270.307V278.301H275.913V270.307H276.743ZM268.689 266.711V275.028C268.689 275.478 268.702 278.485 271.445 278.485C272.104 278.485 274.507 278.25 274.507 274.396C274.507 270.536 272.397 270.13 271.762 270.13C271.261 270.128 270.774 270.292 270.374 270.598C269.975 270.903 269.687 271.332 269.553 271.819H269.518V266.711H268.68H268.689ZM273.506 274.372C273.506 277.606 271.72 277.672 271.445 277.672C271.165 277.672 269.555 277.672 269.555 274.502C269.555 271.872 270.808 270.922 271.667 270.922C272.531 270.922 273.504 271.819 273.504 274.373L273.506 274.372ZM261.582 266.711V275.028C261.582 275.478 261.596 278.485 264.335 278.485C264.996 278.485 267.402 278.25 267.402 274.396C267.402 270.536 265.29 270.13 264.654 270.13C264.153 270.128 263.666 270.293 263.267 270.598C262.868 270.903 262.579 271.332 262.446 271.819H262.419V266.711H261.576H261.582ZM266.401 274.372C266.401 277.606 264.613 277.672 264.336 277.672C264.059 277.672 262.448 277.672 262.448 274.502C262.448 271.872 263.701 270.922 264.562 270.922C265.422 270.922 266.401 271.819 266.401 274.373V274.372ZM255.006 272.222H256.023C256.115 271.756 256.314 270.924 257.67 270.924C259.445 270.924 259.385 272.481 259.385 273.081V273.783C259.385 273.783 258.807 273.783 258.449 273.818C257.093 273.924 254.879 274.281 254.879 276.345C254.879 278.413 256.575 278.482 256.903 278.482C257.39 278.49 257.87 278.374 258.3 278.145C258.728 277.913 259.092 277.577 259.359 277.169H259.394V278.301H260.218V272.844C260.218 272.027 260.292 270.123 257.746 270.123C255.201 270.123 255.006 271.843 255.006 272.221V272.222ZM259.383 274.583C259.383 274.891 259.361 275.201 259.325 275.509C259.242 276.056 258.968 276.556 258.551 276.916C258.134 277.276 257.602 277.473 257.053 277.472C256.904 277.487 256.753 277.47 256.611 277.422C256.468 277.374 256.338 277.295 256.228 277.192C256.118 277.09 256.029 276.966 255.969 276.828C255.909 276.69 255.879 276.54 255.879 276.389C255.879 275.965 256.041 274.974 257.652 274.663C257.992 274.598 259.383 274.584 259.383 274.584V274.583ZM247.495 266.712V278.302H248.488V273.061H249.865C250.23 273.054 250.592 273.114 250.935 273.239C251.95 273.627 252.062 274.815 252.247 275.574L252.823 278.316H253.822L253.174 275.19C252.984 274.247 252.855 273.844 252.597 273.436C252.252 272.896 251.27 272.602 251.27 272.602C252.881 272.286 253.581 271.191 253.581 269.702C253.581 268.333 252.926 266.736 249.914 266.736H247.495V266.712ZM248.488 267.634H249.801C252.422 267.634 252.577 269.043 252.577 269.682C252.577 270.208 252.478 272.139 249.396 272.139H248.488V267.634Z" fill="#FF6600"/>
<path d="M301.676 277.514C302.736 276.596 303.305 274.884 303.305 272.416C303.305 268.819 301.96 266.511 299.451 266.511C297.099 266.511 295.458 268.444 295.458 272.416C295.458 276.386 296.852 278.308 299.381 278.308H304.114V277.334L301.676 277.514ZM296.548 272.418C296.548 269.115 297.482 267.512 299.439 267.512C301.394 267.512 302.203 269.43 302.203 272.418C302.203 275.409 301.491 277.334 299.39 277.334C297.288 277.334 296.548 275.72 296.548 272.418ZM289.749 278.301H288.705L285.265 267.641V278.301H284.348V266.714H285.996L289.197 276.856H289.232L292.446 266.714H294.051V278.301H293.146V267.641L289.749 278.301ZM306.721 276.524H305.115V276.666H305.844V278.327H305.986V276.666H306.721V276.524ZM308.247 276.666L307.723 278.327H307.561L307.032 276.666V278.327H306.891V276.524H307.148L307.65 278.106L308.148 276.524H308.4V278.327H308.257V276.666H308.247Z" fill="#A6B3AE"/>
</g>
<g clip-path="url(#clip2_555_125)">
<path d="M401.082 266.29C400.985 266.517 400.909 267.009 400.875 267.666L401.625 268.023C401.61 267.584 401.628 267.144 401.678 266.707C401.68 266.678 401.682 266.661 401.682 266.661C401.682 266.677 401.678 266.69 401.678 266.707C401.662 266.84 401.629 267.256 401.673 268.005C401.984 267.755 402.429 267.334 402.782 266.972C402.409 266.222 401.945 266.089 401.945 266.089C401.945 266.089 401.283 265.826 401.082 266.29Z" fill="url(#paint0_linear_555_125)"/>
<path d="M403.678 271.967L403.572 272.073C403.59 272.057 403.608 272.037 403.627 272.019C403.645 272.001 403.664 271.982 403.678 271.967Z" fill="#BD1E2E"/>
<mask id="mask0_555_125" style="mask-type:luminance" maskUnits="userSpaceOnUse" x="366" y="217" width="76" height="106">
<path d="M366 217.422H441.605V322.891H366V217.422Z" fill="black" fill-opacity="0.349"/>
</mask>
<g mask="url(#mask0_555_125)">
<mask id="mask1_555_125" style="mask-type:luminance" maskUnits="userSpaceOnUse" x="366" y="217" width="76" height="106">
<path d="M366 217.422H441.605V322.891H366V217.422Z" fill="white"/>
</mask>
<g mask="url(#mask1_555_125)">
<path d="M403.678 271.967L403.572 272.073C403.59 272.057 403.608 272.037 403.627 272.019C403.645 272.001 403.664 271.982 403.678 271.967Z" fill="#BE202E"/>
</g>
</g>
<path d="M403.406 271.376C403.403 271.378 403.403 271.378 403.406 271.376C403.41 271.371 403.415 271.364 403.421 271.36C403.445 271.337 403.468 271.314 403.488 271.292C403.463 271.319 403.432 271.346 403.406 271.376Z" fill="#BD1E2E"/>
<mask id="mask2_555_125" style="mask-type:luminance" maskUnits="userSpaceOnUse" x="366" y="217" width="76" height="106">
<path d="M366 217.422H441.605V322.891H366V217.422Z" fill="black" fill-opacity="0.349"/>
</mask>
<g mask="url(#mask2_555_125)">
<mask id="mask3_555_125" style="mask-type:luminance" maskUnits="userSpaceOnUse" x="366" y="217" width="76" height="106">
<path d="M366 217.422H441.605V322.891H366V217.422Z" fill="white"/>
</mask>
<g mask="url(#mask3_555_125)">
<path d="M403.406 271.375C403.403 271.378 403.403 271.378 403.406 271.375C403.41 271.371 403.415 271.364 403.421 271.36C403.445 271.337 403.468 271.314 403.488 271.291C403.463 271.319 403.432 271.346 403.406 271.375Z" fill="#BE202E"/>
</g>
</g>
<path d="M401.821 270.204C401.786 269.963 401.755 269.721 401.726 269.479C401.696 269.232 401.673 268.989 401.657 268.751C401.654 268.735 401.654 268.721 401.654 268.707C401.638 268.474 401.625 268.245 401.62 268.023L400.872 267.666L400.865 267.805C400.859 267.982 400.851 268.169 400.851 268.369C400.848 268.832 400.858 269.295 400.881 269.758C400.895 269.962 400.907 270.168 400.925 270.376V270.399L401.926 270.9C401.892 270.667 401.856 270.433 401.821 270.204Z" fill="url(#paint1_linear_555_125)"/>
<path d="M403.297 276.039C403.352 276.222 403.408 276.412 403.468 276.606C403.47 276.606 403.47 276.611 403.472 276.613C403.478 276.641 403.487 276.667 403.498 276.693C403.537 276.824 403.576 276.938 403.657 277.203C403.821 277.169 404.022 277.243 404.232 277.338C404.096 277.173 403.9 277.068 403.687 277.045C404.299 276.643 404.702 276.123 404.644 275.505C404.639 275.448 404.631 275.391 404.619 275.335C404.61 275.574 404.511 275.746 404.218 275.931C404.495 275.45 404.571 275.125 404.538 274.704C404.529 274.597 404.516 274.49 404.499 274.384C404.411 275.011 404.068 275.418 403.569 275.659L403.265 275.933C403.277 275.97 403.286 276.003 403.297 276.039Z" fill="url(#paint2_linear_555_125)"/>
<path d="M402.907 275.196C402.843 274.963 402.781 274.725 402.716 274.485C402.656 274.256 402.596 274.025 402.538 273.788C402.481 273.553 402.425 273.317 402.367 273.08C402.312 272.839 402.257 272.596 402.206 272.354C402.155 272.113 402.107 271.871 402.058 271.633C402.04 271.546 402.023 271.459 402.01 271.371C401.982 271.223 401.954 271.074 401.929 270.926C401.927 270.919 401.927 270.909 401.924 270.9L400.93 270.401C400.949 270.642 400.972 270.882 400.999 271.122C401.027 271.351 401.055 271.582 401.089 271.816C401.119 272.013 401.152 272.207 401.183 272.406C401.191 272.443 401.2 272.484 401.207 272.523C401.251 272.768 401.302 273.004 401.355 273.223C401.412 273.473 401.476 273.706 401.541 273.924C401.585 274.068 401.626 274.205 401.671 274.336C401.707 274.445 401.749 274.555 401.788 274.665C401.883 274.919 401.989 275.167 402.102 275.409L403.108 275.91C403.052 275.73 403.004 275.544 402.948 275.356C402.935 275.304 402.924 275.251 402.907 275.196Z" fill="url(#paint3_linear_555_125)"/>
<path d="M402.118 275.441C402.257 275.734 402.409 276.016 402.58 276.283C402.586 276.293 402.592 276.304 402.597 276.311C402.319 276.201 401.827 276.251 401.83 276.254C402.339 276.428 402.785 276.64 403.066 276.963C402.954 277.084 402.746 277.176 402.483 277.251C402.845 277.291 403.048 277.226 403.122 277.195C402.933 277.353 402.827 277.638 402.732 277.945C402.947 277.599 403.159 277.37 403.364 277.284C403.696 278.351 404.052 279.411 404.432 280.463C404.463 280.424 404.484 280.378 404.492 280.329C404.501 280.28 404.497 280.23 404.48 280.183C404.084 279.077 403.717 277.96 403.38 276.835C403.364 276.782 403.351 276.729 403.334 276.677C403.329 276.662 403.325 276.648 403.32 276.634C403.265 276.443 403.207 276.249 403.149 276.048C403.138 276.002 403.124 275.958 403.11 275.91L402.104 275.406C402.109 275.42 402.111 275.43 402.118 275.441Z" fill="url(#paint4_linear_555_125)"/>
<path d="M402.042 270.921C402.049 270.953 402.056 270.982 402.06 271.017C402.081 271.115 402.097 271.214 402.118 271.315C402.139 271.424 402.162 271.534 402.185 271.649C402.197 271.708 402.206 271.766 402.219 271.824C402.257 271.999 402.296 272.18 402.335 272.365C402.442 272.841 402.555 273.316 402.674 273.789C402.734 274.022 402.797 274.263 402.863 274.51C402.921 274.727 402.986 274.953 403.051 275.185C403.051 275.194 403.057 275.205 403.059 275.217C403.124 275.446 403.191 275.679 403.26 275.917C403.263 275.924 403.263 275.929 403.265 275.933L403.569 275.659C403.56 275.661 403.556 275.665 403.546 275.668C403.906 275.334 404.214 274.661 404.284 274.056C404.317 273.757 404.314 273.455 404.276 273.157C404.248 272.917 404.197 272.662 404.128 272.388C404.064 272.133 403.99 271.881 403.906 271.632C403.844 271.752 403.766 271.863 403.673 271.962C403.657 271.983 403.639 272.001 403.622 272.02L403.565 272.076C403.83 271.669 403.863 271.232 403.784 270.779C403.704 270.997 403.58 271.196 403.417 271.363C403.41 271.367 403.405 271.374 403.396 271.379C403.484 271.234 403.551 271.097 403.593 270.957C403.602 270.928 403.609 270.9 403.616 270.871C403.625 270.825 403.632 270.779 403.639 270.733C403.643 270.704 403.648 270.676 403.651 270.644C403.655 270.573 403.654 270.502 403.648 270.431C403.645 270.408 403.645 270.385 403.643 270.364C403.619 270.21 403.587 270.058 403.548 269.907C403.536 269.858 403.522 269.81 403.507 269.763C403.502 269.746 403.497 269.729 403.494 269.712C403.477 269.664 403.463 269.621 403.449 269.586C403.429 269.532 403.408 269.49 403.394 269.461C403.389 269.481 403.381 269.501 403.371 269.52C403.309 269.664 403.163 269.863 403.029 270.003L403.025 270.01C403.013 270.021 402.997 270.037 402.986 270.051C402.986 270.048 402.99 270.047 402.99 270.042L402.035 270.905C402.042 270.912 402.044 270.916 402.042 270.921Z" fill="url(#paint5_linear_555_125)"/>
<path d="M401.673 268.005C401.685 268.213 401.703 268.444 401.728 268.701C401.728 268.717 401.728 268.728 401.733 268.742C401.753 268.966 401.781 269.206 401.815 269.472C401.848 269.699 401.88 269.939 401.922 270.197C401.957 270.422 401.999 270.657 402.042 270.907L402.997 270.044C403.196 269.687 403.24 269.465 403.237 269.191C403.235 269.117 403.23 269.039 403.225 268.959C403.209 268.71 403.181 268.462 403.14 268.215C403.101 267.975 403.052 267.746 402.997 267.549C402.967 267.435 402.93 267.322 402.889 267.211C402.854 267.126 402.817 267.05 402.782 266.975C402.43 267.334 401.984 267.755 401.673 268.005Z" fill="url(#paint6_linear_555_125)"/>
<path d="M403.629 272.022L403.571 272.076C403.59 272.058 403.606 272.04 403.629 272.022Z" fill="#BD1E2E"/>
<mask id="mask4_555_125" style="mask-type:luminance" maskUnits="userSpaceOnUse" x="366" y="217" width="76" height="106">
<path d="M366 217.422H441.605V322.891H366V217.422Z" fill="black" fill-opacity="0.349"/>
</mask>
<g mask="url(#mask4_555_125)">
<mask id="mask5_555_125" style="mask-type:luminance" maskUnits="userSpaceOnUse" x="366" y="217" width="76" height="106">
<path d="M366 217.422H441.605V322.891H366V217.422Z" fill="white"/>
</mask>
<g mask="url(#mask5_555_125)">
<path d="M403.629 272.022L403.571 272.076C403.59 272.058 403.606 272.04 403.629 272.022Z" fill="#BE202E"/>
</g>
</g>
<path d="M403.629 272.022L403.571 272.076C403.59 272.058 403.606 272.04 403.629 272.022Z" fill="url(#paint7_linear_555_125)"/>
<path d="M403.403 271.378C403.408 271.373 403.412 271.367 403.421 271.36C403.414 271.364 403.409 271.372 403.404 271.377L403.403 271.378Z" fill="#BD1E2E"/>
<mask id="mask6_555_125" style="mask-type:luminance" maskUnits="userSpaceOnUse" x="366" y="217" width="76" height="106">
<path d="M366 217.422H441.605V322.891H366V217.422Z" fill="black" fill-opacity="0.349"/>
</mask>
<g mask="url(#mask6_555_125)">
<mask id="mask7_555_125" style="mask-type:luminance" maskUnits="userSpaceOnUse" x="366" y="217" width="76" height="106">
<path d="M366 217.422H441.605V322.891H366V217.422Z" fill="white"/>
</mask>
<g mask="url(#mask7_555_125)">
<path d="M403.403 271.378C403.408 271.373 403.412 271.367 403.421 271.36C403.414 271.364 403.409 271.372 403.404 271.377L403.403 271.378Z" fill="#BE202E"/>
</g>
</g>
<path d="M403.403 271.378C403.408 271.373 403.412 271.367 403.421 271.36C403.414 271.364 403.409 271.372 403.404 271.377L403.403 271.378Z" fill="url(#paint8_linear_555_125)"/>
<path d="M371.881 262.738H375.379C375.621 262.738 375.793 262.789 375.894 262.887C375.979 262.957 376.029 263.063 376.044 263.205C376.057 263.331 376.078 263.459 376.109 263.585C376.136 263.812 376.166 264.045 376.194 264.283C376.237 264.51 376.272 264.743 376.3 264.984C376.459 265.882 376.589 266.785 376.687 267.691C376.8 268.609 376.937 269.52 377.096 270.422C377.151 270.705 377.195 270.994 377.223 271.289C377.252 271.587 377.294 271.875 377.352 272.159C377.366 272.228 377.381 272.298 377.396 272.37C377.407 272.438 377.446 272.498 377.502 272.539C377.531 272.553 377.553 272.566 377.566 272.583C377.594 272.596 377.631 272.589 377.675 272.559C377.788 272.532 377.88 272.448 377.951 272.305C378.017 272.176 378.089 272.049 378.166 271.926C378.34 271.601 378.503 271.282 378.66 270.974C378.82 270.648 378.99 270.323 379.174 269.998C379.634 269.138 380.09 268.277 380.55 267.416C381.02 266.544 381.485 265.669 381.944 264.791C382.059 264.567 382.172 264.347 382.287 264.137C382.416 263.91 382.536 263.683 382.651 263.459C382.709 263.345 382.774 263.233 382.846 263.12C382.919 263.004 383.022 262.909 383.145 262.846C383.245 262.774 383.366 262.737 383.489 262.738H387.178C387.322 262.738 387.42 262.768 387.478 262.823C387.621 262.908 387.665 263.07 387.608 263.31C387.564 263.537 387.523 263.768 387.478 264.009L386.834 267.183L385.227 275.056L384.862 276.899C384.832 277.054 384.797 277.21 384.754 277.366C384.721 277.493 384.645 277.604 384.539 277.682C384.438 277.754 384.319 277.798 384.195 277.81H382.158C382.066 277.783 381.973 277.761 381.879 277.746C381.807 277.732 381.749 277.681 381.707 277.597C381.664 277.527 381.65 277.435 381.664 277.322C381.694 277.211 381.722 277.089 381.749 276.963L381.964 275.883L383.081 270.442C383.109 270.245 383.139 270.062 383.166 269.893C383.21 269.71 383.244 269.527 383.275 269.344C383.302 269.229 383.33 269.117 383.36 269.005C383.387 268.877 383.402 268.758 383.402 268.643C383.388 268.538 383.388 268.432 383.402 268.327C383.431 268.213 383.409 268.144 383.337 268.115C383.295 268.101 383.259 268.108 383.23 268.135C383.203 268.165 383.18 268.186 383.166 268.2C383.091 268.261 383.026 268.332 382.972 268.412C382.931 268.483 382.887 268.552 382.846 268.623C382.716 268.836 382.587 269.053 382.458 269.279C382.345 269.504 382.215 269.73 382.073 269.957C382.029 270.042 381.987 270.127 381.943 270.211C381.912 270.301 381.869 270.387 381.814 270.465C381.701 270.648 381.592 270.831 381.493 271.015C381.404 271.204 381.304 271.388 381.194 271.566C381.163 271.61 381.141 271.66 381.129 271.712C381.112 271.757 381.09 271.8 381.064 271.841C380.976 271.97 380.897 272.105 380.827 272.244C380.771 272.383 380.693 272.525 380.591 272.665C380.506 272.793 380.428 272.928 380.356 273.068C380.296 273.214 380.224 273.356 380.141 273.491C379.883 273.901 379.647 274.317 379.433 274.741C379.217 275.152 378.995 275.561 378.768 275.968C378.73 276.003 378.701 276.047 378.683 276.096C378.683 276.137 378.66 276.18 378.618 276.222C378.516 276.379 378.423 276.542 378.34 276.709C378.265 276.87 378.178 277.026 378.081 277.174C378.027 277.268 377.97 277.36 377.91 277.451C377.852 277.533 377.788 277.604 377.716 277.662C377.646 277.712 377.566 277.748 377.481 277.767C377.41 277.767 377.317 277.78 377.202 277.81H376.708C376.586 277.811 376.465 277.818 376.344 277.831H375.935C375.813 277.831 375.691 277.824 375.57 277.81C375.458 277.796 375.379 277.766 375.335 277.725C375.236 277.654 375.171 277.577 375.142 277.492C375.124 277.377 375.095 277.263 375.056 277.153C375.028 276.984 375.006 276.815 374.991 276.645C374.978 276.467 374.95 276.29 374.906 276.116L374.885 275.927C374.841 275.752 374.812 275.574 374.8 275.395C374.786 275.21 374.757 275.026 374.712 274.846V274.741C374.712 274.697 374.705 274.654 374.692 274.612C374.647 274.483 374.619 274.348 374.606 274.212C374.591 274.07 374.57 273.929 374.541 273.788V273.681C374.542 273.645 374.536 273.609 374.521 273.576C374.491 273.436 374.47 273.294 374.456 273.152C374.456 273.013 374.433 272.871 374.392 272.729C374.334 272.448 374.283 272.15 374.242 271.841C374.213 271.535 374.17 271.231 374.112 270.93C374.054 270.571 374.004 270.212 373.962 269.852C373.936 269.493 373.871 269.137 373.768 268.792C373.748 268.625 373.705 268.46 373.64 268.305C373.615 268.279 373.586 268.258 373.554 268.243C373.54 268.213 373.513 268.213 373.469 268.243C373.426 268.263 373.389 268.293 373.359 268.329C373.33 268.365 373.309 268.408 373.298 268.454C373.281 268.556 373.252 268.656 373.21 268.751C373.154 268.849 373.118 268.956 373.104 269.067L373.06 269.385C373.031 269.542 372.996 269.698 372.954 269.852C372.924 270.005 372.889 270.161 372.846 270.316L371.711 275.947L371.496 276.984C371.466 277.096 371.438 277.21 371.408 277.322C371.399 277.426 371.354 277.523 371.281 277.598C371.21 277.696 371.087 277.76 370.917 277.787C370.812 277.817 370.703 277.832 370.594 277.831C370.48 277.817 370.365 277.81 370.25 277.81H368.706C368.577 277.796 368.478 277.753 368.406 277.682C368.335 277.611 368.305 277.506 368.319 277.366C368.348 277.21 368.376 277.055 368.406 276.899L368.771 275.036L370.379 267.163L370.979 264.198C370.995 264.113 371.009 264.015 371.023 263.903C371.051 263.775 371.081 263.656 371.108 263.544C371.136 263.438 371.164 263.332 371.194 263.226C371.237 263.113 371.272 263.029 371.302 262.971C371.387 262.873 371.517 262.802 371.687 262.761C371.731 262.745 371.759 262.745 371.773 262.761C371.803 262.761 371.838 262.752 371.881 262.738ZM397.524 276.984C397.524 277.139 397.511 277.295 397.483 277.451C397.471 277.524 397.438 277.592 397.389 277.648C397.339 277.704 397.275 277.745 397.204 277.767C397.101 277.81 396.991 277.832 396.88 277.831H394.993C394.878 277.817 394.792 277.78 394.735 277.725C394.651 277.671 394.59 277.588 394.564 277.492C394.541 277.388 394.489 277.293 394.414 277.217C394.384 277.187 394.347 277.165 394.306 277.153C394.278 277.126 394.227 277.119 394.156 277.132C394.074 277.159 393.995 277.195 393.921 277.238C393.852 277.279 393.78 277.315 393.706 277.343C393.621 277.4 393.528 277.451 393.427 277.492C393.341 277.533 393.249 277.577 393.147 277.618C392.946 277.703 392.739 277.774 392.527 277.831C392.312 277.872 392.098 277.922 391.883 277.98C391.768 278.007 391.661 278.021 391.56 278.021C391.475 278.034 391.383 278.05 391.281 278.064H391.152C391.111 278.078 391.068 278.084 391.025 278.085H390.787C390.645 278.112 390.5 278.112 390.358 278.085H390.166C390.069 278.057 389.968 278.042 389.866 278.041C389.78 278.057 389.691 278.05 389.608 278.021C389.479 277.994 389.351 277.965 389.222 277.936C389.102 277.925 388.985 277.889 388.879 277.83C388.491 277.675 388.178 277.478 387.935 277.238C387.691 276.984 387.527 276.652 387.442 276.242C387.411 276.139 387.389 276.033 387.377 275.927C387.377 275.812 387.37 275.693 387.356 275.564C387.34 275.495 387.34 275.423 387.356 275.354C387.383 275.286 387.397 275.214 387.397 275.141C387.397 275.1 387.404 275.015 387.421 274.889C387.448 274.748 387.476 274.649 387.506 274.592C387.562 274.45 387.598 274.331 387.612 274.233C387.683 274.077 387.755 273.921 387.827 273.766C387.912 273.596 388.007 273.45 388.106 273.321C388.42 272.912 388.756 272.603 389.114 272.39C389.472 272.179 389.915 271.997 390.446 271.841C390.64 271.771 390.841 271.721 391.045 271.692C391.246 271.664 391.454 271.628 391.668 271.587C391.781 271.559 391.904 271.543 392.033 271.543C392.169 271.531 392.305 271.51 392.439 271.482C392.537 271.452 392.64 271.444 392.741 271.458C392.84 271.458 392.956 271.445 393.083 271.417C393.181 271.389 393.283 271.375 393.385 271.374C393.484 271.374 393.59 271.36 393.706 271.333C393.99 271.267 394.276 271.21 394.564 271.163C394.849 271.1 395.114 270.969 395.337 270.781C395.475 270.661 395.591 270.518 395.678 270.358C395.693 270.324 395.701 270.289 395.702 270.252C395.702 270.223 395.709 270.194 395.722 270.167C395.753 270.133 395.769 270.088 395.766 270.042C395.78 269.985 395.794 269.944 395.808 269.913V269.598C395.75 269.174 395.508 268.884 395.078 268.728C394.933 268.681 394.782 268.653 394.629 268.643C394.451 268.616 394.271 268.609 394.091 268.623C393.906 268.623 393.719 268.636 393.535 268.666C393.382 268.689 393.23 268.724 393.083 268.772C392.984 268.8 392.89 268.842 392.804 268.898C392.605 268.994 392.424 269.123 392.269 269.28C392.169 269.378 392.097 269.47 392.054 269.554C391.961 269.684 391.875 269.819 391.795 269.957C391.724 270.083 391.604 270.168 391.431 270.211C391.311 270.239 391.189 270.253 391.066 270.252H389.866C389.787 270.253 389.707 270.26 389.629 270.273C389.571 270.275 389.513 270.268 389.458 270.252H389.264C389.231 270.238 389.195 270.231 389.158 270.232C389.138 270.233 389.118 270.229 389.099 270.222C389.08 270.214 389.063 270.203 389.049 270.188C388.95 270.161 388.893 270.069 388.879 269.913C388.879 269.841 388.893 269.77 388.92 269.703C388.95 269.632 388.978 269.568 389.009 269.513C389.08 269.358 389.151 269.215 389.222 269.09C389.308 268.947 389.394 268.82 389.479 268.707C389.537 268.637 389.594 268.565 389.652 268.496C389.708 268.425 389.765 268.354 389.823 268.284C389.966 268.128 390.136 267.982 390.337 267.84C390.394 267.816 390.445 267.78 390.487 267.735C390.573 267.677 390.644 267.629 390.702 267.586C390.773 267.545 390.852 267.501 390.937 267.46C391.209 267.304 391.488 267.183 391.775 267.098C392.073 267 392.374 266.908 392.677 266.823C392.862 266.782 393.048 266.753 393.232 266.739C393.428 266.724 393.623 266.696 393.814 266.654C393.87 266.641 393.955 266.641 394.07 266.654C394.186 266.668 394.264 266.661 394.306 266.634C394.857 266.618 395.409 266.64 395.958 266.698C396.488 266.753 396.952 266.86 397.354 267.014C397.769 267.169 398.104 267.382 398.362 267.65C398.634 267.904 398.812 268.236 398.897 268.643C398.941 268.884 398.941 269.158 398.897 269.47C398.853 269.789 398.796 270.107 398.726 270.422L397.76 275.141C397.719 275.411 397.667 275.686 397.61 275.968C397.556 276.211 397.534 276.46 397.545 276.709C397.545 276.75 397.538 276.801 397.524 276.858V276.984ZM395.038 273.725C395.066 273.649 395.087 273.571 395.1 273.491C395.116 273.392 395.123 273.308 395.123 273.237C395.122 273.159 395.129 273.08 395.143 273.003C395.151 272.972 395.149 272.939 395.137 272.909C395.126 272.878 395.105 272.852 395.078 272.834C395.021 272.779 394.922 272.75 394.779 272.75C394.721 272.765 394.67 272.779 394.629 272.793C394.585 272.793 394.527 272.8 394.456 272.813C394.351 272.844 394.244 272.865 394.135 272.878C394.012 272.893 393.891 272.914 393.771 272.942C393.707 272.958 393.642 272.965 393.577 272.962C393.386 273.003 393.192 273.031 392.997 273.047C392.808 273.063 392.621 273.098 392.439 273.153C392.326 273.182 392.211 273.21 392.098 273.237C391.996 273.251 391.897 273.28 391.795 273.321C391.466 273.451 391.167 273.645 390.917 273.894C390.66 274.148 390.51 274.5 390.466 274.952C390.452 275.192 390.494 275.389 390.596 275.544C390.653 275.7 390.773 275.828 390.96 275.927C391.144 276.011 391.352 276.073 391.58 276.116C391.811 276.157 392.054 276.174 392.312 276.157C392.573 276.131 392.831 276.082 393.083 276.011C393.485 275.897 393.814 275.72 394.07 275.48C394.352 275.213 394.585 274.898 394.758 274.551C394.799 274.45 394.836 274.352 394.864 274.253C394.894 274.141 394.935 274.026 394.993 273.914L395.038 273.725ZM422.406 272.264C422.406 272.376 422.378 272.505 422.321 272.644C422.263 272.786 422.191 272.878 422.106 272.919C422.035 272.976 421.929 273.02 421.785 273.047C421.642 273.061 421.483 273.074 421.313 273.088H420.819C420.676 273.075 420.533 273.068 420.389 273.068H414.854C414.774 273.066 414.694 273.081 414.619 273.111C414.489 273.166 414.404 273.223 414.361 273.28C414.313 273.334 414.27 273.39 414.231 273.45C414.192 273.513 414.17 273.586 414.169 273.66C414.183 273.745 414.183 273.83 414.169 273.914C414.169 273.985 414.176 274.063 414.19 274.148C414.231 274.487 414.312 274.769 414.425 274.995C414.555 275.206 414.741 275.395 414.984 275.564C415.083 275.636 415.191 275.686 415.304 275.713C415.433 275.727 415.555 275.757 415.669 275.798C415.784 275.828 415.935 275.849 416.121 275.863C416.322 275.876 416.499 275.869 416.656 275.842H416.85L417.258 275.757C417.385 275.713 417.515 275.672 417.644 275.628C417.801 275.558 417.981 275.466 418.179 275.354C418.351 275.262 418.51 275.148 418.652 275.015C418.737 274.917 418.832 274.826 418.931 274.741C419.022 274.648 419.131 274.576 419.252 274.528C419.411 274.457 419.596 274.429 419.811 274.443H420.689C420.776 274.428 420.865 274.436 420.948 274.466H421.163C421.291 274.493 421.384 274.528 421.441 274.572C421.483 274.599 421.499 274.663 421.483 274.761C421.485 274.85 421.464 274.938 421.421 275.015C421.313 275.201 421.19 275.378 421.054 275.544C420.935 275.707 420.806 275.863 420.669 276.011C420.269 276.476 419.84 276.849 419.381 277.132C418.925 277.414 418.373 277.654 417.729 277.851C417.569 277.906 417.403 277.941 417.235 277.957C417.062 277.975 416.891 278.003 416.721 278.041C416.658 278.057 416.591 278.057 416.527 278.041C416.469 278.042 416.412 278.05 416.356 278.065H416.121C416.037 278.092 415.949 278.098 415.863 278.085C415.777 278.085 415.699 278.078 415.627 278.064C415.528 278.05 415.427 278.05 415.327 278.064C415.234 278.078 415.138 278.07 415.048 278.041C414.973 278.013 414.893 277.999 414.813 278C414.739 278.004 414.665 277.989 414.598 277.957C414.439 277.93 414.281 277.894 414.125 277.851C413.989 277.826 413.858 277.776 413.74 277.703C413.605 277.65 413.469 277.601 413.332 277.556C413.211 277.503 413.096 277.44 412.988 277.366C412.599 277.092 412.252 276.764 411.959 276.391C411.679 275.994 411.474 275.55 411.356 275.079C411.315 274.926 411.286 274.77 411.271 274.612C411.271 274.443 411.25 274.274 411.206 274.104V273.958C411.222 273.901 411.23 273.844 411.23 273.788C411.214 273.605 411.214 273.421 411.23 273.237C411.257 273.04 411.285 272.843 411.315 272.644C411.329 272.573 411.336 272.498 411.336 272.413C411.349 272.333 411.371 272.255 411.401 272.179L411.465 271.926L411.636 271.417C411.737 271.177 411.83 270.944 411.915 270.719C412 270.493 412.109 270.282 412.238 270.083C413.151 268.616 414.411 267.579 416.012 266.972C416.219 266.889 416.435 266.832 416.656 266.803C416.871 266.76 417.099 266.712 417.344 266.654C417.45 266.641 417.557 266.634 417.665 266.634C417.766 266.634 417.872 266.627 417.988 266.613C418.717 266.597 419.323 266.682 419.811 266.867C420.297 267.037 420.72 267.261 421.077 267.545C421.19 267.63 421.298 267.728 421.398 267.84C421.513 267.938 421.606 268.044 421.677 268.158C421.707 268.229 421.756 268.284 421.827 268.328C421.912 268.483 421.984 268.643 422.041 268.813C422.113 268.969 422.192 269.131 422.277 269.3C422.321 269.429 422.348 269.561 422.365 269.703C422.392 269.829 422.42 269.971 422.45 270.126C422.477 270.31 422.491 270.5 422.491 270.696C422.508 270.896 422.521 271.093 422.535 271.289C422.535 271.404 422.515 271.53 422.47 271.671C422.443 271.789 422.436 271.911 422.45 272.031L422.406 272.264ZM419.425 271.015C419.554 270.875 419.596 270.705 419.554 270.507L419.489 270.042C419.36 269.659 419.153 269.371 418.867 269.175C418.581 268.962 418.144 268.85 417.558 268.836C417.536 268.849 417.511 268.858 417.486 268.862C417.46 268.865 417.433 268.863 417.408 268.856C417.359 268.842 417.307 268.842 417.258 268.856C417.174 268.883 417.087 268.904 417 268.921C416.915 268.921 416.836 268.934 416.765 268.962C416.091 269.158 415.549 269.547 415.134 270.126C415.079 270.2 415.028 270.277 414.984 270.358C414.927 270.443 414.883 270.536 414.854 270.634C414.827 270.719 414.812 270.804 414.812 270.889C414.812 270.93 414.821 270.97 414.84 271.007C414.858 271.044 414.885 271.075 414.919 271.1C415.018 271.17 415.17 271.205 415.369 271.205H418.952C419.18 271.191 419.34 271.127 419.425 271.015ZM431.658 266.634C432.516 266.606 433.204 266.726 433.718 266.993C434.247 267.261 434.618 267.657 434.833 268.179C434.904 268.335 434.948 268.504 434.962 268.687C434.99 268.857 435.013 269.032 435.027 269.216C435.041 269.327 435.041 269.436 435.027 269.534C435.013 269.632 435.013 269.731 435.027 269.829C434.999 269.914 434.99 269.971 435.006 269.999C434.99 270.198 434.962 270.401 434.919 270.612C434.877 270.825 434.833 271.028 434.792 271.227L434.427 273.111L433.718 276.54C433.661 276.808 433.603 277.069 433.545 277.322C433.49 277.562 433.354 277.718 433.139 277.787C433.042 277.818 432.94 277.833 432.837 277.831H431.338C431.164 277.831 431.014 277.824 430.885 277.81C430.756 277.78 430.664 277.718 430.606 277.618C430.563 277.518 430.548 277.409 430.565 277.302C430.592 277.16 430.622 277.011 430.65 276.858L430.95 275.375L431.594 272.221C431.695 271.699 431.767 271.22 431.808 270.781C431.866 270.33 431.815 269.95 431.658 269.639C431.515 269.358 431.266 269.158 430.908 269.046C430.832 269.018 430.751 269.004 430.67 269.005C430.6 269.005 430.528 268.989 430.456 268.962C430.363 268.948 430.269 268.948 430.177 268.962C430.077 268.962 429.999 268.969 429.942 268.982C429.87 268.998 429.812 269.005 429.77 269.005C429.727 269.005 429.683 269.012 429.642 269.025C429.298 269.11 429.012 269.222 428.783 269.364C428.255 269.689 427.881 270.161 427.667 270.781C427.451 271.47 427.272 272.169 427.131 272.877L426.596 275.523L426.337 276.814C426.31 276.943 426.28 277.069 426.252 277.197C426.229 277.309 426.185 277.416 426.123 277.513C426.08 277.586 426.021 277.648 425.95 277.695C425.879 277.743 425.799 277.774 425.715 277.787C425.524 277.819 425.33 277.834 425.136 277.831H424.062C423.905 277.831 423.748 277.824 423.591 277.81C423.434 277.796 423.333 277.746 423.291 277.661C423.204 277.533 423.19 277.35 423.248 277.112C423.305 276.872 423.354 276.645 423.398 276.435L423.976 273.555L424.92 268.897L425.158 267.819C425.186 267.664 425.213 267.522 425.243 267.396C425.269 267.272 425.337 267.159 425.435 267.078C425.473 267.031 425.527 267.001 425.587 266.993C425.658 266.966 425.728 266.943 425.8 266.929H425.908C425.979 266.915 426.051 266.908 426.122 266.908H427.261C427.373 266.908 427.482 266.915 427.581 266.929C427.696 266.929 427.796 266.943 427.881 266.972C427.969 267.013 428.017 267.078 428.033 267.163C428.061 267.247 428.075 267.346 428.075 267.46C428.075 267.515 428.068 267.565 428.054 267.606C428.04 267.648 428.04 267.693 428.054 267.735C428.068 267.805 428.082 267.846 428.096 267.861C428.125 267.874 428.161 267.897 428.204 267.925C428.347 267.938 428.483 267.89 428.613 267.776C428.74 267.65 428.868 267.552 428.998 267.48C429.441 267.197 429.913 266.972 430.415 266.803C430.558 266.76 430.694 266.733 430.821 266.719C430.963 266.704 431.123 266.682 431.293 266.654C431.357 266.64 431.423 266.64 431.487 266.654C431.573 266.654 431.63 266.648 431.658 266.634ZM436.972 266.617C436.986 266.629 436.992 266.652 436.992 266.689C436.993 266.723 436.986 266.758 436.972 266.789L436.967 266.823C436.957 266.847 436.944 266.868 436.928 266.888C436.913 266.904 436.894 266.916 436.872 266.922C436.837 266.927 436.801 266.93 436.764 266.929C436.718 266.927 436.681 266.927 436.649 266.927H436.584C436.571 266.931 436.556 266.934 436.545 266.929C436.534 266.927 436.523 266.929 436.513 266.934C436.476 266.949 436.447 266.978 436.43 267.014C436.421 267.03 436.415 267.048 436.413 267.067C436.411 267.084 436.406 267.105 436.404 267.126L436.199 268.124C436.197 268.138 436.194 268.151 436.194 268.163C436.195 268.174 436.191 268.185 436.185 268.195L436.176 268.229L436.169 268.254C436.169 268.264 436.164 268.27 436.155 268.277C436.143 268.299 436.123 268.315 436.1 268.323C436.084 268.329 436.066 268.332 436.049 268.332H435.855C435.807 268.332 435.774 268.321 435.756 268.298C435.747 268.279 435.744 268.261 435.747 268.238C435.754 268.215 435.758 268.19 435.765 268.162L435.966 267.163C435.97 267.149 435.973 267.135 435.975 267.122C435.981 267.109 435.983 267.096 435.98 267.082L435.989 267.023C435.991 266.977 435.977 266.949 435.945 266.938C435.909 266.923 435.869 266.917 435.83 266.922C435.781 266.924 435.738 266.927 435.701 266.927C435.687 266.927 435.673 266.927 435.657 266.929C435.645 266.929 435.636 266.929 435.627 266.927C435.623 266.924 435.618 266.922 435.612 266.921C435.607 266.92 435.602 266.92 435.597 266.922C435.588 266.921 435.579 266.92 435.571 266.918C435.543 266.904 435.53 266.881 435.535 266.849C435.538 266.812 435.543 266.775 435.551 266.739C435.553 266.723 435.555 266.707 435.56 266.693C435.565 266.678 435.572 266.664 435.581 266.65C435.589 266.637 435.601 266.627 435.616 266.62L435.657 266.6C435.666 266.597 435.673 266.597 435.675 266.6C435.68 266.6 435.687 266.6 435.696 266.595H436.843C436.868 266.595 436.891 266.597 436.914 266.6C436.937 266.6 436.956 266.606 436.972 266.617ZM439.254 266.625C439.265 266.646 439.268 266.67 439.263 266.693C439.258 266.719 439.256 266.746 439.249 266.778L438.97 268.154C438.966 268.182 438.959 268.211 438.949 268.238C438.943 268.26 438.933 268.28 438.92 268.298C438.898 268.321 438.868 268.332 438.825 268.332H438.705C438.686 268.332 438.667 268.332 438.649 268.337C438.634 268.337 438.619 268.334 438.605 268.328C438.58 268.318 438.564 268.307 438.559 268.288C438.555 268.272 438.555 268.252 438.555 268.224L438.566 268.154C438.567 268.144 438.568 268.134 438.571 268.124C438.573 268.11 438.578 268.096 438.58 268.085L438.69 267.547C438.698 267.515 438.702 267.481 438.709 267.446C438.716 267.416 438.72 267.384 438.721 267.353C438.718 267.338 438.716 267.327 438.716 267.32C438.716 267.309 438.714 267.3 438.704 267.295C438.702 267.29 438.698 267.29 438.69 267.29C438.681 267.297 438.671 267.302 438.661 267.307C438.632 267.343 438.607 267.381 438.584 267.421C438.561 267.464 438.536 267.503 438.51 267.544C438.46 267.632 438.409 267.721 438.361 267.81C438.312 267.897 438.262 267.984 438.211 268.069C438.187 268.108 438.165 268.154 438.137 268.203C438.117 268.246 438.086 268.282 438.047 268.309C438.029 268.321 438.008 268.329 437.987 268.332H437.851C437.838 268.326 437.825 268.321 437.812 268.318C437.8 268.313 437.79 268.306 437.782 268.298C437.773 268.288 437.767 268.276 437.766 268.264C437.761 268.25 437.758 268.236 437.756 268.223C437.748 268.197 437.742 268.171 437.738 268.144C437.735 268.117 437.731 268.09 437.726 268.06C437.708 267.977 437.693 267.894 437.682 267.81C437.671 267.725 437.657 267.64 437.641 267.556L437.613 267.412C437.61 267.368 437.594 267.326 437.567 267.29C437.562 267.29 437.558 267.29 437.553 267.295H437.546C437.533 267.304 437.523 267.317 437.517 267.332C437.507 267.346 437.503 267.361 437.498 267.375C437.498 267.387 437.496 267.398 437.491 267.412L437.477 267.485C437.47 267.497 437.468 267.508 437.463 267.52C437.461 267.529 437.461 267.54 437.461 267.547L437.357 268.039C437.35 268.076 437.343 268.121 437.332 268.174C437.327 268.213 437.313 268.251 437.292 268.284C437.283 268.291 437.275 268.299 437.267 268.307C437.261 268.312 437.254 268.316 437.246 268.319C437.23 268.325 437.214 268.328 437.193 268.332H437.022C436.992 268.334 436.962 268.325 436.937 268.307C436.921 268.295 436.914 268.277 436.914 268.252C436.919 268.224 436.921 268.197 436.928 268.167L437.211 266.769C437.216 266.744 437.223 266.721 437.228 266.698C437.234 266.677 437.244 266.656 437.258 266.638C437.272 266.618 437.295 266.606 437.327 266.6C437.336 266.597 437.341 266.597 437.343 266.6C437.35 266.6 437.357 266.6 437.366 266.595H437.738C437.767 266.595 437.789 266.602 437.803 266.618C437.825 266.634 437.839 266.661 437.842 266.698C437.866 266.812 437.888 266.926 437.907 267.041C437.92 267.119 437.934 267.2 437.95 267.282C437.959 267.323 437.969 267.368 437.975 267.412C437.985 267.475 437.997 267.537 438.012 267.599C438.015 267.607 438.02 267.614 438.026 267.619C438.032 267.625 438.039 267.629 438.047 267.631C438.063 267.638 438.074 267.636 438.086 267.625C438.1 267.613 438.112 267.604 438.116 267.595C438.143 267.565 438.166 267.532 438.185 267.497C438.204 267.46 438.224 267.426 438.245 267.391C438.305 267.297 438.361 267.204 438.412 267.108C438.467 267.009 438.525 266.913 438.585 266.819L438.654 266.698C438.675 266.656 438.711 266.623 438.755 266.604C438.776 266.6 438.797 266.595 438.815 266.595H439.125C439.141 266.593 439.157 266.593 439.173 266.595H439.194C439.206 266.602 439.217 266.607 439.228 266.608C439.242 266.611 439.252 266.618 439.254 266.625Z" fill="black"/>
<path d="M410.87 266.476C410.609 266.581 410.152 266.918 409.594 267.419L409.91 268.295C410.253 267.93 410.621 267.59 411.013 267.277L411.054 267.242C411.042 267.256 411.026 267.266 411.013 267.277C410.893 267.373 410.533 267.682 409.965 268.321C410.415 268.362 411.114 268.371 411.689 268.357C411.993 267.46 411.726 266.991 411.726 266.991C411.726 266.991 411.405 266.259 410.869 266.475L410.87 266.476Z" fill="url(#paint9_linear_555_125)"/>
<path d="M408.389 273.079C408.332 273.081 408.271 273.081 408.214 273.084C408.244 273.084 408.276 273.084 408.304 273.081C408.332 273.083 408.361 273.082 408.389 273.079Z" fill="#BD1E2E"/>
<mask id="mask8_555_125" style="mask-type:luminance" maskUnits="userSpaceOnUse" x="366" y="217" width="76" height="106">
<path d="M366 217.422H441.605V322.891H366V217.422Z" fill="black" fill-opacity="0.349"/>
</mask>
<g mask="url(#mask8_555_125)">
<mask id="mask9_555_125" style="mask-type:luminance" maskUnits="userSpaceOnUse" x="366" y="217" width="76" height="106">
<path d="M366 217.422H441.605V322.891H366V217.422Z" fill="white"/>
</mask>
<g mask="url(#mask9_555_125)">
<path d="M408.389 273.079C408.332 273.081 408.271 273.081 408.214 273.084C408.244 273.084 408.276 273.084 408.304 273.081C408.333 273.084 408.364 273.081 408.389 273.079Z" fill="#BE202E"/>
</g>
</g>
<path d="M408.643 272.39C408.641 272.39 408.641 272.39 408.643 272.39H408.668C408.708 272.39 408.745 272.39 408.779 272.388C408.736 272.39 408.688 272.388 408.643 272.39Z" fill="#BD1E2E"/>
<mask id="mask10_555_125" style="mask-type:luminance" maskUnits="userSpaceOnUse" x="366" y="217" width="76" height="106">
<path d="M366 217.422H441.605V322.891H366V217.422Z" fill="black" fill-opacity="0.349"/>
</mask>
<g mask="url(#mask10_555_125)">
<mask id="mask11_555_125" style="mask-type:luminance" maskUnits="userSpaceOnUse" x="366" y="217" width="76" height="106">
<path d="M366 217.422H441.605V322.891H366V217.422Z" fill="white"/>
</mask>
<g mask="url(#mask11_555_125)">
<path d="M408.643 272.39C408.641 272.39 408.641 272.39 408.643 272.39H408.668C408.708 272.39 408.745 272.39 408.779 272.388C408.736 272.39 408.688 272.388 408.643 272.39Z" fill="#BE202E"/>
</g>
</g>
<path d="M408.311 270.204C408.482 269.978 408.65 269.76 408.819 269.545C409.163 269.111 409.526 268.693 409.908 268.291L409.592 267.419C409.554 267.453 409.515 267.487 409.473 267.527C409.326 267.661 409.172 267.808 409.01 267.966C408.83 268.144 408.645 268.332 408.452 268.531C408.276 268.714 408.097 268.911 407.914 269.11C407.762 269.284 407.607 269.458 407.453 269.641C407.446 269.648 407.44 269.654 407.434 269.662L407.838 270.848C407.997 270.633 408.154 270.417 408.311 270.204Z" fill="url(#paint10_linear_555_125)"/>
<path d="M404.801 276.059C404.698 276.249 404.589 276.446 404.483 276.65C404.483 276.652 404.481 276.654 404.481 276.657C404.465 276.686 404.449 276.714 404.434 276.743C404.364 276.878 404.301 277.002 404.156 277.279C404.312 277.38 404.416 277.595 404.508 277.837C404.531 277.598 404.458 277.359 404.303 277.174C405.122 277.329 405.865 277.229 406.317 276.687C406.356 276.636 406.396 276.586 406.433 276.531C406.234 276.714 406.015 276.773 405.629 276.695C406.238 276.524 406.564 276.322 406.876 275.956C406.956 275.863 407.031 275.767 407.102 275.668C406.525 276.105 405.923 276.164 405.328 275.965L404.861 275.949C404.841 275.986 404.821 276.022 404.801 276.059Z" fill="url(#paint11_linear_555_125)"/>
<path d="M405.166 275.075C405.304 274.837 405.443 274.596 405.586 274.352C405.863 273.88 406.147 273.412 406.437 272.948C406.585 272.708 406.737 272.472 406.892 272.237C407.191 271.775 407.5 271.319 407.819 270.871C407.824 270.861 407.831 270.854 407.833 270.847L407.436 269.664C407.426 269.679 407.415 269.693 407.402 269.705C407.24 269.9 407.074 270.096 406.913 270.3C406.746 270.507 406.585 270.715 406.426 270.93C406.291 271.111 406.158 271.294 406.027 271.477C406.001 271.513 405.976 271.553 405.948 271.589C405.64 272.039 405.353 272.503 405.09 272.98C405.011 273.129 404.933 273.273 404.864 273.413C404.806 273.53 404.75 273.651 404.695 273.77C404.568 274.047 404.451 274.329 404.347 274.615L404.753 275.808C404.854 275.617 404.965 275.43 405.072 275.237C405.104 275.182 405.134 275.13 405.166 275.075Z" fill="url(#paint12_linear_555_125)"/>
<path d="M404.333 274.654C404.209 274.997 404.105 275.343 404.026 275.693C404.026 275.704 404.02 275.718 404.02 275.73C403.883 275.423 403.447 275.079 403.449 275.082C403.717 275.62 403.906 276.142 403.872 276.62C403.685 276.631 403.443 276.542 403.17 276.395C403.431 276.712 403.643 276.821 403.729 276.853C403.452 276.83 403.136 276.977 402.813 277.151C403.262 277.041 403.618 277.023 403.853 277.114C403.259 278.233 402.693 279.366 402.153 280.511C402.209 280.504 402.263 280.483 402.309 280.45C402.355 280.416 402.391 280.372 402.416 280.321C402.99 279.121 403.595 277.935 404.229 276.764L404.317 276.602C404.323 276.586 404.333 276.572 404.34 276.556C404.449 276.361 404.559 276.157 404.675 275.952L404.755 275.809V275.808L404.349 274.615C404.343 274.627 404.337 274.64 404.333 274.654Z" fill="url(#paint13_linear_555_125)"/>
<path d="M407.913 270.955C407.891 270.987 407.872 271.017 407.851 271.047C407.787 271.141 407.72 271.234 407.658 271.333C407.587 271.436 407.515 271.544 407.441 271.653L407.328 271.82C407.217 271.992 407.102 272.166 406.987 272.349C406.841 272.571 406.695 272.802 406.548 273.045C406.405 273.273 406.26 273.514 406.112 273.759C405.974 273.995 405.828 274.235 405.685 274.487C405.555 274.709 405.424 274.94 405.291 275.175C405.284 275.187 405.279 275.201 405.272 275.21C405.141 275.443 405.004 275.686 404.87 275.933C404.866 275.938 404.861 275.945 404.861 275.949L405.327 275.965C405.32 275.961 405.312 275.961 405.3 275.956C405.861 275.968 406.649 275.668 407.194 275.237C407.46 275.022 407.7 274.776 407.909 274.505C408.082 274.29 408.246 274.045 408.413 273.77C408.555 273.535 408.698 273.273 408.839 272.99C408.703 273.036 408.551 273.063 408.387 273.072C408.357 273.074 408.329 273.077 408.299 273.077C408.27 273.079 408.242 273.079 408.209 273.079C408.752 272.96 409.128 272.633 409.43 272.205C409.282 272.276 409.047 272.363 408.775 272.383C408.74 272.388 408.701 272.388 408.664 272.388C408.655 272.386 408.646 272.388 408.636 272.386C408.823 272.338 408.985 272.278 409.133 272.2C409.162 272.184 409.192 272.166 409.22 272.145C409.265 272.118 409.308 272.088 409.349 272.056C409.376 272.033 409.402 272.015 409.43 271.991C409.49 271.942 409.548 271.884 409.601 271.82C409.618 271.801 409.634 271.782 409.649 271.761C409.672 271.729 409.693 271.701 409.714 271.671C409.828 271.512 409.932 271.345 410.025 271.172C410.034 271.155 410.046 271.138 410.053 271.12C410.078 271.067 410.104 271.023 410.12 270.982C410.147 270.923 410.166 270.875 410.177 270.838C410.157 270.851 410.134 270.861 410.111 270.868C409.944 270.937 409.668 270.982 409.449 270.992C409.444 270.992 409.441 270.989 409.439 270.992C409.418 270.992 409.395 270.992 409.372 270.994C409.375 270.992 409.381 270.994 409.384 270.989L407.921 270.937C407.921 270.948 407.916 270.953 407.913 270.955Z" fill="url(#paint14_linear_555_125)"/>
<path d="M409.965 268.32C409.808 268.495 409.635 268.695 409.446 268.923C409.437 268.935 409.426 268.946 409.418 268.957C409.254 269.156 409.084 269.371 408.899 269.611C408.563 270.047 408.239 270.491 407.925 270.943L409.388 270.996C409.836 270.866 410.048 270.722 410.267 270.5C410.327 270.437 410.385 270.371 410.445 270.303C410.804 269.896 411.123 269.456 411.398 268.989C411.472 268.858 411.534 268.739 411.583 268.632C411.622 268.536 411.656 268.446 411.687 268.36C411.114 268.371 410.415 268.362 409.965 268.32Z" fill="url(#paint15_linear_555_125)"/>
<path d="M408.303 273.084C408.274 273.086 408.246 273.084 408.214 273.086C408.243 273.084 408.271 273.081 408.303 273.084Z" fill="#BD1E2E"/>
<mask id="mask12_555_125" style="mask-type:luminance" maskUnits="userSpaceOnUse" x="366" y="217" width="76" height="106">
<path d="M366 217.422H441.605V322.891H366V217.422Z" fill="black" fill-opacity="0.349"/>
</mask>
<g mask="url(#mask12_555_125)">
<mask id="mask13_555_125" style="mask-type:luminance" maskUnits="userSpaceOnUse" x="366" y="217" width="76" height="106">
<path d="M366 217.422H441.605V322.891H366V217.422Z" fill="white"/>
</mask>
<g mask="url(#mask13_555_125)">
<path d="M408.303 273.084C408.274 273.086 408.246 273.084 408.214 273.086C408.243 273.084 408.271 273.081 408.303 273.084Z" fill="#BE202E"/>
</g>
</g>
<path d="M408.303 273.084C408.274 273.086 408.246 273.084 408.214 273.086C408.243 273.084 408.271 273.081 408.303 273.084Z" fill="url(#paint16_linear_555_125)"/>
</g>
</g>
<defs>
<linearGradient id="paint0_linear_555_125" x1="401.173" y1="267.56" x2="402.974" y2="265.239" gradientUnits="userSpaceOnUse">
<stop stop-color="#F69923"/>
<stop offset="0.312" stop-color="#F79A23"/>
<stop offset="0.838" stop-color="#E97826"/>
</linearGradient>
<linearGradient id="paint1_linear_555_125" x1="403.714" y1="281.392" x2="401.097" y2="268.091" gradientUnits="userSpaceOnUse">
<stop offset="0.323" stop-color="#9E2064"/>
<stop offset="0.63" stop-color="#C92037"/>
<stop offset="0.751" stop-color="#CD2335"/>
<stop offset="1" stop-color="#E97826"/>
</linearGradient>
<linearGradient id="paint2_linear_555_125" x1="404.74" y1="279.522" x2="403.181" y2="271.596" gradientUnits="userSpaceOnUse">
<stop stop-color="#282662"/>
<stop offset="0.095" stop-color="#662E8D"/>
<stop offset="0.788" stop-color="#9F2064"/>
<stop offset="0.949" stop-color="#CD2032"/>
</linearGradient>
<linearGradient id="paint3_linear_555_125" x1="403.437" y1="280.67" x2="400.82" y2="267.369" gradientUnits="userSpaceOnUse">
<stop offset="0.323" stop-color="#9E2064"/>
<stop offset="0.63" stop-color="#C92037"/>
<stop offset="0.751" stop-color="#CD2335"/>
<stop offset="1" stop-color="#E97826"/>
</linearGradient>
<linearGradient id="paint4_linear_555_125" x1="403.424" y1="279.665" x2="402.048" y2="272.675" gradientUnits="userSpaceOnUse">
<stop stop-color="#282662"/>
<stop offset="0.095" stop-color="#662E8D"/>
<stop offset="0.788" stop-color="#9F2064"/>
<stop offset="0.949" stop-color="#CD2032"/>
</linearGradient>
<linearGradient id="paint5_linear_555_125" x1="404.831" y1="280.396" x2="402.214" y2="267.095" gradientUnits="userSpaceOnUse">
<stop offset="0.323" stop-color="#9E2064"/>
<stop offset="0.63" stop-color="#C92037"/>
<stop offset="0.751" stop-color="#CD2335"/>
<stop offset="1" stop-color="#E97826"/>
</linearGradient>
<linearGradient id="paint6_linear_555_125" x1="404.928" y1="281.234" x2="402.311" y2="267.933" gradientUnits="userSpaceOnUse">
<stop offset="0.323" stop-color="#9E2064"/>
<stop offset="0.63" stop-color="#C92037"/>
<stop offset="0.751" stop-color="#CD2335"/>
<stop offset="1" stop-color="#E97826"/>
</linearGradient>
<linearGradient id="paint7_linear_555_125" x1="405.232" y1="280.248" x2="402.636" y2="267.054" gradientUnits="userSpaceOnUse">
<stop offset="0.323" stop-color="#9E2064"/>
<stop offset="0.63" stop-color="#C92037"/>
<stop offset="0.751" stop-color="#CD2335"/>
<stop offset="1" stop-color="#E97826"/>
</linearGradient>
<linearGradient id="paint8_linear_555_125" x1="405.127" y1="280.036" x2="402.575" y2="267.17" gradientUnits="userSpaceOnUse">
<stop offset="0.323" stop-color="#9E2064"/>
<stop offset="0.63" stop-color="#C92037"/>
<stop offset="0.751" stop-color="#CD2335"/>
<stop offset="1" stop-color="#E97826"/>
</linearGradient>
<linearGradient id="paint9_linear_555_125" x1="409.973" y1="267.567" x2="413.295" y2="267.143" gradientUnits="userSpaceOnUse">
<stop stop-color="#F69923"/>
<stop offset="0.312" stop-color="#F79A23"/>
<stop offset="0.838" stop-color="#E97826"/>
</linearGradient>
<linearGradient id="paint10_linear_555_125" x1="400.883" y1="280.694" x2="409.262" y2="267.79" gradientUnits="userSpaceOnUse">
<stop offset="0.323" stop-color="#9E2064"/>
<stop offset="0.63" stop-color="#C92037"/>
<stop offset="0.751" stop-color="#CD2335"/>
<stop offset="1" stop-color="#E97826"/>
</linearGradient>
<linearGradient id="paint11_linear_555_125" x1="403.215" y1="279.993" x2="408.208" y2="272.304" gradientUnits="userSpaceOnUse">
<stop stop-color="#282662"/>
<stop offset="0.095" stop-color="#662E8D"/>
<stop offset="0.788" stop-color="#9F2064"/>
<stop offset="0.949" stop-color="#CD2032"/>
</linearGradient>
<linearGradient id="paint12_linear_555_125" x1="401.242" y1="279.896" x2="409.62" y2="266.993" gradientUnits="userSpaceOnUse">
<stop offset="0.323" stop-color="#9E2064"/>
<stop offset="0.63" stop-color="#C92037"/>
<stop offset="0.751" stop-color="#CD2335"/>
<stop offset="1" stop-color="#E97826"/>
</linearGradient>
<linearGradient id="paint13_linear_555_125" x1="402.04" y1="279.077" x2="406.443" y2="272.296" gradientUnits="userSpaceOnUse">
<stop stop-color="#282662"/>
<stop offset="0.095" stop-color="#662E8D"/>
<stop offset="0.788" stop-color="#9F2064"/>
<stop offset="0.949" stop-color="#CD2032"/>
</linearGradient>
<linearGradient id="paint14_linear_555_125" x1="402.584" y1="280.768" x2="410.963" y2="267.865" gradientUnits="userSpaceOnUse">
<stop offset="0.323" stop-color="#9E2064"/>
<stop offset="0.63" stop-color="#C92037"/>
<stop offset="0.751" stop-color="#CD2335"/>
<stop offset="1" stop-color="#E97826"/>
</linearGradient>
<linearGradient id="paint15_linear_555_125" x1="401.988" y1="281.519" x2="410.367" y2="268.615" gradientUnits="userSpaceOnUse">
<stop offset="0.323" stop-color="#9E2064"/>
<stop offset="0.63" stop-color="#C92037"/>
<stop offset="0.751" stop-color="#CD2335"/>
<stop offset="1" stop-color="#E97826"/>
</linearGradient>
<linearGradient id="paint16_linear_555_125" x1="403.026" y1="280.961" x2="411.333" y2="268.163" gradientUnits="userSpaceOnUse">
<stop offset="0.323" stop-color="#9E2064"/>
<stop offset="0.63" stop-color="#C92037"/>
<stop offset="0.751" stop-color="#CD2335"/>
<stop offset="1" stop-color="#E97826"/>
</linearGradient>
<clipPath id="clip0_555_125">
<rect width="695" height="364" fill="white"/>
</clipPath>
<clipPath id="clip1_555_125">
<rect width="74.4" height="75" fill="white" transform="translate(234 235)"/>
</clipPath>
<clipPath id="clip2_555_125">
<rect width="75.6048" height="75" fill="white" transform="translate(366 235)"/>
</clipPath>
</defs>
</svg>
