<svg width="40" height="40" viewBox="0 0 40 40" fill="none" xmlns="http://www.w3.org/2000/svg">
<g clip-path="url(#clip0_528_5)">
<path d="M40 20C40 31.0456 31.0456 40 20 40C8.95437 40 0 31.0456 0 20C0 8.95437 8.95437 0 20 0C31.0456 0 40 8.95437 40 20Z" fill="black"/>
<mask id="mask0_528_5" style="mask-type:luminance" maskUnits="userSpaceOnUse" x="0" y="0" width="40" height="40">
<path d="M40 20C40 31.0456 31.0456 40 20 40C8.95437 40 0 31.0456 0 20C0 8.95437 8.95437 0 20 0C31.0456 0 40 8.95437 40 20Z" fill="white"/>
</mask>
<g mask="url(#mask0_528_5)">
<path d="M12.0313 29.625C9.41675 29.625 9.41675 29.625 9.41675 27.0105V12.6563C9.41675 10.0417 9.41675 10.0417 12.0313 10.0417H12.5522C15.1667 10.0417 15.1667 10.0417 15.1667 12.6563V27.0105C15.1667 29.625 15.1667 29.625 12.5522 29.625H12.0313ZM18.9127 29.625C18.0222 29.625 17.5833 29.1861 17.5833 28.2957V11.371C17.5833 10.4807 18.0222 10.0417 18.9127 10.0417H24.7778C29.8057 10.0417 33.001 15.0844 33.001 19.8894C33.001 24.6944 29.7778 29.625 24.7778 29.625H18.9127Z" fill="white"/>
</g>
</g>
<defs>
<clipPath id="clip0_528_5">
<rect width="40" height="40" fill="white"/>
</clipPath>
</defs>
</svg>
