<svg width="50" height="50" viewBox="0 0 50 50" fill="none" xmlns="http://www.w3.org/2000/svg">
<path d="M15.625 26.5625V22.6254C15.625 19.9016 18.0539 17.5781 20.8527 17.5781H29.0957C31.3902 17.5781 32.8125 15.6094 32.8125 13.3055V5.44727C32.8125 3.21055 31.1304 1.53086 28.8906 1.15782C27.504 0.925533 26.1 0.812879 24.6941 0.821098C23.2836 0.827739 21.8273 0.94766 20.6418 1.15782C17.1492 1.77422 16.4062 3.06563 16.4062 5.44727V8.59375H24.6093V9.76563H13.6293C11.2308 9.76563 9.13083 11.1445 8.4738 13.8875C7.71638 17.0309 7.68278 19.0445 8.4738 22.327C9.06052 24.7699 10.4617 26.5625 12.8597 26.5625H15.625ZM20.3336 6.49532C19.4781 6.49532 18.7851 5.79414 18.7851 4.92774C18.7851 4.05704 19.4777 3.35 20.3336 3.35C21.1859 3.35 21.882 4.05743 21.882 4.92774C21.882 5.79414 21.1859 6.49532 20.3336 6.49532ZM41.4746 13.8875C40.882 11.4992 39.7496 9.76563 37.3484 9.76563H33.9843V13.3055C33.9843 16.1465 31.8422 18.75 29.0957 18.75H20.8527C18.5949 18.75 16.4062 20.4699 16.4062 22.7316V30.5898C16.4062 32.8262 18.5109 34.1418 20.6929 34.7828C23.3047 35.5512 25.6855 35.6898 28.8109 34.7828C30.8883 34.1813 32.8125 32.9711 32.8125 30.5898V27.7344H24.6093V26.5625H37.348C39.7465 26.5625 40.6402 24.8375 41.4742 22.327C42.3359 19.7418 42.2992 17.2039 41.4746 13.8875ZM29.6148 29.541C30.4703 29.541 31.1636 30.2422 31.1636 31.1094C31.1636 31.9793 30.4707 32.6863 29.6148 32.6863C28.7625 32.6863 28.0668 31.9789 28.0668 31.1094C28.0668 30.2422 28.7625 29.541 29.6148 29.541ZM13.6371 43.7691C13.6371 42.3016 13.2183 41.5481 12.3816 41.507C12.0491 41.4908 11.7169 41.5453 11.407 41.6668C11.1547 41.757 10.9843 41.8469 10.8949 41.9371V45.4402C11.4304 45.7762 11.9058 45.9324 12.3203 45.9078C13.198 45.85 13.6371 45.1379 13.6371 43.7691ZM14.6695 43.8305C14.6695 44.5762 14.4949 45.1949 14.1429 45.6871C13.7511 46.2445 13.2078 46.5309 12.5133 46.5469C11.9898 46.5637 11.4504 46.3992 10.8953 46.0555V49.2395L9.99763 48.9191V41.8516C10.1449 41.6711 10.3343 41.516 10.5644 41.3844C11.0988 41.0727 11.7484 40.9129 12.5125 40.9047L12.5254 40.9172C13.2238 40.9086 13.7621 41.1953 14.1402 41.777C14.4925 42.3105 14.6695 42.9945 14.6695 43.8305ZM20.1574 45.9199C20.1574 46.9199 20.057 47.6125 19.8566 47.9973C19.655 48.3824 19.2718 48.6898 18.7062 48.9188C18.2476 49.0996 17.7515 49.1977 17.2187 49.2145L17.0703 48.6488C17.6117 48.5754 17.9929 48.5012 18.214 48.4277C18.6492 48.2805 18.9476 48.0547 19.1117 47.752C19.2433 47.5055 19.3082 47.0352 19.3082 46.3387V46.1047C18.7025 46.3814 18.044 46.5238 17.3781 46.5219C16.9359 46.5219 16.5461 46.3836 16.2101 46.1047C15.8328 45.8012 15.6441 45.4156 15.6441 44.9492V41.2125L16.5422 40.9051V44.6668C16.5422 45.0684 16.6718 45.3777 16.9312 45.5949C17.1906 45.8121 17.5265 45.916 17.9383 45.9086C18.35 45.9 18.791 45.7402 19.2593 45.4289V41.0406H20.1574V45.9199ZM23.6625 46.4977C23.5641 46.5058 23.4655 46.5099 23.3668 46.5102C22.859 46.5102 22.4629 46.3895 22.18 46.1469C21.898 45.9039 21.7566 45.5691 21.7566 45.1418V41.6051H21.1418V41.0402H21.7566V39.5402L22.6535 39.2211V41.0402H23.6625V41.6051H22.6535V45.1172C22.6535 45.4539 22.7437 45.693 22.9246 45.832C23.0797 45.9473 23.3265 46.0129 23.6625 46.0297V46.4977ZM29.0988 46.4238H28.2011V42.9578C28.2011 42.6055 28.1187 42.3016 27.9547 42.048C27.7652 41.7613 27.5019 41.6176 27.164 41.6176C26.7523 41.6176 26.2375 41.8348 25.6195 42.2691V46.4238H24.7218V38.1395L25.6195 37.8563V41.6293C26.1933 41.2121 26.8199 41.0027 27.5008 41.0027C27.9765 41.0027 28.3613 41.1629 28.6562 41.4824C28.9519 41.8016 29.0992 42.1996 29.0992 42.675V46.4238H29.0988ZM33.8715 43.6281C33.8715 43.0641 33.7644 42.5984 33.5511 42.2301C33.2976 41.7813 32.9039 41.5441 32.3711 41.5199C31.3867 41.577 30.8953 42.282 30.8953 43.634C30.8953 44.2539 30.9976 44.7715 31.2039 45.1871C31.4672 45.7168 31.8621 45.9777 32.3886 45.9691C33.3773 45.9613 33.8715 45.1813 33.8715 43.6281ZM34.855 43.634C34.855 44.4367 34.6496 45.1047 34.2398 45.6383C33.789 46.2352 33.166 46.5352 32.3715 46.5352C31.5836 46.5352 30.9695 46.2352 30.5265 45.6383C30.125 45.1047 29.9242 44.4367 29.9242 43.634C29.9242 42.8793 30.1414 42.2449 30.5758 41.7281C31.0343 41.1801 31.6375 40.9051 32.3832 40.9051C33.1289 40.9051 33.7359 41.1801 34.2035 41.7281C34.6375 42.2449 34.855 42.8793 34.855 43.634ZM40.0027 46.4238H39.1047V42.7613C39.1047 42.3598 38.9836 42.0461 38.7422 41.8203C38.5004 41.5953 38.1785 41.4863 37.7765 41.4949C37.3504 41.5031 36.9445 41.6426 36.5593 41.9125V46.4238H35.6613V41.8016C36.1781 41.4254 36.6535 41.1797 37.0879 41.0648C37.4976 40.9578 37.859 40.9047 38.1703 40.9047C38.3832 40.9047 38.584 40.9254 38.7726 40.9664C39.1254 41.0481 39.4121 41.1992 39.6332 41.4211C39.8797 41.6668 40.0027 41.9617 40.0027 42.3066V46.4238Z" fill="black"/>
</svg>
