<svg width="50" height="50" viewBox="0 0 50 50" fill="none" xmlns="http://www.w3.org/2000/svg">
<g clip-path="url(#clip0_520_24)">
<path d="M29.6458 25.0083C29.6458 26.2434 29.1553 27.428 28.2822 28.3015C27.409 29.1751 26.2247 29.6661 24.9896 29.6667C23.7541 29.6667 22.5692 29.1759 21.6956 28.3023C20.822 27.4287 20.3312 26.2438 20.3312 25.0083C20.3312 23.7732 20.8218 22.5887 21.6949 21.7151C22.5681 20.8416 23.7524 20.3505 24.9875 20.35C26.223 20.35 27.4078 20.8408 28.2814 21.7144C29.155 22.588 29.6458 23.7729 29.6458 25.0083ZM35.1625 2.73749C32.3583 2.73749 28.6896 4.73749 24.9792 8.19999C21.2708 4.75624 17.6 2.77915 14.7979 2.77915C13.9437 2.77915 13.1667 2.9729 12.4937 3.35832C9.62917 5.0104 8.9875 10.1583 10.4667 16.6187C4.125 18.5771 0 21.7083 0 25.0083C0 28.3208 4.14583 31.4604 10.5063 33.4042C9.03958 39.8896 9.69375 45.0458 12.5646 46.6958C13.2312 47.0854 14.0021 47.2687 14.8604 47.2687C17.6625 47.2687 21.3333 45.2687 25.0437 41.8021C28.7521 45.2479 32.4229 47.225 35.225 47.225C36.0792 47.225 36.8562 47.0375 37.5292 46.6521C40.3917 45.0021 41.0354 39.8542 39.5562 33.3917C45.875 31.45 50 28.3125 50 25.0083C50 21.6958 45.8542 18.5562 39.4938 16.6083C40.9604 10.1292 40.3062 4.96874 37.4354 3.31665C36.7414 2.92636 35.9586 2.72655 35.1625 2.73749ZM35.1521 5.00832V5.02082C35.6208 5.02082 35.9979 5.11249 36.3146 5.2854C37.7021 6.08124 38.3042 9.10832 37.8354 13.0021C37.7229 13.9604 37.5396 14.9708 37.3146 16.0021C35.1843 15.4866 33.0218 15.1149 30.8417 14.8896C29.5433 13.0979 28.127 11.3948 26.6021 9.79165C29.9187 6.70832 33.0333 5.01665 35.1542 5.0104L35.1521 5.00832ZM14.7979 5.04999C16.9062 5.04999 20.0354 6.73332 23.3604 9.79999C21.9312 11.3 20.5062 13.0021 19.1521 14.8875C16.9669 15.1102 14.7999 15.4847 12.6667 16.0083C12.443 15.0313 12.2664 14.044 12.1375 13.05C11.6583 9.15832 12.25 6.13332 13.625 5.32707C14.0208 5.13957 14.4583 5.0604 14.7979 5.04999ZM24.9687 11.4042C25.9167 12.3792 26.8646 13.4708 27.8021 14.6625C26.8854 14.6208 25.9479 14.5917 25 14.5917C24.0417 14.5917 23.0937 14.6125 22.1667 14.6625C23.0833 13.4708 24.0312 12.3812 24.9687 11.4042ZM25 16.875C26.5417 16.875 28.0771 16.9458 29.5875 17.0687C30.4333 18.2812 31.2583 19.575 32.0521 20.9437C32.8271 22.2771 33.5312 23.6312 34.1729 24.9979C33.5312 26.3625 32.8271 27.7271 32.0625 29.0604C31.2708 30.4354 30.4521 31.7437 29.6042 32.9562C26.5463 33.2238 23.471 33.2273 20.4125 32.9667C19.5379 31.7095 18.7156 30.4168 17.9479 29.0917C17.1729 27.7583 16.4687 26.4042 15.8271 25.0375C16.4709 23.6504 17.175 22.2922 17.9375 20.9667C18.7292 19.5917 19.5479 18.2875 20.3958 17.075C21.9268 16.9397 23.463 16.8716 25 16.8708V16.875ZM17.4271 17.4042C16.9271 18.1896 16.4271 18.9937 15.9604 19.8208C15.4917 20.6333 15.0542 21.45 14.6375 22.2667C14.0854 20.9 13.6167 19.5375 13.2292 18.2104C14.5625 17.8979 15.9687 17.6187 17.4271 17.4042ZM32.5521 17.4042C34 17.6187 35.3958 17.8833 36.7312 18.2104C36.3562 19.5271 35.8875 20.8812 35.3563 22.2375C34.5061 20.5792 33.5709 18.9659 32.5542 17.4042H32.5521ZM38.9333 18.8104C39.9417 19.1229 40.9 19.4708 41.7979 19.8479C45.4062 21.3896 47.7396 23.4062 47.7396 25.0062C47.7292 26.6062 45.3958 28.6312 41.7875 30.1625C40.9125 30.5375 39.9542 30.875 38.9646 31.1896C38.3388 29.0717 37.5733 26.9977 36.6729 24.9812C37.6104 22.8625 38.3604 20.7937 38.9333 18.8062V18.8104ZM11.0271 18.8187C11.6063 20.8187 12.3708 22.8958 13.3187 25.0271C12.4249 27.0315 11.669 29.0946 11.0562 31.2021C10.0479 30.8896 9.08958 30.5396 8.20208 30.1604C4.59375 28.625 2.26042 26.6062 2.26042 25.0062C2.26042 23.4062 4.59375 21.3771 8.20208 19.8479C9.07708 19.4729 10.0354 19.1354 11.0271 18.8187ZM35.3563 27.7354C35.9083 29.1042 36.3771 30.4687 36.7646 31.7937C35.4312 32.1208 34.0229 32.3979 32.5646 32.6062C33.58 31.0324 34.5104 29.4065 35.3563 27.7354ZM14.6375 27.7771C15.0542 28.5937 15.4917 29.4083 15.9708 30.225C16.45 31.0375 16.9396 31.8333 17.4396 32.6062C16.0348 32.403 14.6403 32.1347 13.2604 31.8021C13.6354 30.4896 14.1062 29.1312 14.6354 27.775L14.6375 27.7771ZM37.3333 34C37.5667 35.0271 37.75 36.0167 37.8625 36.9646C38.3417 40.8562 37.75 43.8812 36.375 44.6896C36.0687 44.8771 35.6708 44.9562 35.2021 44.9562C33.0937 44.9562 29.9646 43.275 26.6396 40.2062C28.0687 38.7062 29.4937 37.0062 30.8479 35.1229C33.1542 34.8771 35.3354 34.5 37.3333 34ZM12.6875 34.0208C14.6875 34.5083 16.8667 34.8854 19.1604 35.1292C20.5354 37.0146 21.9625 38.7271 23.4 40.225C20.0771 43.3146 16.9583 45.0062 14.8375 45.0062C14.4368 45.0094 14.0414 44.915 13.6854 44.7312C12.2979 43.9396 11.6958 40.9104 12.1646 37.0167C12.2771 36.0583 12.4625 35.05 12.6875 34.0208ZM22.1875 35.3542C23.1042 35.3958 24.0417 35.425 24.9896 35.425C25.9479 35.425 26.8958 35.4042 27.8229 35.3542C26.9062 36.5458 25.9583 37.6354 25.0208 38.6146C24.0729 37.6354 23.125 36.5458 22.1875 35.3542Z" fill="black"/>
</g>
<defs>
<clipPath id="clip0_520_24">
<rect width="50" height="50" fill="white"/>
</clipPath>
</defs>
</svg>
