<svg width="30" height="30" viewBox="0 0 30 30" fill="none" xmlns="http://www.w3.org/2000/svg">
<path d="M0.398437 23.1094C0.257812 23.0391 0.164062 22.875 0.164062 22.6875C0.164062 22.4062 0.375 22.1953 0.65625 22.1953C0.75 22.1953 0.84375 22.2188 0.914062 22.2656C1.42969 22.6172 1.99219 22.7812 2.48438 22.7812C3.02344 22.7812 3.32812 22.5469 3.32812 22.1953V22.1719C3.32812 21.75 2.74219 21.6094 2.10937 21.4219C1.3125 21.1875 0.421875 20.8594 0.421875 19.8281V19.8047C0.421875 18.7734 1.26562 18.1641 2.34375 18.1641C2.92969 18.1641 3.51562 18.3281 4.05469 18.6094C4.21875 18.7031 4.35937 18.8672 4.35937 19.0781C4.35937 19.3594 4.125 19.5703 3.84375 19.5703C3.75 19.5703 3.67969 19.5469 3.58594 19.5C3.14062 19.2656 2.69531 19.125 2.32031 19.125C1.82812 19.125 1.57031 19.3594 1.57031 19.6641V19.6875C1.57031 20.0859 2.15625 20.25 2.78906 20.4609C3.58594 20.6953 4.47656 21.0703 4.47656 22.0312V22.0547C4.47656 23.2031 3.58594 23.7656 2.46094 23.7656C1.78125 23.7656 1.03125 23.5547 0.398437 23.1094ZM9.32812 20.9766C9.32812 19.9219 8.625 19.2422 7.78125 19.2422C6.9375 19.2422 6.21094 19.9453 6.21094 20.9766V21C6.21094 22.0312 6.9375 22.7344 7.78125 22.7344C8.625 22.6875 9.32812 22.0312 9.32812 20.9766ZM5.01562 18.7969C5.01562 18.4453 5.27344 18.1641 5.625 18.1641C5.97656 18.1641 6.25781 18.4453 6.25781 18.7969V19.1719C6.65625 18.6094 7.21875 18.1641 8.08594 18.1641C9.35156 18.1641 10.5937 19.1719 10.5937 20.9531V20.9766C10.5937 22.7578 9.375 23.7656 8.08594 23.7656C7.19531 23.7656 6.63281 23.3203 6.25781 22.8281V24.7266C6.25781 25.0781 5.97656 25.3359 5.625 25.3359C5.29687 25.3359 5.01562 25.0781 5.01562 24.7266V18.7969ZM11.1094 18.7734C11.1094 18.4219 11.3672 18.1406 11.7187 18.1406C12.0703 18.1406 12.3516 18.4219 12.3516 18.7734V19.0781C12.4219 18.6094 13.1719 18.1641 13.7109 18.1641C14.1094 18.1641 14.3203 18.4219 14.3203 18.7734C14.3203 19.1016 14.1094 19.3125 13.8281 19.3594C12.9375 19.5234 12.3281 20.2734 12.3281 21.3516V23.1328C12.3281 23.4609 12.0469 23.7422 11.6953 23.7422C11.3672 23.7422 11.0859 23.4844 11.0859 23.1328V18.7734M14.8828 18.7734C14.8828 18.4219 15.1641 18.1406 15.5156 18.1406C15.8672 18.1406 16.1484 18.4219 16.1484 18.7734V23.1328C16.1484 23.4844 15.8672 23.7422 15.5156 23.7422C15.1641 23.7422 14.8828 23.4844 14.8828 23.1328V18.7734ZM16.6875 18.7969C16.6875 18.4453 16.9688 18.1641 17.3203 18.1641C17.6719 18.1641 17.9766 18.4453 17.9766 18.7969V19.0547C18.3281 18.5625 18.8672 18.1641 19.7344 18.1641C21 18.1641 21.7266 18.9844 21.7266 20.2266V23.1328C21.7266 23.4844 21.4453 23.7422 21.0938 23.7422C20.7422 23.7422 20.4375 23.4844 20.4375 23.1328V20.6016C20.4375 19.7578 19.9922 19.2891 19.2422 19.2891C18.4922 19.2891 17.9766 19.7812 17.9766 20.625V23.1328C17.9766 23.4844 17.6953 23.7422 17.3203 23.7422C16.9688 23.7422 16.6875 23.4844 16.6875 23.1328V18.7969ZM24.9609 22.7109C24.0938 22.7109 23.3672 22.0547 23.3672 20.9766V20.9531C23.3672 19.8984 24.0938 19.2188 24.9609 19.2188C25.8281 19.2188 26.5781 19.9219 26.5781 20.9531V20.9766C26.5781 22.0078 25.8281 22.7109 24.9609 22.7109ZM27.1875 18.1875C26.8359 18.1875 26.5547 18.4688 26.5547 18.8203V19.1953C26.1328 18.6328 25.5703 18.1875 24.6562 18.1875C23.3437 18.1875 22.0781 19.1953 22.0781 21V21.0234C22.0781 22.8047 23.3437 23.8359 24.6562 23.8359C25.5703 23.8359 26.1562 23.3906 26.5547 22.8984C26.4844 23.8828 25.875 24.375 24.7969 24.375C24.1641 24.375 23.6016 24.2109 23.0859 23.9531C23.0156 23.9297 22.9453 23.9062 22.8516 23.9062C22.5469 23.9062 22.3125 24.1406 22.3125 24.4219C22.3125 24.6562 22.4531 24.8203 22.6641 24.9141C23.3437 25.2422 24.0234 25.4062 24.8203 25.4062C25.8281 25.4062 26.6016 25.1719 27.1172 24.6797C27.5859 24.2344 27.8438 23.5547 27.8438 22.6406V18.7969C27.8203 18.4453 27.5391 18.1875 27.1875 18.1875ZM16.1484 16.6641C16.1484 16.9922 15.8672 17.2734 15.5156 17.2734C15.1641 17.2734 14.8828 16.9922 14.8828 16.6641C14.8828 16.3359 15.1641 16.0547 15.5156 16.0547C15.8672 16.0547 16.1484 16.3359 16.1484 16.6641ZM19.4297 12.6094C18.0469 14.4375 15.0703 13.8281 13.1484 13.8984C13.1484 13.8984 12.8203 13.9219 12.4687 13.9687C12.4687 13.9687 12.6094 13.9219 12.75 13.8516C14.0859 13.4062 14.7188 13.3125 15.5391 12.8906C17.0625 12.1172 18.5859 10.4531 18.8906 8.71875C18.3047 10.3828 16.5469 11.8125 14.9297 12.3984C13.8281 12.7969 11.8359 13.1719 11.8359 13.1719L11.7656 13.125C10.4062 12.4922 10.3594 9.60937 12.8437 8.69531C13.9219 8.29687 14.9531 8.50781 16.125 8.25C17.3672 7.96875 18.8203 7.05469 19.4062 5.85938C20.0625 7.80469 20.8594 10.7813 19.4297 12.6094ZM19.4531 5.29688C19.2891 5.67188 19.0781 6.02344 18.8438 6.32813C17.8125 5.29688 16.3828 4.66406 14.7891 4.66406C11.6719 4.66406 9.14062 7.14844 9.14062 10.1719C9.14062 11.7656 9.84375 13.1953 10.9453 14.2031L11.0625 14.3203C10.8516 14.1562 10.8281 13.8516 10.9922 13.6641C11.1562 13.4531 11.4609 13.4297 11.6719 13.5938C11.8828 13.7578 11.9062 14.0625 11.7422 14.25C11.5781 14.4609 11.2734 14.4844 11.0625 14.3203L11.1562 14.3906C12.1406 15.1875 13.4062 15.6797 14.7891 15.6797C17.7656 15.6797 20.2031 13.4062 20.4141 10.5703C20.6016 9.1875 20.1797 7.40625 19.4531 5.29688ZM29.3203 18.5625H29.1094V18.8438H29.3203C29.3906 18.8438 29.4609 18.7969 29.4609 18.7031C29.4609 18.6094 29.3906 18.5625 29.3203 18.5625ZM29.4375 19.2656L29.2266 18.9375H29.0859V19.2656H28.9687V18.4688H29.2969C29.4375 18.4688 29.5547 18.5625 29.5547 18.7031C29.5547 18.8906 29.3906 18.9375 29.3437 18.9375L29.5547 19.2656H29.4375ZM29.25 18.2578C28.9219 18.2578 28.6406 18.5156 28.6406 18.8438C28.6406 19.1719 28.9219 19.4297 29.25 19.4297C29.5781 19.4297 29.8594 19.1719 29.8594 18.8438C29.8594 18.5391 29.5781 18.2578 29.25 18.2578ZM29.25 19.5703C28.8516 19.5703 28.5234 19.2656 28.5234 18.8672C28.5234 18.4688 28.8516 18.1641 29.25 18.1641C29.6484 18.1641 29.9766 18.4688 29.9766 18.8672C29.9766 19.2422 29.6484 19.5703 29.25 19.5703Z" fill="black"/>
</svg>
