<svg width="50" height="50" viewBox="0 0 50 50" fill="none" xmlns="http://www.w3.org/2000/svg">
<g clip-path="url(#clip0_8_20)">
<path fill-rule="evenodd" clip-rule="evenodd" d="M13.4615 9.61539C13.4615 8.85034 13.7655 8.11662 14.3064 7.57565C14.8474 7.03468 15.5811 6.73077 16.3462 6.73077H33.6539C34.4189 6.73077 35.1526 7.03468 35.6936 7.57565C36.2346 8.11662 36.5385 8.85034 36.5385 9.61539V40.3846C36.5385 41.1497 36.2346 41.8834 35.6936 42.4243C35.1526 42.9653 34.4189 43.2692 33.6539 43.2692H16.3462C15.5811 43.2692 14.8474 42.9653 14.3064 42.4243C13.7655 41.8834 13.4615 41.1497 13.4615 40.3846V9.61539ZM16.3462 8.65385C16.0911 8.65385 15.8466 8.75515 15.6663 8.93548C15.4859 9.1158 15.3846 9.36037 15.3846 9.61539V40.3846C15.3846 40.6396 15.4859 40.8842 15.6663 41.0645C15.8466 41.2448 16.0911 41.3462 16.3462 41.3462H33.6539C33.9089 41.3462 34.1534 41.2448 34.3338 41.0645C34.5141 40.8842 34.6154 40.6396 34.6154 40.3846V9.61539C34.6154 9.36037 34.5141 9.1158 34.3338 8.93548C34.1534 8.75515 33.9089 8.65385 33.6539 8.65385H16.3462Z" fill="#F24E1E"/>
<path fill-rule="evenodd" clip-rule="evenodd" d="M20.1923 11.5385C20.1923 11.0284 20.3949 10.5393 20.7556 10.1786C21.1162 9.818 21.6054 9.61539 22.1154 9.61539H27.8846C28.3947 9.61539 28.8838 9.818 29.2444 10.1786C29.6051 10.5393 29.8077 11.0284 29.8077 11.5385C29.8077 12.0485 29.6051 12.5376 29.2444 12.8983C28.8838 13.2589 28.3947 13.4615 27.8846 13.4615H22.1154C21.6054 13.4615 21.1162 13.2589 20.7556 12.8983C20.3949 12.5376 20.1923 12.0485 20.1923 11.5385Z" fill="#F24E1E"/>
<path d="M7.98077 9.38077C7.79537 9.19512 7.69132 8.94342 7.6915 8.68105C7.69168 8.41868 7.79608 8.16713 7.98173 7.98173C8.16738 7.79634 8.41908 7.69228 8.68145 7.69246C8.94382 7.69264 9.19537 7.79704 9.38077 7.98269L42.0173 40.6192C42.2027 40.8046 42.3069 41.0561 42.3069 41.3183C42.3069 41.5805 42.2027 41.8319 42.0173 42.0173C41.8319 42.2027 41.5805 42.3069 41.3183 42.3069C41.0561 42.3069 40.8046 42.2027 40.6192 42.0173L7.98077 9.38077Z" fill="#F24E1E"/>
<path fill-rule="evenodd" clip-rule="evenodd" d="M25 47.1154C37.2135 47.1154 47.1154 37.2135 47.1154 25C47.1154 12.7865 37.2135 2.88462 25 2.88462C12.7865 2.88462 2.88462 12.7865 2.88462 25C2.88462 37.2135 12.7865 47.1154 25 47.1154ZM25 49.0385C38.2769 49.0385 49.0385 38.2769 49.0385 25C49.0385 11.7231 38.2769 0.96154 25 0.96154C11.7231 0.96154 0.961548 11.7231 0.961548 25C0.961548 38.2769 11.7231 49.0385 25 49.0385Z" fill="#F24E1E"/>
</g>
<defs>
<clipPath id="clip0_8_20">
<rect width="50" height="50" fill="white"/>
</clipPath>
</defs>
</svg>
