<svg width="50" height="50" viewBox="0 0 50 50" fill="none" xmlns="http://www.w3.org/2000/svg">
<path d="M4.95833 3.60417L2.3125 6.25L10.4167 14.3542V43.75C10.4167 44.8551 10.8557 45.9149 11.6371 46.6963C12.4185 47.4777 13.4783 47.9167 14.5833 47.9167H35.4167C36.5217 47.9167 37.5815 47.4777 38.3629 46.6963C39.1443 45.9149 39.5833 44.8551 39.5833 43.75V43.5208L43.4167 47.3542L46.0625 44.7083M35.4167 39.5833H14.5833V18.5208L35.4167 39.3542V39.5833ZM35.4167 10.4167V28.75L39.5833 32.9167V6.25C39.5833 5.14493 39.1443 4.08512 38.3629 3.30372C37.5815 2.52232 36.5217 2.08333 35.4167 2.08333H14.5833C13.0833 2.08333 11.6667 2.85417 10.9167 4.16667L17.1667 10.4167H35.4167Z" fill="black"/>
</svg>
