<svg width="88" height="35" viewBox="0 0 88 35" fill="none" xmlns="http://www.w3.org/2000/svg">
<rect x="0.5" y="0.5" width="87" height="34" rx="9.5" stroke="#DC3036"/>
<path d="M19.8722 23L21.5426 12.8182H22.5369L20.8665 23H19.8722ZM15.2386 20.1761L15.3977 19.1818H22.9943L22.8352 20.1761H15.2386ZM16.2926 23L17.9631 12.8182H18.9574L17.2869 23H16.2926ZM15.8352 16.6364L15.9943 15.642H23.5909L23.4318 16.6364H15.8352ZM27.1531 23.179C26.6692 23.179 26.23 23.0878 25.8356 22.9055C25.4412 22.7199 25.128 22.4531 24.896 22.1051C24.6639 21.7538 24.5479 21.3295 24.5479 20.8324C24.5479 20.3949 24.6341 20.0402 24.8065 19.7685C24.9788 19.4934 25.2092 19.2779 25.4975 19.1222C25.7859 18.9664 26.104 18.8504 26.4521 18.7741C26.8034 18.6946 27.1564 18.6316 27.511 18.5852C27.975 18.5256 28.3512 18.4808 28.6396 18.451C28.9312 18.4179 29.1433 18.3632 29.2759 18.2869C29.4118 18.2107 29.4798 18.0781 29.4798 17.8892V17.8494C29.4798 17.3589 29.3455 16.9777 29.0771 16.706C28.8119 16.4342 28.4092 16.2983 27.869 16.2983C27.3088 16.2983 26.8697 16.4209 26.5515 16.6662C26.2333 16.9115 26.0096 17.1733 25.8803 17.4517L24.7667 17.054C24.9656 16.59 25.2307 16.2287 25.5621 15.9702C25.8969 15.7083 26.2615 15.526 26.6559 15.4233C27.0536 15.3172 27.4447 15.2642 27.8292 15.2642C28.0745 15.2642 28.3562 15.294 28.6744 15.3537C28.9959 15.41 29.3058 15.5277 29.604 15.7067C29.9057 15.8857 30.1559 16.1558 30.3548 16.517C30.5536 16.8783 30.6531 17.3622 30.6531 17.9688V23H29.4798V21.9659H29.4201C29.3406 22.1316 29.208 22.3089 29.0224 22.4979C28.8368 22.6868 28.5898 22.8475 28.2816 22.9801C27.9734 23.1127 27.5972 23.179 27.1531 23.179ZM27.332 22.125C27.796 22.125 28.1871 22.0339 28.5053 21.8516C28.8268 21.6693 29.0688 21.4339 29.2312 21.1456C29.3969 20.8572 29.4798 20.554 29.4798 20.2358V19.1619C29.43 19.2216 29.3207 19.2763 29.1516 19.326C28.9859 19.3724 28.7937 19.4138 28.5749 19.4503C28.3595 19.4834 28.149 19.5133 27.9435 19.5398C27.7414 19.563 27.5773 19.5829 27.4513 19.5994C27.1464 19.6392 26.8614 19.7038 26.5962 19.7933C26.3344 19.8795 26.1223 20.0104 25.9599 20.1861C25.8008 20.3584 25.7212 20.5937 25.7212 20.892C25.7212 21.2997 25.872 21.608 26.1737 21.8168C26.4786 22.0223 26.8647 22.125 27.332 22.125ZM33.9679 18.4062V23H32.7946V15.3636H33.9281V16.5568H34.0275C34.2065 16.169 34.4783 15.8575 34.8429 15.6222C35.2074 15.3835 35.6781 15.2642 36.2548 15.2642C36.7718 15.2642 37.2243 15.3703 37.612 15.5824C37.9998 15.7912 38.3014 16.1094 38.5169 16.5369C38.7323 16.9612 38.84 17.4981 38.84 18.1477V23H37.6667V18.2273C37.6667 17.6274 37.5109 17.16 37.1994 16.8253C36.8878 16.4872 36.4603 16.3182 35.9167 16.3182C35.5422 16.3182 35.2074 16.3994 34.9125 16.5618C34.6208 16.7242 34.3904 16.9612 34.2214 17.2727C34.0524 17.5843 33.9679 17.9621 33.9679 18.4062ZM44.0664 26.0227C43.4996 26.0227 43.0124 25.9498 42.6048 25.804C42.1971 25.6615 41.8574 25.4725 41.5856 25.2372C41.3171 25.0052 41.1033 24.7566 40.9442 24.4915L41.8789 23.8352C41.985 23.9744 42.1192 24.1335 42.2816 24.3125C42.444 24.4948 42.6661 24.6522 42.9478 24.7848C43.2328 24.9207 43.6057 24.9886 44.0664 24.9886C44.6829 24.9886 45.1916 24.8395 45.5927 24.5412C45.9937 24.2429 46.1942 23.7756 46.1942 23.1392V21.5881H46.0948C46.0086 21.7273 45.886 21.8996 45.7269 22.1051C45.5711 22.3073 45.3458 22.4879 45.0508 22.647C44.7591 22.8028 44.3647 22.8807 43.8675 22.8807C43.2511 22.8807 42.6976 22.7348 42.207 22.4432C41.7198 22.1515 41.3337 21.7273 41.0487 21.1705C40.7669 20.6136 40.6261 19.9375 40.6261 19.142C40.6261 18.3598 40.7636 17.6787 41.0387 17.0987C41.3138 16.5154 41.6966 16.0646 42.1871 15.7464C42.6777 15.425 43.2444 15.2642 43.8874 15.2642C44.3846 15.2642 44.779 15.3471 45.0707 15.5128C45.3656 15.6752 45.591 15.8608 45.7468 16.0696C45.9059 16.2751 46.0285 16.4441 46.1147 16.5767H46.234V15.3636H47.3675V23.2188C47.3675 23.875 47.2184 24.4086 46.9201 24.8196C46.6251 25.2339 46.2274 25.5372 45.7269 25.7294C45.2298 25.925 44.6763 26.0227 44.0664 26.0227ZM44.0266 21.8267C44.4973 21.8267 44.895 21.719 45.2198 21.5036C45.5446 21.2881 45.7915 20.9782 45.9606 20.5739C46.1296 20.1695 46.2141 19.6856 46.2141 19.1222C46.2141 18.572 46.1313 18.0864 45.9656 17.6655C45.7998 17.2446 45.5546 16.9148 45.2298 16.6761C44.9049 16.4375 44.5039 16.3182 44.0266 16.3182C43.5295 16.3182 43.1152 16.4441 42.7837 16.696C42.4556 16.9479 42.2087 17.286 42.043 17.7102C41.8806 18.1345 41.7994 18.6051 41.7994 19.1222C41.7994 19.6525 41.8822 20.1214 42.0479 20.5291C42.217 20.9335 42.4656 21.2517 42.7937 21.4837C43.1251 21.7124 43.5361 21.8267 44.0266 21.8267ZM54.3278 19.8778V15.3636H55.5011V23H54.3278V21.7074H54.2482C54.0692 22.0952 53.7908 22.425 53.413 22.6967C53.0352 22.9652 52.5579 23.0994 51.9812 23.0994C51.5039 23.0994 51.0797 22.995 50.7085 22.7862C50.3372 22.5741 50.0456 22.2559 49.8335 21.8317C49.6213 21.4041 49.5153 20.8655 49.5153 20.2159V15.3636H50.6886V20.1364C50.6886 20.6932 50.8443 21.1373 51.1559 21.4688C51.4708 21.8002 51.8718 21.9659 52.359 21.9659C52.6507 21.9659 52.9473 21.8913 53.2489 21.7422C53.5539 21.593 53.8091 21.3643 54.0146 21.0561C54.2234 20.7479 54.3278 20.3551 54.3278 19.8778ZM58.8233 12.8182V23H57.65V12.8182H58.8233ZM63.2195 23.179C62.7356 23.179 62.2964 23.0878 61.902 22.9055C61.5076 22.7199 61.1944 22.4531 60.9624 22.1051C60.7304 21.7538 60.6143 21.3295 60.6143 20.8324C60.6143 20.3949 60.7005 20.0402 60.8729 19.7685C61.0452 19.4934 61.2756 19.2779 61.5639 19.1222C61.8523 18.9664 62.1705 18.8504 62.5185 18.7741C62.8698 18.6946 63.2228 18.6316 63.5774 18.5852C64.0414 18.5256 64.4176 18.4808 64.706 18.451C64.9976 18.4179 65.2098 18.3632 65.3423 18.2869C65.4782 18.2107 65.5462 18.0781 65.5462 17.8892V17.8494C65.5462 17.3589 65.4119 16.9777 65.1435 16.706C64.8783 16.4342 64.4756 16.2983 63.9354 16.2983C63.3752 16.2983 62.9361 16.4209 62.6179 16.6662C62.2997 16.9115 62.076 17.1733 61.9467 17.4517L60.8331 17.054C61.032 16.59 61.2971 16.2287 61.6286 15.9702C61.9633 15.7083 62.3279 15.526 62.7223 15.4233C63.12 15.3172 63.5111 15.2642 63.8956 15.2642C64.1409 15.2642 64.4226 15.294 64.7408 15.3537C65.0623 15.41 65.3722 15.5277 65.6705 15.7067C65.9721 15.8857 66.2223 16.1558 66.4212 16.517C66.62 16.8783 66.7195 17.3622 66.7195 17.9688V23H65.5462V21.9659H65.4865C65.407 22.1316 65.2744 22.3089 65.0888 22.4979C64.9032 22.6868 64.6563 22.8475 64.348 22.9801C64.0398 23.1127 63.6636 23.179 63.2195 23.179ZM63.3984 22.125C63.8625 22.125 64.2536 22.0339 64.5717 21.8516C64.8932 21.6693 65.1352 21.4339 65.2976 21.1456C65.4633 20.8572 65.5462 20.554 65.5462 20.2358V19.1619C65.4964 19.2216 65.3871 19.2763 65.218 19.326C65.0523 19.3724 64.8601 19.4138 64.6413 19.4503C64.4259 19.4834 64.2154 19.5133 64.0099 19.5398C63.8078 19.563 63.6437 19.5829 63.5178 19.5994C63.2128 19.6392 62.9278 19.7038 62.6626 19.7933C62.4008 19.8795 62.1887 20.0104 62.0263 20.1861C61.8672 20.3584 61.7876 20.5937 61.7876 20.892C61.7876 21.2997 61.9384 21.608 62.2401 21.8168C62.545 22.0223 62.9311 22.125 63.3984 22.125ZM68.861 23V15.3636H69.9945V16.517H70.074C70.2132 16.1392 70.4651 15.8326 70.8297 15.5973C71.1943 15.362 71.6053 15.2443 72.0627 15.2443C72.1489 15.2443 72.2566 15.246 72.3858 15.2493C72.5151 15.2526 72.6129 15.2576 72.6792 15.2642V16.4574C72.6394 16.4474 72.5482 16.4325 72.4057 16.4126C72.2665 16.3894 72.119 16.3778 71.9632 16.3778C71.592 16.3778 71.2606 16.4557 70.9689 16.6115C70.6806 16.764 70.4519 16.9761 70.2828 17.2479C70.1171 17.5163 70.0343 17.8229 70.0343 18.1676V23H68.861Z" fill="#DC3036"/>
</svg>
