<svg width="59" height="35" viewBox="0 0 59 35" fill="none" xmlns="http://www.w3.org/2000/svg">
<rect x="0.5" y="0.5" width="58" height="34" rx="9.5" stroke="#8A2BE2"/>
<path d="M19.1464 23L20.8168 12.8182H21.8111L20.1407 23H19.1464ZM14.5128 20.1761L14.6719 19.1818H22.2685L22.1094 20.1761H14.5128ZM15.5668 23L17.2373 12.8182H18.2316L16.5611 23H15.5668ZM15.1094 16.6364L15.2685 15.642H22.8651L22.706 16.6364H15.1094ZM26.4273 23.179C25.9434 23.179 25.5042 23.0878 25.1098 22.9055C24.7154 22.7199 24.4022 22.4531 24.1702 22.1051C23.9381 21.7538 23.8221 21.3295 23.8221 20.8324C23.8221 20.3949 23.9083 20.0402 24.0807 19.7685C24.253 19.4934 24.4834 19.2779 24.7717 19.1222C25.0601 18.9664 25.3782 18.8504 25.7263 18.7741C26.0776 18.6946 26.4306 18.6316 26.7852 18.5852C27.2492 18.5256 27.6254 18.4808 27.9138 18.451C28.2054 18.4179 28.4175 18.3632 28.5501 18.2869C28.686 18.2107 28.754 18.0781 28.754 17.8892V17.8494C28.754 17.3589 28.6197 16.9777 28.3513 16.706C28.0861 16.4342 27.6834 16.2983 27.1432 16.2983C26.583 16.2983 26.1439 16.4209 25.8257 16.6662C25.5075 16.9115 25.2838 17.1733 25.1545 17.4517L24.0409 17.054C24.2398 16.59 24.5049 16.2287 24.8363 15.9702C25.1711 15.7083 25.5357 15.526 25.9301 15.4233C26.3278 15.3172 26.7189 15.2642 27.1034 15.2642C27.3487 15.2642 27.6304 15.294 27.9486 15.3537C28.2701 15.41 28.58 15.5277 28.8782 15.7067C29.1799 15.8857 29.4301 16.1558 29.629 16.517C29.8278 16.8783 29.9273 17.3622 29.9273 17.9688V23H28.754V21.9659H28.6943C28.6148 22.1316 28.4822 22.3089 28.2966 22.4979C28.111 22.6868 27.864 22.8475 27.5558 22.9801C27.2476 23.1127 26.8714 23.179 26.4273 23.179ZM26.6062 22.125C27.0702 22.125 27.4613 22.0339 27.7795 21.8516C28.101 21.6693 28.343 21.4339 28.5054 21.1456C28.6711 20.8572 28.754 20.554 28.754 20.2358V19.1619C28.7042 19.2216 28.5949 19.2763 28.4258 19.326C28.2601 19.3724 28.0679 19.4138 27.8491 19.4503C27.6337 19.4834 27.4232 19.5133 27.2177 19.5398C27.0156 19.563 26.8515 19.5829 26.7256 19.5994C26.4206 19.6392 26.1356 19.7038 25.8704 19.7933C25.6086 19.8795 25.3965 20.0104 25.2341 20.1861C25.075 20.3584 24.9954 20.5937 24.9954 20.892C24.9954 21.2997 25.1462 21.608 25.4479 21.8168C25.7528 22.0223 26.1389 22.125 26.6062 22.125ZM32.0688 25.8636V15.3636H33.2023V16.5767H33.3415C33.4277 16.4441 33.547 16.2751 33.6994 16.0696C33.8552 15.8608 34.0773 15.6752 34.3656 15.5128C34.6573 15.3471 35.0517 15.2642 35.5489 15.2642C36.1919 15.2642 36.7586 15.425 37.2492 15.7464C37.7397 16.0679 38.1225 16.5237 38.3976 17.1136C38.6727 17.7036 38.8102 18.3996 38.8102 19.2017C38.8102 20.0104 38.6727 20.7114 38.3976 21.3047C38.1225 21.8946 37.7414 22.352 37.2541 22.6768C36.7669 22.9983 36.2051 23.1591 35.5688 23.1591C35.0782 23.1591 34.6855 23.0779 34.3905 22.9155C34.0955 22.7498 33.8685 22.5625 33.7094 22.3537C33.5503 22.1416 33.4277 21.9659 33.3415 21.8267H33.2421V25.8636H32.0688ZM33.2222 19.1818C33.2222 19.7585 33.3067 20.2673 33.4757 20.7081C33.6448 21.1456 33.8917 21.4886 34.2165 21.7372C34.5413 21.9825 34.939 22.1051 35.4097 22.1051C35.9002 22.1051 36.3095 21.9759 36.6377 21.7173C36.9691 21.4555 37.2177 21.1042 37.3834 20.6634C37.5524 20.2192 37.6369 19.7254 37.6369 19.1818C37.6369 18.6449 37.5541 18.161 37.3884 17.7301C37.226 17.2959 36.979 16.9529 36.6476 16.701C36.3195 16.4458 35.9068 16.3182 35.4097 16.3182C34.9324 16.3182 34.5314 16.4392 34.2066 16.6811C33.8817 16.9197 33.6365 17.2545 33.4708 17.6854C33.305 18.1129 33.2222 18.6117 33.2222 19.1818ZM40.6 23V15.3636H41.7733V23H40.6ZM41.1966 14.0909C40.9679 14.0909 40.7707 14.013 40.605 13.8572C40.4426 13.7015 40.3614 13.5142 40.3614 13.2955C40.3614 13.0767 40.4426 12.8894 40.605 12.7337C40.7707 12.5779 40.9679 12.5 41.1966 12.5C41.4253 12.5 41.6209 12.5779 41.7833 12.7337C41.949 12.8894 42.0318 13.0767 42.0318 13.2955C42.0318 13.5142 41.949 13.7015 41.7833 13.8572C41.6209 14.013 41.4253 14.0909 41.1966 14.0909Z" fill="#8A2BE2"/>
</svg>
