<svg width="62" height="35" viewBox="0 0 62 35" fill="none" xmlns="http://www.w3.org/2000/svg">
<rect x="0.5" y="0.5" width="61" height="34" rx="9.5" stroke="#1572B6"/>
<path d="M19.8722 23L21.5426 12.8182H22.5369L20.8665 23H19.8722ZM15.2386 20.1761L15.3977 19.1818H22.9943L22.8352 20.1761H15.2386ZM16.2926 23L17.9631 12.8182H18.9574L17.2869 23H16.2926ZM15.8352 16.6364L15.9943 15.642H23.5909L23.4318 16.6364H15.8352ZM28.0082 23.1591C27.2923 23.1591 26.6758 22.9901 26.1587 22.652C25.6417 22.3139 25.244 21.8482 24.9656 21.255C24.6871 20.6617 24.5479 19.9839 24.5479 19.2216C24.5479 18.446 24.6905 17.7616 24.9755 17.1683C25.2638 16.5717 25.6649 16.1061 26.1786 15.7713C26.6957 15.4332 27.2989 15.2642 27.9883 15.2642C28.5252 15.2642 29.0091 15.3636 29.44 15.5625C29.8709 15.7614 30.2238 16.0398 30.4989 16.3977C30.774 16.7557 30.9447 17.1733 31.011 17.6506H29.8377C29.7482 17.3026 29.5494 16.9943 29.2411 16.7259C28.9362 16.4541 28.5252 16.3182 28.0082 16.3182C27.5508 16.3182 27.1497 16.4375 26.805 16.6761C26.4637 16.9115 26.1969 17.2446 26.0046 17.6754C25.8157 18.103 25.7212 18.6051 25.7212 19.1818C25.7212 19.7718 25.814 20.2855 25.9996 20.723C26.1886 21.1605 26.4537 21.5002 26.7951 21.7422C27.1398 21.9841 27.5442 22.1051 28.0082 22.1051C28.3131 22.1051 28.5898 22.0521 28.8384 21.946C29.087 21.84 29.2975 21.6875 29.4698 21.4886C29.6422 21.2898 29.7648 21.0511 29.8377 20.7727H31.011C30.9447 21.2235 30.7807 21.6295 30.5188 21.9908C30.2603 22.3487 29.9173 22.6338 29.4897 22.8459C29.0655 23.0547 28.5716 23.1591 28.0082 23.1591ZM38.1353 17.0739L37.0813 17.3722C37.015 17.1965 36.9173 17.0258 36.788 16.8601C36.6621 16.6911 36.4897 16.5518 36.271 16.4425C36.0522 16.3331 35.7721 16.2784 35.4308 16.2784C34.9634 16.2784 34.574 16.3861 34.2624 16.6016C33.9542 16.8137 33.8001 17.0838 33.8001 17.4119C33.8001 17.7036 33.9061 17.9339 34.1183 18.103C34.3304 18.272 34.6618 18.4129 35.1126 18.5256L36.2461 18.804C36.9289 18.9697 37.4376 19.2232 37.7724 19.5646C38.1071 19.9027 38.2745 20.3385 38.2745 20.8722C38.2745 21.3097 38.1486 21.7008 37.8967 22.0455C37.6481 22.3902 37.3001 22.6619 36.8526 22.8608C36.4052 23.0597 35.8848 23.1591 35.2915 23.1591C34.5127 23.1591 33.868 22.9901 33.3576 22.652C32.8472 22.3139 32.524 21.8201 32.3881 21.1705L33.5018 20.892C33.6078 21.303 33.8084 21.6113 34.1033 21.8168C34.4016 22.0223 34.7911 22.125 35.2717 22.125C35.8185 22.125 36.2527 22.009 36.5742 21.777C36.899 21.5417 37.0614 21.2599 37.0614 20.9318C37.0614 20.6667 36.9686 20.4446 36.783 20.2656C36.5974 20.0833 36.3124 19.9474 35.9279 19.858L34.6552 19.5597C33.9558 19.3939 33.4421 19.1371 33.114 18.7891C32.7892 18.4377 32.6268 17.9986 32.6268 17.4716C32.6268 17.0407 32.7478 16.6596 32.9897 16.3281C33.235 15.9967 33.5681 15.7365 33.989 15.5476C34.4132 15.3587 34.8938 15.2642 35.4308 15.2642C36.1864 15.2642 36.7797 15.4299 37.2106 15.7614C37.6448 16.0928 37.953 16.5303 38.1353 17.0739ZM45.4498 17.0739L44.3958 17.3722C44.3295 17.1965 44.2317 17.0258 44.1025 16.8601C43.9765 16.6911 43.8042 16.5518 43.5854 16.4425C43.3667 16.3331 43.0866 16.2784 42.7452 16.2784C42.2779 16.2784 41.8884 16.3861 41.5769 16.6016C41.2686 16.8137 41.1145 17.0838 41.1145 17.4119C41.1145 17.7036 41.2206 17.9339 41.4327 18.103C41.6448 18.272 41.9763 18.4129 42.427 18.5256L43.5605 18.804C44.2433 18.9697 44.7521 19.2232 45.0868 19.5646C45.4216 19.9027 45.589 20.3385 45.589 20.8722C45.589 21.3097 45.463 21.7008 45.2111 22.0455C44.9625 22.3902 44.6145 22.6619 44.1671 22.8608C43.7196 23.0597 43.1993 23.1591 42.606 23.1591C41.8271 23.1591 41.1825 22.9901 40.6721 22.652C40.1616 22.3139 39.8385 21.8201 39.7026 21.1705L40.8162 20.892C40.9223 21.303 41.1228 21.6113 41.4178 21.8168C41.7161 22.0223 42.1055 22.125 42.5861 22.125C43.133 22.125 43.5672 22.009 43.8887 21.777C44.2135 21.5417 44.3759 21.2599 44.3759 20.9318C44.3759 20.6667 44.2831 20.4446 44.0975 20.2656C43.9119 20.0833 43.6268 19.9474 43.2424 19.858L41.9696 19.5597C41.2703 19.3939 40.7566 19.1371 40.4284 18.7891C40.1036 18.4377 39.9412 17.9986 39.9412 17.4716C39.9412 17.0407 40.0622 16.6596 40.3042 16.3281C40.5494 15.9967 40.8825 15.7365 41.3034 15.5476C41.7277 15.3587 42.2083 15.2642 42.7452 15.2642C43.5009 15.2642 44.0942 15.4299 44.525 15.7614C44.9592 16.0928 45.2675 16.5303 45.4498 17.0739Z" fill="#1572B6"/>
</svg>
