<svg width="68" height="35" viewBox="0 0 68 35" fill="none" xmlns="http://www.w3.org/2000/svg">
<rect x="0.5" y="0.5" width="67" height="34" rx="9.5" stroke="#E44D26"/>
<path d="M19.8722 23L21.5426 12.8182H22.5369L20.8665 23H19.8722ZM15.2386 20.1761L15.3977 19.1818H22.9943L22.8352 20.1761H15.2386ZM16.2926 23L17.9631 12.8182H18.9574L17.2869 23H16.2926ZM15.8352 16.6364L15.9943 15.642H23.5909L23.4318 16.6364H15.8352ZM26.0792 18.4062V23H24.9059V12.8182H26.0792V16.5568H26.1786C26.3576 16.1624 26.6261 15.8492 26.984 15.6172C27.3453 15.3819 27.8259 15.2642 28.4258 15.2642C28.9461 15.2642 29.4019 15.3686 29.793 15.5774C30.1841 15.7829 30.4873 16.0994 30.7028 16.527C30.9215 16.9512 31.0309 17.4915 31.0309 18.1477V23H29.8576V18.2273C29.8576 17.6207 29.7002 17.1518 29.3853 16.8203C29.0737 16.4856 28.6412 16.3182 28.0877 16.3182C27.7032 16.3182 27.3585 16.3994 27.0536 16.5618C26.752 16.7242 26.5134 16.9612 26.3377 17.2727C26.1654 17.5843 26.0792 17.9621 26.0792 18.4062ZM36.4984 15.3636V16.358H32.541V15.3636H36.4984ZM33.6944 13.5341H34.8677V20.8125C34.8677 21.1439 34.9158 21.3925 35.0119 21.5582C35.1113 21.7206 35.2373 21.83 35.3897 21.8864C35.5455 21.9394 35.7096 21.9659 35.8819 21.9659C36.0112 21.9659 36.1172 21.9593 36.2001 21.946C36.283 21.9295 36.3493 21.9162 36.399 21.9062L36.6376 22.9602C36.5581 22.9901 36.447 23.0199 36.3045 23.0497C36.162 23.0829 35.9814 23.0994 35.7626 23.0994C35.4312 23.0994 35.1064 23.0282 34.7882 22.8857C34.4733 22.7431 34.2115 22.526 34.0027 22.2344C33.7972 21.9427 33.6944 21.5748 33.6944 21.1307V13.5341ZM38.2633 23V15.3636H39.3968V16.5568H39.4963C39.6554 16.1491 39.9122 15.8326 40.2669 15.6072C40.6215 15.3786 41.0474 15.2642 41.5446 15.2642C42.0484 15.2642 42.4676 15.3786 42.8024 15.6072C43.1404 15.8326 43.4039 16.1491 43.5929 16.5568H43.6724C43.868 16.1624 44.1613 15.8492 44.5524 15.6172C44.9435 15.3819 45.4125 15.2642 45.9593 15.2642C46.6421 15.2642 47.2006 15.478 47.6348 15.9055C48.069 16.3298 48.286 16.991 48.286 17.8892V23H47.1127V17.8892C47.1127 17.3258 46.9586 16.9231 46.6504 16.6811C46.3422 16.4392 45.9792 16.3182 45.5616 16.3182C45.0247 16.3182 44.6087 16.4806 44.3137 16.8054C44.0188 17.1269 43.8713 17.5346 43.8713 18.0284V23H42.6781V17.7699C42.6781 17.3357 42.5372 16.986 42.2555 16.7209C41.9738 16.4524 41.6109 16.3182 41.1667 16.3182C40.8618 16.3182 40.5768 16.3994 40.3116 16.5618C40.0498 16.7242 39.8377 16.9496 39.6752 17.2379C39.5162 17.523 39.4366 17.8527 39.4366 18.2273V23H38.2633ZM51.6046 12.8182V23H50.4313V12.8182H51.6046Z" fill="#E44D26"/>
</svg>
