<svg width="66" height="35" viewBox="0 0 66 35" fill="none" xmlns="http://www.w3.org/2000/svg">
<rect x="0.5" y="0.5" width="65" height="34" rx="9.5" stroke="#5382A1"/>
<path d="M19.8722 23L21.5426 12.8182H22.5369L20.8665 23H19.8722ZM15.2386 20.1761L15.3977 19.1818H22.9943L22.8352 20.1761H15.2386ZM16.2926 23L17.9631 12.8182H18.9574L17.2869 23H16.2926ZM15.8352 16.6364L15.9943 15.642H23.5909L23.4318 16.6364H15.8352ZM24.9059 15.3636H26.0792V23.5568C26.0792 24.0275 25.998 24.4351 25.8356 24.7798C25.6765 25.1245 25.4345 25.3913 25.1097 25.5803C24.7882 25.7692 24.3822 25.8636 23.8917 25.8636C23.8519 25.8636 23.8121 25.8636 23.7724 25.8636C23.7326 25.8636 23.6928 25.8636 23.6531 25.8636V24.7699C23.6928 24.7699 23.7293 24.7699 23.7624 24.7699C23.7956 24.7699 23.832 24.7699 23.8718 24.7699C24.2298 24.7699 24.4916 24.6638 24.6573 24.4517C24.823 24.2429 24.9059 23.9446 24.9059 23.5568V15.3636ZM25.4826 14.0909C25.2539 14.0909 25.0567 14.013 24.891 13.8572C24.7286 13.7015 24.6474 13.5142 24.6474 13.2955C24.6474 13.0767 24.7286 12.8894 24.891 12.7337C25.0567 12.5779 25.2539 12.5 25.4826 12.5C25.7113 12.5 25.9068 12.5779 26.0692 12.7337C26.235 12.8894 26.3178 13.0767 26.3178 13.2955C26.3178 13.5142 26.235 13.7015 26.0692 13.8572C25.9068 14.013 25.7113 14.0909 25.4826 14.0909ZM30.4753 23.179C29.9914 23.179 29.5523 23.0878 29.1578 22.9055C28.7634 22.7199 28.4502 22.4531 28.2182 22.1051C27.9862 21.7538 27.8702 21.3295 27.8702 20.8324C27.8702 20.3949 27.9564 20.0402 28.1287 19.7685C28.3011 19.4934 28.5314 19.2779 28.8198 19.1222C29.1081 18.9664 29.4263 18.8504 29.7743 18.7741C30.1257 18.6946 30.4786 18.6316 30.8333 18.5852C31.2973 18.5256 31.6735 18.4808 31.9618 18.451C32.2535 18.4179 32.4656 18.3632 32.5982 18.2869C32.7341 18.2107 32.802 18.0781 32.802 17.8892V17.8494C32.802 17.3589 32.6678 16.9777 32.3993 16.706C32.1342 16.4342 31.7315 16.2983 31.1912 16.2983C30.6311 16.2983 30.1919 16.4209 29.8738 16.6662C29.5556 16.9115 29.3319 17.1733 29.2026 17.4517L28.089 17.054C28.2878 16.59 28.553 16.2287 28.8844 15.9702C29.2192 15.7083 29.5837 15.526 29.9782 15.4233C30.3759 15.3172 30.767 15.2642 31.1515 15.2642C31.3967 15.2642 31.6784 15.294 31.9966 15.3537C32.3181 15.41 32.628 15.5277 32.9263 15.7067C33.2279 15.8857 33.4782 16.1558 33.677 16.517C33.8759 16.8783 33.9753 17.3622 33.9753 17.9688V23H32.802V21.9659H32.7424C32.6628 22.1316 32.5302 22.3089 32.3446 22.4979C32.159 22.6868 31.9121 22.8475 31.6039 22.9801C31.2956 23.1127 30.9194 23.179 30.4753 23.179ZM30.6543 22.125C31.1183 22.125 31.5094 22.0339 31.8276 21.8516C32.1491 21.6693 32.391 21.4339 32.5534 21.1456C32.7192 20.8572 32.802 20.554 32.802 20.2358V19.1619C32.7523 19.2216 32.6429 19.2763 32.4739 19.326C32.3082 19.3724 32.1159 19.4138 31.8972 19.4503C31.6818 19.4834 31.4713 19.5133 31.2658 19.5398C31.0636 19.563 30.8996 19.5829 30.7736 19.5994C30.4687 19.6392 30.1837 19.7038 29.9185 19.7933C29.6567 19.8795 29.4445 20.0104 29.2821 20.1861C29.123 20.3584 29.0435 20.5937 29.0435 20.892C29.0435 21.2997 29.1943 21.608 29.4959 21.8168C29.8008 22.0223 30.187 22.125 30.6543 22.125ZM42.0877 15.3636L39.2638 23H38.0707L35.2468 15.3636H36.5195L38.6275 21.4489H38.707L40.815 15.3636H42.0877ZM45.6511 23.179C45.1672 23.179 44.728 23.0878 44.3336 22.9055C43.9392 22.7199 43.626 22.4531 43.394 22.1051C43.162 21.7538 43.046 21.3295 43.046 20.8324C43.046 20.3949 43.1322 20.0402 43.3045 19.7685C43.4769 19.4934 43.7072 19.2779 43.9956 19.1222C44.2839 18.9664 44.6021 18.8504 44.9501 18.7741C45.3014 18.6946 45.6544 18.6316 46.0091 18.5852C46.4731 18.5256 46.8493 18.4808 47.1376 18.451C47.4293 18.4179 47.6414 18.3632 47.774 18.2869C47.9099 18.2107 47.9778 18.0781 47.9778 17.8892V17.8494C47.9778 17.3589 47.8436 16.9777 47.5751 16.706C47.31 16.4342 46.9073 16.2983 46.367 16.2983C45.8069 16.2983 45.3677 16.4209 45.0495 16.6662C44.7314 16.9115 44.5076 17.1733 44.3784 17.4517L43.2647 17.054C43.4636 16.59 43.7288 16.2287 44.0602 15.9702C44.3949 15.7083 44.7595 15.526 45.1539 15.4233C45.5517 15.3172 45.9428 15.2642 46.3272 15.2642C46.5725 15.2642 46.8542 15.294 47.1724 15.3537C47.4939 15.41 47.8038 15.5277 48.1021 15.7067C48.4037 15.8857 48.6539 16.1558 48.8528 16.517C49.0517 16.8783 49.1511 17.3622 49.1511 17.9688V23H47.9778V21.9659H47.9181C47.8386 22.1316 47.706 22.3089 47.5204 22.4979C47.3348 22.6868 47.0879 22.8475 46.7797 22.9801C46.4714 23.1127 46.0952 23.179 45.6511 23.179ZM45.8301 22.125C46.2941 22.125 46.6852 22.0339 47.0034 21.8516C47.3249 21.6693 47.5668 21.4339 47.7292 21.1456C47.8949 20.8572 47.9778 20.554 47.9778 20.2358V19.1619C47.9281 19.2216 47.8187 19.2763 47.6497 19.326C47.484 19.3724 47.2917 19.4138 47.073 19.4503C46.8575 19.4834 46.6471 19.5133 46.4416 19.5398C46.2394 19.563 46.0753 19.5829 45.9494 19.5994C45.6445 19.6392 45.3594 19.7038 45.0943 19.7933C44.8324 19.8795 44.6203 20.0104 44.4579 20.1861C44.2988 20.3584 44.2193 20.5937 44.2193 20.892C44.2193 21.2997 44.3701 21.608 44.6717 21.8168C44.9766 22.0223 45.3627 22.125 45.8301 22.125Z" fill="#5382A1"/>
</svg>
