<svg width="103" height="35" viewBox="0 0 103 35" fill="none" xmlns="http://www.w3.org/2000/svg">
<rect x="0.5" y="0.5" width="102" height="34" rx="9.5" stroke="#CEB330"/>
<path d="M19.8722 23L21.5426 12.8182H22.5369L20.8665 23H19.8722ZM15.2386 20.1761L15.3977 19.1818H22.9943L22.8352 20.1761H15.2386ZM16.2926 23L17.9631 12.8182H18.9574L17.2869 23H16.2926ZM15.8352 16.6364L15.9943 15.642H23.5909L23.4318 16.6364H15.8352ZM24.9059 15.3636H26.0792V23.5568C26.0792 24.0275 25.998 24.4351 25.8356 24.7798C25.6765 25.1245 25.4345 25.3913 25.1097 25.5803C24.7882 25.7692 24.3822 25.8636 23.8917 25.8636C23.8519 25.8636 23.8121 25.8636 23.7724 25.8636C23.7326 25.8636 23.6928 25.8636 23.6531 25.8636V24.7699C23.6928 24.7699 23.7293 24.7699 23.7624 24.7699C23.7956 24.7699 23.832 24.7699 23.8718 24.7699C24.2298 24.7699 24.4916 24.6638 24.6573 24.4517C24.823 24.2429 24.9059 23.9446 24.9059 23.5568V15.3636ZM25.4826 14.0909C25.2539 14.0909 25.0567 14.013 24.891 13.8572C24.7286 13.7015 24.6474 13.5142 24.6474 13.2955C24.6474 13.0767 24.7286 12.8894 24.891 12.7337C25.0567 12.5779 25.2539 12.5 25.4826 12.5C25.7113 12.5 25.9068 12.5779 26.0692 12.7337C26.235 12.8894 26.3178 13.0767 26.3178 13.2955C26.3178 13.5142 26.235 13.7015 26.0692 13.8572C25.9068 14.013 25.7113 14.0909 25.4826 14.0909ZM30.4753 23.179C29.9914 23.179 29.5523 23.0878 29.1578 22.9055C28.7634 22.7199 28.4502 22.4531 28.2182 22.1051C27.9862 21.7538 27.8702 21.3295 27.8702 20.8324C27.8702 20.3949 27.9564 20.0402 28.1287 19.7685C28.3011 19.4934 28.5314 19.2779 28.8198 19.1222C29.1081 18.9664 29.4263 18.8504 29.7743 18.7741C30.1257 18.6946 30.4786 18.6316 30.8333 18.5852C31.2973 18.5256 31.6735 18.4808 31.9618 18.451C32.2535 18.4179 32.4656 18.3632 32.5982 18.2869C32.7341 18.2107 32.802 18.0781 32.802 17.8892V17.8494C32.802 17.3589 32.6678 16.9777 32.3993 16.706C32.1342 16.4342 31.7315 16.2983 31.1912 16.2983C30.6311 16.2983 30.1919 16.4209 29.8738 16.6662C29.5556 16.9115 29.3319 17.1733 29.2026 17.4517L28.089 17.054C28.2878 16.59 28.553 16.2287 28.8844 15.9702C29.2192 15.7083 29.5837 15.526 29.9782 15.4233C30.3759 15.3172 30.767 15.2642 31.1515 15.2642C31.3967 15.2642 31.6784 15.294 31.9966 15.3537C32.3181 15.41 32.628 15.5277 32.9263 15.7067C33.2279 15.8857 33.4782 16.1558 33.677 16.517C33.8759 16.8783 33.9753 17.3622 33.9753 17.9688V23H32.802V21.9659H32.7424C32.6628 22.1316 32.5302 22.3089 32.3446 22.4979C32.159 22.6868 31.9121 22.8475 31.6039 22.9801C31.2956 23.1127 30.9194 23.179 30.4753 23.179ZM30.6543 22.125C31.1183 22.125 31.5094 22.0339 31.8276 21.8516C32.1491 21.6693 32.391 21.4339 32.5534 21.1456C32.7192 20.8572 32.802 20.554 32.802 20.2358V19.1619C32.7523 19.2216 32.6429 19.2763 32.4739 19.326C32.3082 19.3724 32.1159 19.4138 31.8972 19.4503C31.6818 19.4834 31.4713 19.5133 31.2658 19.5398C31.0636 19.563 30.8996 19.5829 30.7736 19.5994C30.4687 19.6392 30.1837 19.7038 29.9185 19.7933C29.6567 19.8795 29.4445 20.0104 29.2821 20.1861C29.123 20.3584 29.0435 20.5937 29.0435 20.892C29.0435 21.2997 29.1943 21.608 29.4959 21.8168C29.8008 22.0223 30.187 22.125 30.6543 22.125ZM42.0877 15.3636L39.2638 23H38.0707L35.2468 15.3636H36.5195L38.6275 21.4489H38.707L40.815 15.3636H42.0877ZM45.6511 23.179C45.1672 23.179 44.728 23.0878 44.3336 22.9055C43.9392 22.7199 43.626 22.4531 43.394 22.1051C43.162 21.7538 43.046 21.3295 43.046 20.8324C43.046 20.3949 43.1322 20.0402 43.3045 19.7685C43.4769 19.4934 43.7072 19.2779 43.9956 19.1222C44.2839 18.9664 44.6021 18.8504 44.9501 18.7741C45.3014 18.6946 45.6544 18.6316 46.0091 18.5852C46.4731 18.5256 46.8493 18.4808 47.1376 18.451C47.4293 18.4179 47.6414 18.3632 47.774 18.2869C47.9099 18.2107 47.9778 18.0781 47.9778 17.8892V17.8494C47.9778 17.3589 47.8436 16.9777 47.5751 16.706C47.31 16.4342 46.9073 16.2983 46.367 16.2983C45.8069 16.2983 45.3677 16.4209 45.0495 16.6662C44.7314 16.9115 44.5076 17.1733 44.3784 17.4517L43.2647 17.054C43.4636 16.59 43.7288 16.2287 44.0602 15.9702C44.3949 15.7083 44.7595 15.526 45.1539 15.4233C45.5517 15.3172 45.9428 15.2642 46.3272 15.2642C46.5725 15.2642 46.8542 15.294 47.1724 15.3537C47.4939 15.41 47.8038 15.5277 48.1021 15.7067C48.4037 15.8857 48.6539 16.1558 48.8528 16.517C49.0517 16.8783 49.1511 17.3622 49.1511 17.9688V23H47.9778V21.9659H47.9181C47.8386 22.1316 47.706 22.3089 47.5204 22.4979C47.3348 22.6868 47.0879 22.8475 46.7797 22.9801C46.4714 23.1127 46.0952 23.179 45.6511 23.179ZM45.8301 22.125C46.2941 22.125 46.6852 22.0339 47.0034 21.8516C47.3249 21.6693 47.5668 21.4339 47.7292 21.1456C47.8949 20.8572 47.9778 20.554 47.9778 20.2358V19.1619C47.9281 19.2216 47.8187 19.2763 47.6497 19.326C47.484 19.3724 47.2917 19.4138 47.073 19.4503C46.8575 19.4834 46.6471 19.5133 46.4416 19.5398C46.2394 19.563 46.0753 19.5829 45.9494 19.5994C45.6445 19.6392 45.3594 19.7038 45.0943 19.7933C44.8324 19.8795 44.6203 20.0104 44.4579 20.1861C44.2988 20.3584 44.2193 20.5937 44.2193 20.892C44.2193 21.2997 44.3701 21.608 44.6717 21.8168C44.9766 22.0223 45.3627 22.125 45.8301 22.125ZM56.7017 17.0739L55.6477 17.3722C55.5814 17.1965 55.4837 17.0258 55.3544 16.8601C55.2285 16.6911 55.0561 16.5518 54.8374 16.4425C54.6186 16.3331 54.3385 16.2784 53.9972 16.2784C53.5298 16.2784 53.1404 16.3861 52.8288 16.6016C52.5206 16.8137 52.3665 17.0838 52.3665 17.4119C52.3665 17.7036 52.4725 17.9339 52.6847 18.103C52.8968 18.272 53.2282 18.4129 53.679 18.5256L54.8125 18.804C55.4953 18.9697 56.004 19.2232 56.3388 19.5646C56.6735 19.9027 56.8409 20.3385 56.8409 20.8722C56.8409 21.3097 56.715 21.7008 56.4631 22.0455C56.2145 22.3902 55.8665 22.6619 55.419 22.8608C54.9716 23.0597 54.4512 23.1591 53.858 23.1591C53.0791 23.1591 52.4344 22.9901 51.924 22.652C51.4136 22.3139 51.0904 21.8201 50.9545 21.1705L52.0682 20.892C52.1742 21.303 52.3748 21.6113 52.6697 21.8168C52.968 22.0223 53.3575 22.125 53.8381 22.125C54.3849 22.125 54.8191 22.009 55.1406 21.777C55.4654 21.5417 55.6278 21.2599 55.6278 20.9318C55.6278 20.6667 55.535 20.4446 55.3494 20.2656C55.1638 20.0833 54.8788 19.9474 54.4943 19.858L53.2216 19.5597C52.5223 19.3939 52.0085 19.1371 51.6804 18.7891C51.3556 18.4377 51.1932 17.9986 51.1932 17.4716C51.1932 17.0407 51.3142 16.6596 51.5561 16.3281C51.8014 15.9967 52.1345 15.7365 52.5554 15.5476C52.9796 15.3587 53.4602 15.2642 53.9972 15.2642C54.7528 15.2642 55.3461 15.4299 55.777 15.7614C56.2112 16.0928 56.5194 16.5303 56.7017 17.0739ZM61.7093 23.1591C60.9934 23.1591 60.377 22.9901 59.8599 22.652C59.3429 22.3139 58.9451 21.8482 58.6667 21.255C58.3883 20.6617 58.2491 19.9839 58.2491 19.2216C58.2491 18.446 58.3916 17.7616 58.6767 17.1683C58.965 16.5717 59.3661 16.1061 59.8798 15.7713C60.3968 15.4332 61.0001 15.2642 61.6895 15.2642C62.2264 15.2642 62.7103 15.3636 63.1412 15.5625C63.572 15.7614 63.925 16.0398 64.2001 16.3977C64.4752 16.7557 64.6459 17.1733 64.7122 17.6506H63.5389C63.4494 17.3026 63.2505 16.9943 62.9423 16.7259C62.6374 16.4541 62.2264 16.3182 61.7093 16.3182C61.252 16.3182 60.8509 16.4375 60.5062 16.6761C60.1648 16.9115 59.898 17.2446 59.7058 17.6754C59.5169 18.103 59.4224 18.6051 59.4224 19.1818C59.4224 19.7718 59.5152 20.2855 59.7008 20.723C59.8897 21.1605 60.1549 21.5002 60.4963 21.7422C60.841 21.9841 61.2453 22.1051 61.7093 22.1051C62.0143 22.1051 62.291 22.0521 62.5396 21.946C62.7882 21.84 62.9986 21.6875 63.171 21.4886C63.3433 21.2898 63.466 21.0511 63.5389 20.7727H64.7122C64.6459 21.2235 64.4818 21.6295 64.22 21.9908C63.9615 22.3487 63.6184 22.6338 63.1909 22.8459C62.7666 23.0547 62.2728 23.1591 61.7093 23.1591ZM66.4274 23V15.3636H67.5609V16.517H67.6404C67.7797 16.1392 68.0315 15.8326 68.3961 15.5973C68.7607 15.362 69.1717 15.2443 69.6291 15.2443C69.7153 15.2443 69.823 15.246 69.9522 15.2493C70.0815 15.2526 70.1793 15.2576 70.2456 15.2642V16.4574C70.2058 16.4474 70.1146 16.4325 69.9721 16.4126C69.8329 16.3894 69.6854 16.3778 69.5297 16.3778C69.1584 16.3778 68.827 16.4557 68.5353 16.6115C68.247 16.764 68.0183 16.9761 67.8493 17.2479C67.6835 17.5163 67.6007 17.8229 67.6007 18.1676V23H66.4274ZM71.6364 23V15.3636H72.8097V23H71.6364ZM72.233 14.0909C72.0043 14.0909 71.8071 14.013 71.6413 13.8572C71.4789 13.7015 71.3977 13.5142 71.3977 13.2955C71.3977 13.0767 71.4789 12.8894 71.6413 12.7337C71.8071 12.5779 72.0043 12.5 72.233 12.5C72.4616 12.5 72.6572 12.5779 72.8196 12.7337C72.9853 12.8894 73.0682 13.0767 73.0682 13.2955C73.0682 13.5142 72.9853 13.7015 72.8196 13.8572C72.6572 14.013 72.4616 14.0909 72.233 14.0909ZM74.9586 25.8636V15.3636H76.0922V16.5767H76.2314C76.3175 16.4441 76.4368 16.2751 76.5893 16.0696C76.7451 15.8608 76.9672 15.6752 77.2555 15.5128C77.5472 15.3471 77.9416 15.2642 78.4387 15.2642C79.0817 15.2642 79.6485 15.425 80.139 15.7464C80.6296 16.0679 81.0124 16.5237 81.2875 17.1136C81.5626 17.7036 81.7001 18.3996 81.7001 19.2017C81.7001 20.0104 81.5626 20.7114 81.2875 21.3047C81.0124 21.8946 80.6312 22.352 80.144 22.6768C79.6568 22.9983 79.095 23.1591 78.4586 23.1591C77.9681 23.1591 77.5753 23.0779 77.2804 22.9155C76.9854 22.7498 76.7583 22.5625 76.5993 22.3537C76.4402 22.1416 76.3175 21.9659 76.2314 21.8267H76.1319V25.8636H74.9586ZM76.112 19.1818C76.112 19.7585 76.1966 20.2673 76.3656 20.7081C76.5346 21.1456 76.7815 21.4886 77.1064 21.7372C77.4312 21.9825 77.8289 22.1051 78.2995 22.1051C78.7901 22.1051 79.1994 21.9759 79.5275 21.7173C79.859 21.4555 80.1075 21.1042 80.2733 20.6634C80.4423 20.2192 80.5268 19.7254 80.5268 19.1818C80.5268 18.6449 80.444 18.161 80.2782 17.7301C80.1158 17.2959 79.8689 16.9529 79.5375 16.701C79.2093 16.4458 78.7967 16.3182 78.2995 16.3182C77.8223 16.3182 77.4212 16.4392 77.0964 16.6811C76.7716 16.9197 76.5263 17.2545 76.3606 17.6854C76.1949 18.1129 76.112 18.6117 76.112 19.1818ZM86.8109 15.3636V16.358H82.8535V15.3636H86.8109ZM84.0069 13.5341H85.1802V20.8125C85.1802 21.1439 85.2283 21.3925 85.3244 21.5582C85.4238 21.7206 85.5498 21.83 85.7022 21.8864C85.858 21.9394 86.0221 21.9659 86.1944 21.9659C86.3237 21.9659 86.4297 21.9593 86.5126 21.946C86.5955 21.9295 86.6618 21.9162 86.7115 21.9062L86.9501 22.9602C86.8706 22.9901 86.7595 23.0199 86.617 23.0497C86.4745 23.0829 86.2939 23.0994 86.0751 23.0994C85.7437 23.0994 85.4189 23.0282 85.1007 22.8857C84.7858 22.7431 84.524 22.526 84.3152 22.2344C84.1097 21.9427 84.0069 21.5748 84.0069 21.1307V13.5341Z" fill="#CEB330"/>
</svg>
