<svg width="108" height="35" viewBox="0 0 108 35" fill="none" xmlns="http://www.w3.org/2000/svg">
<rect x="0.5" y="0.5" width="107" height="34" rx="9.5" stroke="#4AB367"/>
<path d="M19.8722 23L21.5426 12.8182H22.5369L20.8665 23H19.8722ZM15.2386 20.1761L15.3977 19.1818H22.9943L22.8352 20.1761H15.2386ZM16.2926 23L17.9631 12.8182H18.9574L17.2869 23H16.2926ZM15.8352 16.6364L15.9943 15.642H23.5909L23.4318 16.6364H15.8352ZM24.9059 25.8636V15.3636H26.0394V16.5767H26.1786C26.2648 16.4441 26.3841 16.2751 26.5366 16.0696C26.6924 15.8608 26.9144 15.6752 27.2028 15.5128C27.4944 15.3471 27.8888 15.2642 28.386 15.2642C29.029 15.2642 29.5958 15.425 30.0863 15.7464C30.5768 16.0679 30.9596 16.5237 31.2347 17.1136C31.5098 17.7036 31.6474 18.3996 31.6474 19.2017C31.6474 20.0104 31.5098 20.7114 31.2347 21.3047C30.9596 21.8946 30.5785 22.352 30.0913 22.6768C29.604 22.9983 29.0423 23.1591 28.4059 23.1591C27.9154 23.1591 27.5226 23.0779 27.2276 22.9155C26.9326 22.7498 26.7056 22.5625 26.5465 22.3537C26.3874 22.1416 26.2648 21.9659 26.1786 21.8267H26.0792V25.8636H24.9059ZM26.0593 19.1818C26.0593 19.7585 26.1438 20.2673 26.3129 20.7081C26.4819 21.1456 26.7288 21.4886 27.0536 21.7372C27.3784 21.9825 27.7762 22.1051 28.2468 22.1051C28.7373 22.1051 29.1467 21.9759 29.4748 21.7173C29.8062 21.4555 30.0548 21.1042 30.2205 20.6634C30.3896 20.2192 30.4741 19.7254 30.4741 19.1818C30.4741 18.6449 30.3912 18.161 30.2255 17.7301C30.0631 17.2959 29.8162 16.9529 29.4847 16.701C29.1566 16.4458 28.744 16.3182 28.2468 16.3182C27.7695 16.3182 27.3685 16.4392 27.0437 16.6811C26.7189 16.9197 26.4736 17.2545 26.3079 17.6854C26.1422 18.1129 26.0593 18.6117 26.0593 19.1818ZM38.2496 19.8778V15.3636H39.4229V23H38.2496V21.7074H38.1701C37.9911 22.0952 37.7127 22.425 37.3349 22.6967C36.957 22.9652 36.4798 23.0994 35.9031 23.0994C35.4258 23.0994 35.0015 22.995 34.6303 22.7862C34.2591 22.5741 33.9674 22.2559 33.7553 21.8317C33.5432 21.4041 33.4371 20.8655 33.4371 20.2159V15.3636H34.6104V20.1364C34.6104 20.6932 34.7662 21.1373 35.0778 21.4688C35.3926 21.8002 35.7937 21.9659 36.2809 21.9659C36.5726 21.9659 36.8692 21.8913 37.1708 21.7422C37.4757 21.593 37.7309 21.3643 37.9364 21.0561C38.1452 20.7479 38.2496 20.3551 38.2496 19.8778ZM46.981 17.0739L45.927 17.3722C45.8607 17.1965 45.763 17.0258 45.6337 16.8601C45.5078 16.6911 45.3354 16.5518 45.1167 16.4425C44.8979 16.3331 44.6178 16.2784 44.2765 16.2784C43.8091 16.2784 43.4197 16.3861 43.1081 16.6016C42.7999 16.8137 42.6458 17.0838 42.6458 17.4119C42.6458 17.7036 42.7518 17.9339 42.964 18.103C43.1761 18.272 43.5075 18.4129 43.9583 18.5256L45.0918 18.804C45.7746 18.9697 46.2833 19.2232 46.6181 19.5646C46.9528 19.9027 47.1202 20.3385 47.1202 20.8722C47.1202 21.3097 46.9943 21.7008 46.7424 22.0455C46.4938 22.3902 46.1458 22.6619 45.6983 22.8608C45.2509 23.0597 44.7305 23.1591 44.1373 23.1591C43.3584 23.1591 42.7137 22.9901 42.2033 22.652C41.6929 22.3139 41.3697 21.8201 41.2338 21.1705L42.3475 20.892C42.4535 21.303 42.6541 21.6113 42.949 21.8168C43.2473 22.0223 43.6368 22.125 44.1174 22.125C44.6642 22.125 45.0984 22.009 45.4199 21.777C45.7447 21.5417 45.9071 21.2599 45.9071 20.9318C45.9071 20.6667 45.8143 20.4446 45.6287 20.2656C45.4431 20.0833 45.1581 19.9474 44.7736 19.858L43.5009 19.5597C42.8016 19.3939 42.2878 19.1371 41.9597 18.7891C41.6349 18.4377 41.4725 17.9986 41.4725 17.4716C41.4725 17.0407 41.5935 16.6596 41.8354 16.3281C42.0807 15.9967 42.4138 15.7365 42.8347 15.5476C43.2589 15.3587 43.7395 15.2642 44.2765 15.2642C45.0321 15.2642 45.6254 15.4299 46.0563 15.7614C46.4905 16.0928 46.7987 16.5303 46.981 17.0739ZM50.0597 18.4062V23H48.8864V12.8182H50.0597V16.5568H50.1591C50.3381 16.1624 50.6065 15.8492 50.9645 15.6172C51.3258 15.3819 51.8063 15.2642 52.4062 15.2642C52.9266 15.2642 53.3823 15.3686 53.7734 15.5774C54.1645 15.7829 54.4678 16.0994 54.6832 16.527C54.902 16.9512 55.0114 17.4915 55.0114 18.1477V23H53.8381V18.2273C53.8381 17.6207 53.6806 17.1518 53.3658 16.8203C53.0542 16.4856 52.6217 16.3182 52.0682 16.3182C51.6837 16.3182 51.339 16.3994 51.0341 16.5618C50.7325 16.7242 50.4938 16.9612 50.3182 17.2727C50.1458 17.5843 50.0597 17.9621 50.0597 18.4062ZM57.3169 23V12.8182H58.4902V16.5767H58.5897C58.6758 16.4441 58.7952 16.2751 58.9476 16.0696C59.1034 15.8608 59.3255 15.6752 59.6138 15.5128C59.9055 15.3471 60.2999 15.2642 60.7971 15.2642C61.44 15.2642 62.0068 15.425 62.4973 15.7464C62.9879 16.0679 63.3707 16.5237 63.6458 17.1136C63.9209 17.7036 64.0584 18.3996 64.0584 19.2017C64.0584 20.0104 63.9209 20.7114 63.6458 21.3047C63.3707 21.8946 62.9895 22.352 62.5023 22.6768C62.0151 22.9983 61.4533 23.1591 60.8169 23.1591C60.3264 23.1591 59.9337 23.0779 59.6387 22.9155C59.3437 22.7498 59.1167 22.5625 58.9576 22.3537C58.7985 22.1416 58.6758 21.9659 58.5897 21.8267H58.4505V23H57.3169ZM58.4703 19.1818C58.4703 19.7585 58.5549 20.2673 58.7239 20.7081C58.8929 21.1456 59.1399 21.4886 59.4647 21.7372C59.7895 21.9825 60.1872 22.1051 60.6578 22.1051C61.1484 22.1051 61.5577 21.9759 61.8858 21.7173C62.2173 21.4555 62.4659 21.1042 62.6316 20.6634C62.8006 20.2192 62.8851 19.7254 62.8851 19.1818C62.8851 18.6449 62.8023 18.161 62.6365 17.7301C62.4741 17.2959 62.2272 16.9529 61.8958 16.701C61.5676 16.4458 61.155 16.3182 60.6578 16.3182C60.1806 16.3182 59.7795 16.4392 59.4547 16.6811C59.1299 16.9197 58.8846 17.2545 58.7189 17.6854C58.5532 18.1129 58.4703 18.6117 58.4703 19.1818ZM70.6657 19.8778V15.3636H71.839V23H70.6657V21.7074H70.5861C70.4071 22.0952 70.1287 22.425 69.7509 22.6967C69.373 22.9652 68.8958 23.0994 68.3191 23.0994C67.8418 23.0994 67.4176 22.995 67.0463 22.7862C66.6751 22.5741 66.3835 22.2559 66.1713 21.8317C65.9592 21.4041 65.8532 20.8655 65.8532 20.2159V15.3636H67.0265V20.1364C67.0265 20.6932 67.1822 21.1373 67.4938 21.4688C67.8087 21.8002 68.2097 21.9659 68.6969 21.9659C68.9886 21.9659 69.2852 21.8913 69.5868 21.7422C69.8917 21.593 70.147 21.3643 70.3525 21.0561C70.5613 20.7479 70.6657 20.3551 70.6657 19.8778ZM75.1612 12.8182V23H73.9879V12.8182H75.1612ZM78.4835 12.8182V23H77.3102V12.8182H78.4835ZM83.8342 23.1591C83.0984 23.1591 82.4637 22.9967 81.93 22.6719C81.3997 22.3438 80.9904 21.8864 80.7021 21.2997C80.417 20.7098 80.2745 20.0237 80.2745 19.2415C80.2745 18.4593 80.417 17.7699 80.7021 17.1733C80.9904 16.5734 81.3915 16.1061 81.9052 15.7713C82.4222 15.4332 83.0254 15.2642 83.7148 15.2642C84.1126 15.2642 84.5053 15.3305 84.8931 15.4631C85.2809 15.5956 85.6339 15.8111 85.9521 16.1094C86.2702 16.4044 86.5238 16.7955 86.7127 17.2827C86.9016 17.7699 86.9961 18.3698 86.9961 19.0824V19.5795H81.1097V18.5653H85.8029C85.8029 18.1345 85.7167 17.75 85.5444 17.4119C85.3754 17.0739 85.1334 16.8071 84.8185 16.6115C84.507 16.416 84.1391 16.3182 83.7148 16.3182C83.2475 16.3182 82.8432 16.4342 82.5018 16.6662C82.1637 16.8949 81.9035 17.1932 81.7212 17.5611C81.5389 17.929 81.4478 18.3234 81.4478 18.7443V19.4205C81.4478 19.9972 81.5472 20.486 81.7461 20.8871C81.9483 21.2848 82.2283 21.5881 82.5863 21.7969C82.9442 22.0024 83.3602 22.1051 83.8342 22.1051C84.1424 22.1051 84.4208 22.062 84.6694 21.9759C84.9213 21.8864 85.1384 21.7538 85.3207 21.5781C85.503 21.3991 85.6438 21.1771 85.7433 20.9119L86.8768 21.2301C86.7575 21.6146 86.5569 21.9527 86.2752 22.2443C85.9935 22.5327 85.6455 22.758 85.2312 22.9205C84.8169 23.0795 84.3512 23.1591 83.8342 23.1591ZM92.1019 15.3636V16.358H88.1445V15.3636H92.1019ZM89.2979 13.5341H90.4712V20.8125C90.4712 21.1439 90.5193 21.3925 90.6154 21.5582C90.7148 21.7206 90.8408 21.83 90.9933 21.8864C91.149 21.9394 91.3131 21.9659 91.4854 21.9659C91.6147 21.9659 91.7208 21.9593 91.8036 21.946C91.8865 21.9295 91.9528 21.9162 92.0025 21.9062L92.2411 22.9602C92.1616 22.9901 92.0505 23.0199 91.908 23.0497C91.7655 23.0829 91.5849 23.0994 91.3661 23.0994C91.0347 23.0994 90.7099 23.0282 90.3917 22.8857C90.0768 22.7431 89.815 22.526 89.6062 22.2344C89.4007 21.9427 89.2979 21.5748 89.2979 21.1307V13.5341Z" fill="#4AB367"/>
</svg>
