<svg width="85" height="35" viewBox="0 0 85 35" fill="none" xmlns="http://www.w3.org/2000/svg">
<rect x="0.5" y="0.5" width="84" height="34" rx="9.5" stroke="#306998"/>
<path d="M19.8722 23L21.5426 12.8182H22.5369L20.8665 23H19.8722ZM15.2386 20.1761L15.3977 19.1818H22.9943L22.8352 20.1761H15.2386ZM16.2926 23L17.9631 12.8182H18.9574L17.2869 23H16.2926ZM15.8352 16.6364L15.9943 15.642H23.5909L23.4318 16.6364H15.8352ZM24.9059 25.8636V15.3636H26.0394V16.5767H26.1786C26.2648 16.4441 26.3841 16.2751 26.5366 16.0696C26.6924 15.8608 26.9144 15.6752 27.2028 15.5128C27.4944 15.3471 27.8888 15.2642 28.386 15.2642C29.029 15.2642 29.5958 15.425 30.0863 15.7464C30.5768 16.0679 30.9596 16.5237 31.2347 17.1136C31.5098 17.7036 31.6474 18.3996 31.6474 19.2017C31.6474 20.0104 31.5098 20.7114 31.2347 21.3047C30.9596 21.8946 30.5785 22.352 30.0913 22.6768C29.604 22.9983 29.0423 23.1591 28.4059 23.1591C27.9154 23.1591 27.5226 23.0779 27.2276 22.9155C26.9326 22.7498 26.7056 22.5625 26.5465 22.3537C26.3874 22.1416 26.2648 21.9659 26.1786 21.8267H26.0792V25.8636H24.9059ZM26.0593 19.1818C26.0593 19.7585 26.1438 20.2673 26.3129 20.7081C26.4819 21.1456 26.7288 21.4886 27.0536 21.7372C27.3784 21.9825 27.7762 22.1051 28.2468 22.1051C28.7373 22.1051 29.1467 21.9759 29.4748 21.7173C29.8062 21.4555 30.0548 21.1042 30.2205 20.6634C30.3896 20.2192 30.4741 19.7254 30.4741 19.1818C30.4741 18.6449 30.3912 18.161 30.2255 17.7301C30.0631 17.2959 29.8162 16.9529 29.4847 16.701C29.1566 16.4458 28.744 16.3182 28.2468 16.3182C27.7695 16.3182 27.3685 16.4392 27.0437 16.6811C26.7189 16.9197 26.4736 17.2545 26.3079 17.6854C26.1422 18.1129 26.0593 18.6117 26.0593 19.1818ZM33.9194 25.8636C33.7205 25.8636 33.5432 25.8471 33.3874 25.8139C33.2317 25.7841 33.1239 25.7543 33.0643 25.7244L33.3626 24.6903C33.6476 24.7633 33.8995 24.7898 34.1183 24.7699C34.337 24.75 34.5309 24.6522 34.6999 24.4766C34.8723 24.3042 35.0297 24.0241 35.1722 23.6364L35.391 23.0398L32.5671 15.3636H33.8398L35.9478 21.4489H36.0273L38.1353 15.3636H39.408L36.1665 24.1136C36.0207 24.508 35.8401 24.8345 35.6246 25.093C35.4092 25.3549 35.159 25.5488 34.8739 25.6747C34.5922 25.8007 34.274 25.8636 33.9194 25.8636ZM44.2777 15.3636V16.358H40.3203V15.3636H44.2777ZM41.4737 13.5341H42.647V20.8125C42.647 21.1439 42.6951 21.3925 42.7912 21.5582C42.8906 21.7206 43.0166 21.83 43.169 21.8864C43.3248 21.9394 43.4889 21.9659 43.6612 21.9659C43.7905 21.9659 43.8965 21.9593 43.9794 21.946C44.0623 21.9295 44.1286 21.9162 44.1783 21.9062L44.4169 22.9602C44.3374 22.9901 44.2263 23.0199 44.0838 23.0497C43.9413 23.0829 43.7607 23.0994 43.5419 23.0994C43.2105 23.0994 42.8857 23.0282 42.5675 22.8857C42.2526 22.7431 41.9908 22.526 41.782 22.2344C41.5765 21.9427 41.4737 21.5748 41.4737 21.1307V13.5341ZM47.38 18.4062V23H46.2067V12.8182H47.38V16.5568H47.4794C47.6584 16.1624 47.9268 15.8492 48.2848 15.6172C48.6461 15.3819 49.1267 15.2642 49.7266 15.2642C50.2469 15.2642 50.7027 15.3686 51.0938 15.5774C51.4848 15.7829 51.7881 16.0994 52.0036 16.527C52.2223 16.9512 52.3317 17.4915 52.3317 18.1477V23H51.1584V18.2273C51.1584 17.6207 51.0009 17.1518 50.6861 16.8203C50.3745 16.4856 49.942 16.3182 49.3885 16.3182C49.004 16.3182 48.6593 16.3994 48.3544 16.5618C48.0528 16.7242 47.8142 16.9612 47.6385 17.2727C47.4661 17.5843 47.38 17.9621 47.38 18.4062ZM57.5804 23.1591C56.891 23.1591 56.2862 22.995 55.7658 22.6669C55.2488 22.3388 54.8444 21.8797 54.5527 21.2898C54.2644 20.6998 54.1202 20.0104 54.1202 19.2216C54.1202 18.4261 54.2644 17.7318 54.5527 17.1385C54.8444 16.5452 55.2488 16.0845 55.7658 15.7564C56.2862 15.4283 56.891 15.2642 57.5804 15.2642C58.2698 15.2642 58.873 15.4283 59.3901 15.7564C59.9105 16.0845 60.3148 16.5452 60.6032 17.1385C60.8948 17.7318 61.0407 18.4261 61.0407 19.2216C61.0407 20.0104 60.8948 20.6998 60.6032 21.2898C60.3148 21.8797 59.9105 22.3388 59.3901 22.6669C58.873 22.995 58.2698 23.1591 57.5804 23.1591ZM57.5804 22.1051C58.1041 22.1051 58.535 21.9709 58.873 21.7024C59.2111 21.4339 59.4614 21.081 59.6238 20.6435C59.7862 20.206 59.8674 19.732 59.8674 19.2216C59.8674 18.7112 59.7862 18.2356 59.6238 17.7947C59.4614 17.3539 59.2111 16.9976 58.873 16.7259C58.535 16.4541 58.1041 16.3182 57.5804 16.3182C57.0568 16.3182 56.6259 16.4541 56.2878 16.7259C55.9498 16.9976 55.6995 17.3539 55.5371 17.7947C55.3747 18.2356 55.2935 18.7112 55.2935 19.2216C55.2935 19.732 55.3747 20.206 55.5371 20.6435C55.6995 21.081 55.9498 21.4339 56.2878 21.7024C56.6259 21.9709 57.0568 22.1051 57.5804 22.1051ZM64.005 18.4062V23H62.8317V15.3636H63.9652V16.5568H64.0646C64.2436 16.169 64.5154 15.8575 64.88 15.6222C65.2446 15.3835 65.7152 15.2642 66.2919 15.2642C66.8089 15.2642 67.2614 15.3703 67.6491 15.5824C68.0369 15.7912 68.3385 16.1094 68.554 16.5369C68.7694 16.9612 68.8771 17.4981 68.8771 18.1477V23H67.7038V18.2273C67.7038 17.6274 67.5481 17.16 67.2365 16.8253C66.925 16.4872 66.4974 16.3182 65.9538 16.3182C65.5793 16.3182 65.2446 16.3994 64.9496 16.5618C64.6579 16.7242 64.4276 16.9612 64.2585 17.2727C64.0895 17.5843 64.005 17.9621 64.005 18.4062Z" fill="#306998"/>
</svg>
