<svg width="73" height="35" viewBox="0 0 73 35" fill="none" xmlns="http://www.w3.org/2000/svg">
<rect x="0.5" y="0.5" width="72" height="34" rx="9.5" stroke="#00D7FC"/>
<path d="M19.1464 23L20.8168 12.8182H21.8111L20.1407 23H19.1464ZM14.5128 20.1761L14.6719 19.1818H22.2685L22.1094 20.1761H14.5128ZM15.5668 23L17.2373 12.8182H18.2316L16.5611 23H15.5668ZM15.1094 16.6364L15.2685 15.642H22.8651L22.706 16.6364H15.1094ZM24.1801 23V15.3636H25.3136V16.517H25.3932C25.5324 16.1392 25.7843 15.8326 26.1488 15.5973C26.5134 15.362 26.9244 15.2443 27.3818 15.2443C27.468 15.2443 27.5757 15.246 27.705 15.2493C27.8342 15.2526 27.932 15.2576 27.9983 15.2642V16.4574C27.9585 16.4474 27.8674 16.4325 27.7248 16.4126C27.5856 16.3894 27.4381 16.3778 27.2824 16.3778C26.9112 16.3778 26.5797 16.4557 26.288 16.6115C25.9997 16.764 25.771 16.9761 25.602 17.2479C25.4363 17.5163 25.3534 17.8229 25.3534 18.1676V23H24.1801ZM32.3584 23.1591C31.6226 23.1591 30.9879 22.9967 30.4542 22.6719C29.9239 22.3438 29.5146 21.8864 29.2263 21.2997C28.9412 20.7098 28.7987 20.0237 28.7987 19.2415C28.7987 18.4593 28.9412 17.7699 29.2263 17.1733C29.5146 16.5734 29.9157 16.1061 30.4294 15.7713C30.9464 15.4332 31.5497 15.2642 32.239 15.2642C32.6368 15.2642 33.0295 15.3305 33.4173 15.4631C33.8051 15.5956 34.1581 15.8111 34.4763 16.1094C34.7944 16.4044 35.048 16.7955 35.2369 17.2827C35.4258 17.7699 35.5203 18.3698 35.5203 19.0824V19.5795H29.6339V18.5653H34.3271C34.3271 18.1345 34.2409 17.75 34.0686 17.4119C33.8996 17.0739 33.6576 16.8071 33.3427 16.6115C33.0312 16.416 32.6633 16.3182 32.239 16.3182C31.7717 16.3182 31.3674 16.4342 31.026 16.6662C30.6879 16.8949 30.4277 17.1932 30.2454 17.5611C30.0631 17.929 29.972 18.3234 29.972 18.7443V19.4205C29.972 19.9972 30.0714 20.486 30.2703 20.8871C30.4725 21.2848 30.7525 21.5881 31.1105 21.7969C31.4684 22.0024 31.8844 22.1051 32.3584 22.1051C32.6666 22.1051 32.945 22.062 33.1936 21.9759C33.4455 21.8864 33.6626 21.7538 33.8449 21.5781C34.0272 21.3991 34.168 21.1771 34.2675 20.9119L35.401 21.2301C35.2817 21.6146 35.0811 21.9527 34.7994 22.2443C34.5177 22.5327 34.1697 22.758 33.7554 22.9205C33.3411 23.0795 32.8754 23.1591 32.3584 23.1591ZM39.5523 23.179C39.0684 23.179 38.6292 23.0878 38.2348 22.9055C37.8404 22.7199 37.5272 22.4531 37.2952 22.1051C37.0631 21.7538 36.9471 21.3295 36.9471 20.8324C36.9471 20.3949 37.0333 20.0402 37.2057 19.7685C37.378 19.4934 37.6084 19.2779 37.8967 19.1222C38.1851 18.9664 38.5032 18.8504 38.8513 18.7741C39.2026 18.6946 39.5556 18.6316 39.9102 18.5852C40.3742 18.5256 40.7504 18.4808 41.0388 18.451C41.3304 18.4179 41.5425 18.3632 41.6751 18.2869C41.811 18.2107 41.879 18.0781 41.879 17.8892V17.8494C41.879 17.3589 41.7447 16.9777 41.4763 16.706C41.2111 16.4342 40.8084 16.2983 40.2682 16.2983C39.708 16.2983 39.2689 16.4209 38.9507 16.6662C38.6325 16.9115 38.4088 17.1733 38.2795 17.4517L37.1659 17.054C37.3648 16.59 37.6299 16.2287 37.9613 15.9702C38.2961 15.7083 38.6607 15.526 39.0551 15.4233C39.4528 15.3172 39.8439 15.2642 40.2284 15.2642C40.4737 15.2642 40.7554 15.294 41.0736 15.3537C41.3951 15.41 41.705 15.5277 42.0032 15.7067C42.3049 15.8857 42.5551 16.1558 42.754 16.517C42.9528 16.8783 43.0523 17.3622 43.0523 17.9688V23H41.879V21.9659H41.8193C41.7398 22.1316 41.6072 22.3089 41.4216 22.4979C41.236 22.6868 40.989 22.8475 40.6808 22.9801C40.3726 23.1127 39.9964 23.179 39.5523 23.179ZM39.7312 22.125C40.1952 22.125 40.5863 22.0339 40.9045 21.8516C41.226 21.6693 41.468 21.4339 41.6304 21.1456C41.7961 20.8572 41.879 20.554 41.879 20.2358V19.1619C41.8292 19.2216 41.7199 19.2763 41.5508 19.326C41.3851 19.3724 41.1929 19.4138 40.9741 19.4503C40.7587 19.4834 40.5482 19.5133 40.3427 19.5398C40.1406 19.563 39.9765 19.5829 39.8506 19.5994C39.5456 19.6392 39.2606 19.7038 38.9954 19.7933C38.7336 19.8795 38.5215 20.0104 38.3591 20.1861C38.2 20.3584 38.1204 20.5937 38.1204 20.892C38.1204 21.2997 38.2712 21.608 38.5729 21.8168C38.8778 22.0223 39.2639 22.125 39.7312 22.125ZM48.296 23.1591C47.5801 23.1591 46.9637 22.9901 46.4466 22.652C45.9296 22.3139 45.5318 21.8482 45.2534 21.255C44.975 20.6617 44.8358 19.9839 44.8358 19.2216C44.8358 18.446 44.9783 17.7616 45.2634 17.1683C45.5517 16.5717 45.9528 16.1061 46.4665 15.7713C46.9835 15.4332 47.5868 15.2642 48.2762 15.2642C48.8131 15.2642 49.297 15.3636 49.7279 15.5625C50.1587 15.7614 50.5117 16.0398 50.7868 16.3977C51.0619 16.7557 51.2326 17.1733 51.2989 17.6506H50.1256C50.0361 17.3026 49.8372 16.9943 49.529 16.7259C49.2241 16.4541 48.8131 16.3182 48.296 16.3182C47.8387 16.3182 47.4376 16.4375 47.0929 16.6761C46.7515 16.9115 46.4847 17.2446 46.2925 17.6754C46.1036 18.103 46.0091 18.6051 46.0091 19.1818C46.0091 19.7718 46.1019 20.2855 46.2875 20.723C46.4764 21.1605 46.7416 21.5002 47.083 21.7422C47.4277 21.9841 47.832 22.1051 48.296 22.1051C48.601 22.1051 48.8777 22.0521 49.1263 21.946C49.3749 21.84 49.5853 21.6875 49.7577 21.4886C49.93 21.2898 50.0527 21.0511 50.1256 20.7727H51.2989C51.2326 21.2235 51.0685 21.6295 50.8067 21.9908C50.5482 22.3487 50.2051 22.6338 49.7776 22.8459C49.3533 23.0547 48.8595 23.1591 48.296 23.1591ZM56.3351 15.3636V16.358H52.3777V15.3636H56.3351ZM53.5311 13.5341H54.7044V20.8125C54.7044 21.1439 54.7525 21.3925 54.8486 21.5582C54.948 21.7206 55.074 21.83 55.2264 21.8864C55.3822 21.9394 55.5463 21.9659 55.7186 21.9659C55.8479 21.9659 55.9539 21.9593 56.0368 21.946C56.1197 21.9295 56.186 21.9162 56.2357 21.9062L56.4743 22.9602C56.3948 22.9901 56.2837 23.0199 56.1412 23.0497C55.9987 23.0829 55.8181 23.0994 55.5993 23.0994C55.2679 23.0994 54.9431 23.0282 54.6249 22.8857C54.31 22.7431 54.0482 22.526 53.8394 22.2344C53.6339 21.9427 53.5311 21.5748 53.5311 21.1307V13.5341Z" fill="#00D7FC"/>
</svg>
