<svg width="149" height="35" viewBox="0 0 149 35" fill="none" xmlns="http://www.w3.org/2000/svg">
<rect x="0.5" y="0.5" width="148" height="34" rx="9.5" stroke="#FFA500"/>
<path d="M19.8722 23L21.5426 12.8182H22.5369L20.8665 23H19.8722ZM15.2386 20.1761L15.3977 19.1818H22.9943L22.8352 20.1761H15.2386ZM16.2926 23L17.9631 12.8182H18.9574L17.2869 23H16.2926ZM15.8352 16.6364L15.9943 15.642H23.5909L23.4318 16.6364H15.8352ZM30.315 17.0739L29.261 17.3722C29.1947 17.1965 29.0969 17.0258 28.9677 16.8601C28.8417 16.6911 28.6694 16.5518 28.4506 16.4425C28.2319 16.3331 27.9518 16.2784 27.6104 16.2784C27.1431 16.2784 26.7537 16.3861 26.4421 16.6016C26.1339 16.8137 25.9798 17.0838 25.9798 17.4119C25.9798 17.7036 26.0858 17.9339 26.2979 18.103C26.5101 18.272 26.8415 18.4129 27.2923 18.5256L28.4258 18.804C29.1085 18.9697 29.6173 19.2232 29.9521 19.5646C30.2868 19.9027 30.4542 20.3385 30.4542 20.8722C30.4542 21.3097 30.3282 21.7008 30.0763 22.0455C29.8278 22.3902 29.4798 22.6619 29.0323 22.8608C28.5849 23.0597 28.0645 23.1591 27.4712 23.1591C26.6924 23.1591 26.0477 22.9901 25.5373 22.652C25.0269 22.3139 24.7037 21.8201 24.5678 21.1705L25.6815 20.892C25.7875 21.303 25.988 21.6113 26.283 21.8168C26.5813 22.0223 26.9708 22.125 27.4513 22.125C27.9982 22.125 28.4324 22.009 28.7539 21.777C29.0787 21.5417 29.2411 21.2599 29.2411 20.9318C29.2411 20.6667 29.1483 20.4446 28.9627 20.2656C28.7771 20.0833 28.4921 19.9474 28.1076 19.858L26.8349 19.5597C26.1355 19.3939 25.6218 19.1371 25.2937 18.7891C24.9689 18.4377 24.8065 17.9986 24.8065 17.4716C24.8065 17.0407 24.9274 16.6596 25.1694 16.3281C25.4147 15.9967 25.7478 15.7365 26.1687 15.5476C26.5929 15.3587 27.0735 15.2642 27.6104 15.2642C28.3661 15.2642 28.9594 15.4299 29.3903 15.7614C29.8245 16.0928 30.1327 16.5303 30.315 17.0739ZM32.2203 23V15.3636H33.3936V23H32.2203ZM32.8169 14.0909C32.5882 14.0909 32.391 14.013 32.2253 13.8572C32.0629 13.7015 31.9817 13.5142 31.9817 13.2955C31.9817 13.0767 32.0629 12.8894 32.2253 12.7337C32.391 12.5779 32.5882 12.5 32.8169 12.5C33.0456 12.5 33.2412 12.5779 33.4036 12.7337C33.5693 12.8894 33.6522 13.0767 33.6522 13.2955C33.6522 13.5142 33.5693 13.7015 33.4036 13.8572C33.2412 14.013 33.0456 14.0909 32.8169 14.0909ZM36.7159 18.4062V23H35.5426V15.3636H36.6761V16.5568H36.7756C36.9545 16.169 37.2263 15.8575 37.5909 15.6222C37.9555 15.3835 38.4261 15.2642 39.0028 15.2642C39.5199 15.2642 39.9723 15.3703 40.3601 15.5824C40.7479 15.7912 41.0495 16.1094 41.2649 16.5369C41.4804 16.9612 41.5881 17.4981 41.5881 18.1477V23H40.4148V18.2273C40.4148 17.6274 40.259 17.16 39.9474 16.8253C39.6359 16.4872 39.2083 16.3182 38.6648 16.3182C38.2902 16.3182 37.9555 16.3994 37.6605 16.5618C37.3688 16.7242 37.1385 16.9612 36.9695 17.2727C36.8004 17.5843 36.7159 17.9621 36.7159 18.4062ZM46.8145 26.0227C46.2477 26.0227 45.7605 25.9498 45.3528 25.804C44.9451 25.6615 44.6054 25.4725 44.3336 25.2372C44.0652 25.0052 43.8514 24.7566 43.6923 24.4915L44.627 23.8352C44.733 23.9744 44.8672 24.1335 45.0297 24.3125C45.1921 24.4948 45.4141 24.6522 45.6958 24.7848C45.9809 24.9207 46.3538 24.9886 46.8145 24.9886C47.4309 24.9886 47.9397 24.8395 48.3407 24.5412C48.7418 24.2429 48.9423 23.7756 48.9423 23.1392V21.5881H48.8429C48.7567 21.7273 48.6341 21.8996 48.475 22.1051C48.3192 22.3073 48.0938 22.4879 47.7988 22.647C47.5072 22.8028 47.1127 22.8807 46.6156 22.8807C45.9991 22.8807 45.4456 22.7348 44.9551 22.4432C44.4679 22.1515 44.0817 21.7273 43.7967 21.1705C43.515 20.6136 43.3741 19.9375 43.3741 19.142C43.3741 18.3598 43.5117 17.6787 43.7868 17.0987C44.0618 16.5154 44.4447 16.0646 44.9352 15.7464C45.4257 15.425 45.9925 15.2642 46.6355 15.2642C47.1326 15.2642 47.527 15.3471 47.8187 15.5128C48.1137 15.6752 48.3391 15.8608 48.4949 16.0696C48.6539 16.2751 48.7766 16.4441 48.8627 16.5767H48.9821V15.3636H50.1156V23.2188C50.1156 23.875 49.9664 24.4086 49.6681 24.8196C49.3732 25.2339 48.9754 25.5372 48.475 25.7294C47.9778 25.925 47.4243 26.0227 46.8145 26.0227ZM46.7747 21.8267C47.2453 21.8267 47.6431 21.719 47.9679 21.5036C48.2927 21.2881 48.5396 20.9782 48.7086 20.5739C48.8777 20.1695 48.9622 19.6856 48.9622 19.1222C48.9622 18.572 48.8793 18.0864 48.7136 17.6655C48.5479 17.2446 48.3026 16.9148 47.9778 16.6761C47.653 16.4375 47.252 16.3182 46.7747 16.3182C46.2775 16.3182 45.8632 16.4441 45.5318 16.696C45.2037 16.9479 44.9567 17.286 44.791 17.7102C44.6286 18.1345 44.5474 18.6051 44.5474 19.1222C44.5474 19.6525 44.6303 20.1214 44.796 20.5291C44.965 20.9335 45.2136 21.2517 45.5417 21.4837C45.8732 21.7124 46.2842 21.8267 46.7747 21.8267ZM53.4366 12.8182V23H52.2633V12.8182H53.4366ZM58.7873 23.1591C58.0515 23.1591 57.4168 22.9967 56.8832 22.6719C56.3529 22.3438 55.9435 21.8864 55.6552 21.2997C55.3701 20.7098 55.2276 20.0237 55.2276 19.2415C55.2276 18.4593 55.3701 17.7699 55.6552 17.1733C55.9435 16.5734 56.3446 16.1061 56.8583 15.7713C57.3754 15.4332 57.9786 15.2642 58.668 15.2642C59.0657 15.2642 59.4585 15.3305 59.8462 15.4631C60.234 15.5956 60.587 15.8111 60.9052 16.1094C61.2234 16.4044 61.4769 16.7955 61.6658 17.2827C61.8548 17.7699 61.9492 18.3698 61.9492 19.0824V19.5795H56.0629V18.5653H60.756C60.756 18.1345 60.6699 17.75 60.4975 17.4119C60.3285 17.0739 60.0865 16.8071 59.7717 16.6115C59.4601 16.416 59.0922 16.3182 58.668 16.3182C58.2006 16.3182 57.7963 16.4342 57.4549 16.6662C57.1168 16.8949 56.8567 17.1932 56.6744 17.5611C56.4921 17.929 56.4009 18.3234 56.4009 18.7443V19.4205C56.4009 19.9972 56.5004 20.486 56.6992 20.8871C56.9014 21.2848 57.1815 21.5881 57.5394 21.7969C57.8974 22.0024 58.3133 22.1051 58.7873 22.1051C59.0955 22.1051 59.3739 22.062 59.6225 21.9759C59.8744 21.8864 60.0915 21.7538 60.2738 21.5781C60.4561 21.3991 60.5969 21.1771 60.6964 20.9119L61.8299 21.2301C61.7106 21.6146 61.5101 21.9527 61.2283 22.2443C60.9466 22.5327 60.5986 22.758 60.1843 22.9205C59.77 23.0795 59.3043 23.1591 58.7873 23.1591ZM68.109 18.0881V19.1818H63.6545V18.0881H68.109ZM70.1735 25.8636V15.3636H71.307V16.5767H71.4462C71.5324 16.4441 71.6517 16.2751 71.8042 16.0696C71.9599 15.8608 72.182 15.6752 72.4703 15.5128C72.762 15.3471 73.1564 15.2642 73.6536 15.2642C74.2966 15.2642 74.8633 15.425 75.3539 15.7464C75.8444 16.0679 76.2272 16.5237 76.5023 17.1136C76.7774 17.7036 76.915 18.3996 76.915 19.2017C76.915 20.0104 76.7774 20.7114 76.5023 21.3047C76.2272 21.8946 75.8461 22.352 75.3588 22.6768C74.8716 22.9983 74.3098 23.1591 73.6735 23.1591C73.1829 23.1591 72.7902 23.0779 72.4952 22.9155C72.2002 22.7498 71.9732 22.5625 71.8141 22.3537C71.655 22.1416 71.5324 21.9659 71.4462 21.8267H71.3468V25.8636H70.1735ZM71.3269 19.1818C71.3269 19.7585 71.4114 20.2673 71.5804 20.7081C71.7495 21.1456 71.9964 21.4886 72.3212 21.7372C72.646 21.9825 73.0437 22.1051 73.5144 22.1051C74.0049 22.1051 74.4142 21.9759 74.7424 21.7173C75.0738 21.4555 75.3224 21.1042 75.4881 20.6634C75.6571 20.2192 75.7417 19.7254 75.7417 19.1818C75.7417 18.6449 75.6588 18.161 75.4931 17.7301C75.3307 17.2959 75.0837 16.9529 74.7523 16.701C74.4242 16.4458 74.0115 16.3182 73.5144 16.3182C73.0371 16.3182 72.6361 16.4392 72.3113 16.6811C71.9864 16.9197 71.7412 17.2545 71.5755 17.6854C71.4097 18.1129 71.3269 18.6117 71.3269 19.1818ZM80.9519 23.179C80.468 23.179 80.0288 23.0878 79.6344 22.9055C79.24 22.7199 78.9268 22.4531 78.6948 22.1051C78.4628 21.7538 78.3468 21.3295 78.3468 20.8324C78.3468 20.3949 78.4329 20.0402 78.6053 19.7685C78.7776 19.4934 79.008 19.2779 79.2963 19.1222C79.5847 18.9664 79.9029 18.8504 80.2509 18.7741C80.6022 18.6946 80.9552 18.6316 81.3098 18.5852C81.7739 18.5256 82.15 18.4808 82.4384 18.451C82.7301 18.4179 82.9422 18.3632 83.0748 18.2869C83.2106 18.2107 83.2786 18.0781 83.2786 17.8892V17.8494C83.2786 17.3589 83.1444 16.9777 82.8759 16.706C82.6107 16.4342 82.208 16.2983 81.6678 16.2983C81.1077 16.2983 80.6685 16.4209 80.3503 16.6662C80.0321 16.9115 79.8084 17.1733 79.6792 17.4517L78.5655 17.054C78.7644 16.59 79.0295 16.2287 79.361 15.9702C79.6957 15.7083 80.0603 15.526 80.4547 15.4233C80.8525 15.3172 81.2435 15.2642 81.628 15.2642C81.8733 15.2642 82.155 15.294 82.4732 15.3537C82.7947 15.41 83.1046 15.5277 83.4029 15.7067C83.7045 15.8857 83.9547 16.1558 84.1536 16.517C84.3525 16.8783 84.4519 17.3622 84.4519 17.9688V23H83.2786V21.9659H83.2189C83.1394 22.1316 83.0068 22.3089 82.8212 22.4979C82.6356 22.6868 82.3887 22.8475 82.0804 22.9801C81.7722 23.1127 81.396 23.179 80.9519 23.179ZM81.1309 22.125C81.5949 22.125 81.986 22.0339 82.3042 21.8516C82.6257 21.6693 82.8676 21.4339 83.03 21.1456C83.1957 20.8572 83.2786 20.554 83.2786 20.2358V19.1619C83.2289 19.2216 83.1195 19.2763 82.9505 19.326C82.7847 19.3724 82.5925 19.4138 82.3738 19.4503C82.1583 19.4834 81.9479 19.5133 81.7424 19.5398C81.5402 19.563 81.3761 19.5829 81.2502 19.5994C80.9453 19.6392 80.6602 19.7038 80.3951 19.7933C80.1332 19.8795 79.9211 20.0104 79.7587 20.1861C79.5996 20.3584 79.5201 20.5937 79.5201 20.892C79.5201 21.2997 79.6709 21.608 79.9725 21.8168C80.2774 22.0223 80.6635 22.125 81.1309 22.125ZM89.6758 26.0227C89.109 26.0227 88.6218 25.9498 88.2141 25.804C87.8065 25.6615 87.4667 25.4725 87.195 25.2372C86.9265 25.0052 86.7127 24.7566 86.5536 24.4915L87.4883 23.8352C87.5943 23.9744 87.7286 24.1335 87.891 24.3125C88.0534 24.4948 88.2754 24.6522 88.5572 24.7848C88.8422 24.9207 89.2151 24.9886 89.6758 24.9886C90.2923 24.9886 90.801 24.8395 91.2021 24.5412C91.6031 24.2429 91.8036 23.7756 91.8036 23.1392V21.5881H91.7042C91.618 21.7273 91.4954 21.8996 91.3363 22.1051C91.1805 22.3073 90.9551 22.4879 90.6602 22.647C90.3685 22.8028 89.9741 22.8807 89.4769 22.8807C88.8604 22.8807 88.3069 22.7348 87.8164 22.4432C87.3292 22.1515 86.9431 21.7273 86.658 21.1705C86.3763 20.6136 86.2354 19.9375 86.2354 19.142C86.2354 18.3598 86.373 17.6787 86.6481 17.0987C86.9232 16.5154 87.306 16.0646 87.7965 15.7464C88.2871 15.425 88.8538 15.2642 89.4968 15.2642C89.994 15.2642 90.3884 15.3471 90.68 15.5128C90.975 15.6752 91.2004 15.8608 91.3562 16.0696C91.5153 16.2751 91.6379 16.4441 91.7241 16.5767H91.8434V15.3636H92.9769V23.2188C92.9769 23.875 92.8278 24.4086 92.5295 24.8196C92.2345 25.2339 91.8368 25.5372 91.3363 25.7294C90.8391 25.925 90.2856 26.0227 89.6758 26.0227ZM89.636 21.8267C90.1067 21.8267 90.5044 21.719 90.8292 21.5036C91.154 21.2881 91.4009 20.9782 91.57 20.5739C91.739 20.1695 91.8235 19.6856 91.8235 19.1222C91.8235 18.572 91.7406 18.0864 91.5749 17.6655C91.4092 17.2446 91.1639 16.9148 90.8391 16.6761C90.5143 16.4375 90.1133 16.3182 89.636 16.3182C89.1388 16.3182 88.7246 16.4441 88.3931 16.696C88.065 16.9479 87.8181 17.286 87.6523 17.7102C87.4899 18.1345 87.4087 18.6051 87.4087 19.1222C87.4087 19.6525 87.4916 20.1214 87.6573 20.5291C87.8263 20.9335 88.0749 21.2517 88.4031 21.4837C88.7345 21.7124 89.1455 21.8267 89.636 21.8267ZM98.3263 23.1591C97.5906 23.1591 96.9558 22.9967 96.4222 22.6719C95.8919 22.3438 95.4826 21.8864 95.1942 21.2997C94.9092 20.7098 94.7667 20.0237 94.7667 19.2415C94.7667 18.4593 94.9092 17.7699 95.1942 17.1733C95.4826 16.5734 95.8836 16.1061 96.3974 15.7713C96.9144 15.4332 97.5176 15.2642 98.207 15.2642C98.6048 15.2642 98.9975 15.3305 99.3853 15.4631C99.7731 15.5956 100.126 15.8111 100.444 16.1094C100.762 16.4044 101.016 16.7955 101.205 17.2827C101.394 17.7699 101.488 18.3698 101.488 19.0824V19.5795H95.6019V18.5653H100.295C100.295 18.1345 100.209 17.75 100.037 17.4119C99.8675 17.0739 99.6256 16.8071 99.3107 16.6115C98.9992 16.416 98.6313 16.3182 98.207 16.3182C97.7397 16.3182 97.3353 16.4342 96.994 16.6662C96.6559 16.8949 96.3957 17.1932 96.2134 17.5611C96.0311 17.929 95.94 18.3234 95.94 18.7443V19.4205C95.94 19.9972 96.0394 20.486 96.2383 20.8871C96.4405 21.2848 96.7205 21.5881 97.0785 21.7969C97.4364 22.0024 97.8524 22.1051 98.3263 22.1051C98.6346 22.1051 98.913 22.062 99.1616 21.9759C99.4135 21.8864 99.6306 21.7538 99.8129 21.5781C99.9951 21.3991 100.136 21.1771 100.235 20.9119L101.369 21.2301C101.25 21.6146 101.049 21.9527 100.767 22.2443C100.486 22.5327 100.138 22.758 99.7234 22.9205C99.3091 23.0795 98.8434 23.1591 98.3263 23.1591ZM107.648 18.0881V19.1818H103.194V18.0881H107.648ZM111.96 23.179C111.476 23.179 111.037 23.0878 110.642 22.9055C110.248 22.7199 109.935 22.4531 109.703 22.1051C109.471 21.7538 109.355 21.3295 109.355 20.8324C109.355 20.3949 109.441 20.0402 109.613 19.7685C109.785 19.4934 110.016 19.2779 110.304 19.1222C110.593 18.9664 110.911 18.8504 111.259 18.7741C111.61 18.6946 111.963 18.6316 112.318 18.5852C112.782 18.5256 113.158 18.4808 113.446 18.451C113.738 18.4179 113.95 18.3632 114.083 18.2869C114.218 18.2107 114.286 18.0781 114.286 17.8892V17.8494C114.286 17.3589 114.152 16.9777 113.884 16.706C113.619 16.4342 113.216 16.2983 112.676 16.2983C112.115 16.2983 111.676 16.4209 111.358 16.6662C111.04 16.9115 110.816 17.1733 110.687 17.4517L109.573 17.054C109.772 16.59 110.037 16.2287 110.369 15.9702C110.704 15.7083 111.068 15.526 111.463 15.4233C111.86 15.3172 112.251 15.2642 112.636 15.2642C112.881 15.2642 113.163 15.294 113.481 15.3537C113.802 15.41 114.112 15.5277 114.411 15.7067C114.712 15.8857 114.963 16.1558 115.161 16.517C115.36 16.8783 115.46 17.3622 115.46 17.9688V23H114.286V21.9659H114.227C114.147 22.1316 114.015 22.3089 113.829 22.4979C113.643 22.6868 113.396 22.8475 113.088 22.9801C112.78 23.1127 112.404 23.179 111.96 23.179ZM112.139 22.125C112.603 22.125 112.994 22.0339 113.312 21.8516C113.633 21.6693 113.875 21.4339 114.038 21.1456C114.204 20.8572 114.286 20.554 114.286 20.2358V19.1619C114.237 19.2216 114.127 19.2763 113.958 19.326C113.793 19.3724 113.6 19.4138 113.382 19.4503C113.166 19.4834 112.956 19.5133 112.75 19.5398C112.548 19.563 112.384 19.5829 112.258 19.5994C111.953 19.6392 111.668 19.7038 111.403 19.7933C111.141 19.8795 110.929 20.0104 110.767 20.1861C110.607 20.3584 110.528 20.5937 110.528 20.892C110.528 21.2997 110.679 21.608 110.98 21.8168C111.285 22.0223 111.671 22.125 112.139 22.125ZM117.601 25.8636V15.3636H118.735V16.5767H118.874C118.96 16.4441 119.079 16.2751 119.232 16.0696C119.388 15.8608 119.61 15.6752 119.898 15.5128C120.19 15.3471 120.584 15.2642 121.081 15.2642C121.724 15.2642 122.291 15.425 122.782 15.7464C123.272 16.0679 123.655 16.5237 123.93 17.1136C124.205 17.7036 124.343 18.3996 124.343 19.2017C124.343 20.0104 124.205 20.7114 123.93 21.3047C123.655 21.8946 123.274 22.352 122.787 22.6768C122.299 22.9983 121.738 23.1591 121.101 23.1591C120.611 23.1591 120.218 23.0779 119.923 22.9155C119.628 22.7498 119.401 22.5625 119.242 22.3537C119.083 22.1416 118.96 21.9659 118.874 21.8267H118.775V25.8636H117.601ZM118.755 19.1818C118.755 19.7585 118.839 20.2673 119.008 20.7081C119.177 21.1456 119.424 21.4886 119.749 21.7372C120.074 21.9825 120.471 22.1051 120.942 22.1051C121.433 22.1051 121.842 21.9759 122.17 21.7173C122.502 21.4555 122.75 21.1042 122.916 20.6634C123.085 20.2192 123.169 19.7254 123.169 19.1818C123.169 18.6449 123.087 18.161 122.921 17.7301C122.758 17.2959 122.511 16.9529 122.18 16.701C121.852 16.4458 121.439 16.3182 120.942 16.3182C120.465 16.3182 120.064 16.4392 119.739 16.6811C119.414 16.9197 119.169 17.2545 119.003 17.6854C118.837 18.1129 118.755 18.6117 118.755 19.1818ZM126.132 25.8636V15.3636H127.266V16.5767H127.405C127.491 16.4441 127.611 16.2751 127.763 16.0696C127.919 15.8608 128.141 15.6752 128.429 15.5128C128.721 15.3471 129.115 15.2642 129.613 15.2642C130.256 15.2642 130.822 15.425 131.313 15.7464C131.803 16.0679 132.186 16.5237 132.461 17.1136C132.736 17.7036 132.874 18.3996 132.874 19.2017C132.874 20.0104 132.736 20.7114 132.461 21.3047C132.186 21.8946 131.805 22.352 131.318 22.6768C130.831 22.9983 130.269 23.1591 129.632 23.1591C129.142 23.1591 128.749 23.0779 128.454 22.9155C128.159 22.7498 127.932 22.5625 127.773 22.3537C127.614 22.1416 127.491 21.9659 127.405 21.8267H127.306V25.8636H126.132ZM127.286 19.1818C127.286 19.7585 127.37 20.2673 127.539 20.7081C127.708 21.1456 127.955 21.4886 128.28 21.7372C128.605 21.9825 129.003 22.1051 129.473 22.1051C129.964 22.1051 130.373 21.9759 130.701 21.7173C131.033 21.4555 131.281 21.1042 131.447 20.6634C131.616 20.2192 131.701 19.7254 131.701 19.1818C131.701 18.6449 131.618 18.161 131.452 17.7301C131.29 17.2959 131.043 16.9529 130.711 16.701C130.383 16.4458 129.971 16.3182 129.473 16.3182C128.996 16.3182 128.595 16.4392 128.27 16.6811C127.945 16.9197 127.7 17.2545 127.534 17.6854C127.369 18.1129 127.286 18.6117 127.286 19.1818Z" fill="#FFA500"/>
</svg>
