<svg width="80" height="35" viewBox="0 0 80 35" fill="none" xmlns="http://www.w3.org/2000/svg">
<rect x="0.5" y="0.5" width="79" height="34" rx="9.5" stroke="#6CB52D"/>
<path d="M19.8722 23L21.5426 12.8182H22.5369L20.8665 23H19.8722ZM15.2386 20.1761L15.3977 19.1818H22.9943L22.8352 20.1761H15.2386ZM16.2926 23L17.9631 12.8182H18.9574L17.2869 23H16.2926ZM15.8352 16.6364L15.9943 15.642H23.5909L23.4318 16.6364H15.8352ZM30.315 17.0739L29.261 17.3722C29.1947 17.1965 29.0969 17.0258 28.9677 16.8601C28.8417 16.6911 28.6694 16.5518 28.4506 16.4425C28.2319 16.3331 27.9518 16.2784 27.6104 16.2784C27.1431 16.2784 26.7537 16.3861 26.4421 16.6016C26.1339 16.8137 25.9798 17.0838 25.9798 17.4119C25.9798 17.7036 26.0858 17.9339 26.2979 18.103C26.5101 18.272 26.8415 18.4129 27.2923 18.5256L28.4258 18.804C29.1085 18.9697 29.6173 19.2232 29.9521 19.5646C30.2868 19.9027 30.4542 20.3385 30.4542 20.8722C30.4542 21.3097 30.3282 21.7008 30.0763 22.0455C29.8278 22.3902 29.4798 22.6619 29.0323 22.8608C28.5849 23.0597 28.0645 23.1591 27.4712 23.1591C26.6924 23.1591 26.0477 22.9901 25.5373 22.652C25.0269 22.3139 24.7037 21.8201 24.5678 21.1705L25.6815 20.892C25.7875 21.303 25.988 21.6113 26.283 21.8168C26.5813 22.0223 26.9708 22.125 27.4513 22.125C27.9982 22.125 28.4324 22.009 28.7539 21.777C29.0787 21.5417 29.2411 21.2599 29.2411 20.9318C29.2411 20.6667 29.1483 20.4446 28.9627 20.2656C28.7771 20.0833 28.4921 19.9474 28.1076 19.858L26.8349 19.5597C26.1355 19.3939 25.6218 19.1371 25.2937 18.7891C24.9689 18.4377 24.8065 17.9986 24.8065 17.4716C24.8065 17.0407 24.9274 16.6596 25.1694 16.3281C25.4147 15.9967 25.7478 15.7365 26.1687 15.5476C26.5929 15.3587 27.0735 15.2642 27.6104 15.2642C28.3661 15.2642 28.9594 15.4299 29.3903 15.7614C29.8245 16.0928 30.1327 16.5303 30.315 17.0739ZM32.2203 25.8636V15.3636H33.3539V16.5767H33.4931C33.5792 16.4441 33.6986 16.2751 33.851 16.0696C34.0068 15.8608 34.2289 15.6752 34.5172 15.5128C34.8089 15.3471 35.2033 15.2642 35.7005 15.2642C36.3435 15.2642 36.9102 15.425 37.4007 15.7464C37.8913 16.0679 38.2741 16.5237 38.5492 17.1136C38.8243 17.7036 38.9618 18.3996 38.9618 19.2017C38.9618 20.0104 38.8243 20.7114 38.5492 21.3047C38.2741 21.8946 37.8929 22.352 37.4057 22.6768C36.9185 22.9983 36.3567 23.1591 35.7203 23.1591C35.2298 23.1591 34.8371 23.0779 34.5421 22.9155C34.2471 22.7498 34.0201 22.5625 33.861 22.3537C33.7019 22.1416 33.5792 21.9659 33.4931 21.8267H33.3936V25.8636H32.2203ZM33.3738 19.1818C33.3738 19.7585 33.4583 20.2673 33.6273 20.7081C33.7963 21.1456 34.0433 21.4886 34.3681 21.7372C34.6929 21.9825 35.0906 22.1051 35.5613 22.1051C36.0518 22.1051 36.4611 21.9759 36.7892 21.7173C37.1207 21.4555 37.3693 21.1042 37.535 20.6634C37.704 20.2192 37.7885 19.7254 37.7885 19.1818C37.7885 18.6449 37.7057 18.161 37.54 17.7301C37.3775 17.2959 37.1306 16.9529 36.7992 16.701C36.4711 16.4458 36.0584 16.3182 35.5613 16.3182C35.084 16.3182 34.6829 16.4392 34.3581 16.6811C34.0333 16.9197 33.7881 17.2545 33.6223 17.6854C33.4566 18.1129 33.3738 18.6117 33.3738 19.1818ZM40.7516 23V15.3636H41.8851V16.517H41.9647C42.1039 16.1392 42.3558 15.8326 42.7203 15.5973C43.0849 15.362 43.4959 15.2443 43.9533 15.2443C44.0395 15.2443 44.1472 15.246 44.2765 15.2493C44.4057 15.2526 44.5035 15.2576 44.5698 15.2642V16.4574C44.53 16.4474 44.4389 16.4325 44.2963 16.4126C44.1571 16.3894 44.0096 16.3778 43.8539 16.3778C43.4827 16.3778 43.1512 16.4557 42.8596 16.6115C42.5712 16.764 42.3425 16.9761 42.1735 17.2479C42.0078 17.5163 41.9249 17.8229 41.9249 18.1676V23H40.7516ZM45.9606 23V15.3636H47.1339V23H45.9606ZM46.5572 14.0909C46.3285 14.0909 46.1313 14.013 45.9656 13.8572C45.8031 13.7015 45.7219 13.5142 45.7219 13.2955C45.7219 13.0767 45.8031 12.8894 45.9656 12.7337C46.1313 12.5779 46.3285 12.5 46.5572 12.5C46.7859 12.5 46.9814 12.5779 47.1438 12.7337C47.3095 12.8894 47.3924 13.0767 47.3924 13.2955C47.3924 13.5142 47.3095 13.7015 47.1438 13.8572C46.9814 14.013 46.7859 14.0909 46.5572 14.0909ZM50.4561 18.4062V23H49.2828V15.3636H50.4164V16.5568H50.5158C50.6948 16.169 50.9666 15.8575 51.3311 15.6222C51.6957 15.3835 52.1664 15.2642 52.7431 15.2642C53.2601 15.2642 53.7125 15.3703 54.1003 15.5824C54.4881 15.7912 54.7897 16.1094 55.0051 16.5369C55.2206 16.9612 55.3283 17.4981 55.3283 18.1477V23H54.155V18.2273C54.155 17.6274 53.9992 17.16 53.6877 16.8253C53.3761 16.4872 52.9486 16.3182 52.405 16.3182C52.0305 16.3182 51.6957 16.3994 51.4007 16.5618C51.1091 16.7242 50.8787 16.9612 50.7097 17.2727C50.5407 17.5843 50.4561 17.9621 50.4561 18.4062ZM60.5547 26.0227C59.9879 26.0227 59.5007 25.9498 59.093 25.804C58.6854 25.6615 58.3456 25.4725 58.0739 25.2372C57.8054 25.0052 57.5916 24.7566 57.4325 24.4915L58.3672 23.8352C58.4732 23.9744 58.6075 24.1335 58.7699 24.3125C58.9323 24.4948 59.1544 24.6522 59.4361 24.7848C59.7211 24.9207 60.094 24.9886 60.5547 24.9886C61.1712 24.9886 61.6799 24.8395 62.081 24.5412C62.482 24.2429 62.6825 23.7756 62.6825 23.1392V21.5881H62.5831C62.4969 21.7273 62.3743 21.8996 62.2152 22.1051C62.0594 22.3073 61.834 22.4879 61.5391 22.647C61.2474 22.8028 60.853 22.8807 60.3558 22.8807C59.7393 22.8807 59.1858 22.7348 58.6953 22.4432C58.2081 22.1515 57.822 21.7273 57.5369 21.1705C57.2552 20.6136 57.1143 19.9375 57.1143 19.142C57.1143 18.3598 57.2519 17.6787 57.527 17.0987C57.8021 16.5154 58.1849 16.0646 58.6754 15.7464C59.166 15.425 59.7327 15.2642 60.3757 15.2642C60.8729 15.2642 61.2673 15.3471 61.5589 15.5128C61.8539 15.6752 62.0793 15.8608 62.2351 16.0696C62.3942 16.2751 62.5168 16.4441 62.603 16.5767H62.7223V15.3636H63.8558V23.2188C63.8558 23.875 63.7067 24.4086 63.4084 24.8196C63.1134 25.2339 62.7157 25.5372 62.2152 25.7294C61.718 25.925 61.1645 26.0227 60.5547 26.0227ZM60.5149 21.8267C60.9856 21.8267 61.3833 21.719 61.7081 21.5036C62.0329 21.2881 62.2798 20.9782 62.4489 20.5739C62.6179 20.1695 62.7024 19.6856 62.7024 19.1222C62.7024 18.572 62.6196 18.0864 62.4538 17.6655C62.2881 17.2446 62.0429 16.9148 61.718 16.6761C61.3932 16.4375 60.9922 16.3182 60.5149 16.3182C60.0178 16.3182 59.6035 16.4441 59.272 16.696C58.9439 16.9479 58.697 17.286 58.5312 17.7102C58.3688 18.1345 58.2876 18.6051 58.2876 19.1222C58.2876 19.6525 58.3705 20.1214 58.5362 20.5291C58.7053 20.9335 58.9538 21.2517 59.282 21.4837C59.6134 21.7124 60.0244 21.8267 60.5149 21.8267Z" fill="#6CB52D"/>
</svg>
