<svg width="131" height="35" viewBox="0 0 131 35" fill="none" xmlns="http://www.w3.org/2000/svg">
<rect x="0.5" y="0.5" width="130" height="34" rx="9.5" stroke="#0077CC"/>
<path d="M19.8722 23L21.5426 12.8182H22.5369L20.8665 23H19.8722ZM15.2386 20.1761L15.3977 19.1818H22.9943L22.8352 20.1761H15.2386ZM16.2926 23L17.9631 12.8182H18.9574L17.2869 23H16.2926ZM15.8352 16.6364L15.9943 15.642H23.5909L23.4318 16.6364H15.8352ZM26.636 23L24.3093 15.3636H25.5423L27.1928 21.2102H27.2724L28.9031 15.3636H30.1559L31.7667 21.1903H31.8462L33.4968 15.3636H34.7298L32.4031 23H31.2496L29.5792 17.1335H29.4599L27.7894 23H26.636ZM39.2228 23.1591C38.487 23.1591 37.8523 22.9967 37.3187 22.6719C36.7884 22.3438 36.3791 21.8864 36.0907 21.2997C35.8057 20.7098 35.6632 20.0237 35.6632 19.2415C35.6632 18.4593 35.8057 17.7699 36.0907 17.1733C36.3791 16.5734 36.7801 16.1061 37.2939 15.7713C37.8109 15.4332 38.4141 15.2642 39.1035 15.2642C39.5012 15.2642 39.894 15.3305 40.2818 15.4631C40.6696 15.5956 41.0226 15.8111 41.3407 16.1094C41.6589 16.4044 41.9125 16.7955 42.1014 17.2827C42.2903 17.7699 42.3848 18.3698 42.3848 19.0824V19.5795H36.4984V18.5653H41.1916C41.1916 18.1345 41.1054 17.75 40.9331 17.4119C40.764 17.0739 40.5221 16.8071 40.2072 16.6115C39.8957 16.416 39.5278 16.3182 39.1035 16.3182C38.6362 16.3182 38.2318 16.4342 37.8904 16.6662C37.5524 16.8949 37.2922 17.1932 37.1099 17.5611C36.9276 17.929 36.8365 18.3234 36.8365 18.7443V19.4205C36.8365 19.9972 36.9359 20.486 37.1348 20.8871C37.3369 21.2848 37.617 21.5881 37.975 21.7969C38.3329 22.0024 38.7489 22.1051 39.2228 22.1051C39.5311 22.1051 39.8095 22.062 40.0581 21.9759C40.31 21.8864 40.527 21.7538 40.7093 21.5781C40.8916 21.3991 41.0325 21.1771 41.1319 20.9119L42.2654 21.2301C42.1461 21.6146 41.9456 21.9527 41.6639 22.2443C41.3822 22.5327 41.0342 22.758 40.6199 22.9205C40.2056 23.0795 39.7399 23.1591 39.2228 23.1591ZM44.3287 23V12.8182H45.502V16.5767H45.6014C45.6876 16.4441 45.8069 16.2751 45.9593 16.0696C46.1151 15.8608 46.3372 15.6752 46.6255 15.5128C46.9172 15.3471 47.3116 15.2642 47.8088 15.2642C48.4518 15.2642 49.0185 15.425 49.5091 15.7464C49.9996 16.0679 50.3824 16.5237 50.6575 17.1136C50.9326 17.7036 51.0701 18.3996 51.0701 19.2017C51.0701 20.0104 50.9326 20.7114 50.6575 21.3047C50.3824 21.8946 50.0012 22.352 49.514 22.6768C49.0268 22.9983 48.465 23.1591 47.8287 23.1591C47.3381 23.1591 46.9454 23.0779 46.6504 22.9155C46.3554 22.7498 46.1284 22.5625 45.9693 22.3537C45.8102 22.1416 45.6876 21.9659 45.6014 21.8267H45.4622V23H44.3287ZM45.4821 19.1818C45.4821 19.7585 45.5666 20.2673 45.7356 20.7081C45.9047 21.1456 46.1516 21.4886 46.4764 21.7372C46.8012 21.9825 47.1989 22.1051 47.6696 22.1051C48.1601 22.1051 48.5694 21.9759 48.8975 21.7173C49.229 21.4555 49.4776 21.1042 49.6433 20.6634C49.8123 20.2192 49.8968 19.7254 49.8968 19.1818C49.8968 18.6449 49.814 18.161 49.6483 17.7301C49.4859 17.2959 49.2389 16.9529 48.9075 16.701C48.5794 16.4458 48.1667 16.3182 47.6696 16.3182C47.1923 16.3182 46.7913 16.4392 46.4664 16.6811C46.1416 16.9197 45.8964 17.2545 45.7306 17.6854C45.5649 18.1129 45.4821 18.6117 45.4821 19.1818ZM57.2399 18.0881V19.1818H52.7853V18.0881H57.2399ZM64.7134 17.0739L63.6594 17.3722C63.5932 17.1965 63.4954 17.0258 63.3661 16.8601C63.2402 16.6911 63.0678 16.5518 62.8491 16.4425C62.6303 16.3331 62.3503 16.2784 62.0089 16.2784C61.5415 16.2784 61.1521 16.3861 60.8406 16.6016C60.5323 16.8137 60.3782 17.0838 60.3782 17.4119C60.3782 17.7036 60.4843 17.9339 60.6964 18.103C60.9085 18.272 61.2399 18.4129 61.6907 18.5256L62.8242 18.804C63.507 18.9697 64.0157 19.2232 64.3505 19.5646C64.6853 19.9027 64.8526 20.3385 64.8526 20.8722C64.8526 21.3097 64.7267 21.7008 64.4748 22.0455C64.2262 22.3902 63.8782 22.6619 63.4308 22.8608C62.9833 23.0597 62.4629 23.1591 61.8697 23.1591C61.0908 23.1591 60.4461 22.9901 59.9357 22.652C59.4253 22.3139 59.1022 21.8201 58.9663 21.1705L60.0799 20.892C60.186 21.303 60.3865 21.6113 60.6815 21.8168C60.9798 22.0223 61.3692 22.125 61.8498 22.125C62.3967 22.125 62.8308 22.009 63.1523 21.777C63.4772 21.5417 63.6396 21.2599 63.6396 20.9318C63.6396 20.6667 63.5468 20.4446 63.3612 20.2656C63.1755 20.0833 62.8905 19.9474 62.506 19.858L61.2333 19.5597C60.534 19.3939 60.0202 19.1371 59.6921 18.7891C59.3673 18.4377 59.2049 17.9986 59.2049 17.4716C59.2049 17.0407 59.3259 16.6596 59.5678 16.3281C59.8131 15.9967 60.1462 15.7365 60.5671 15.5476C60.9914 15.3587 61.4719 15.2642 62.0089 15.2642C62.7646 15.2642 63.3578 15.4299 63.7887 15.7614C64.2229 16.0928 64.5311 16.5303 64.7134 17.0739ZM69.7211 23.1591C69.0051 23.1591 68.3887 22.9901 67.8716 22.652C67.3546 22.3139 66.9569 21.8482 66.6784 21.255C66.4 20.6617 66.2608 19.9839 66.2608 19.2216C66.2608 18.446 66.4033 17.7616 66.6884 17.1683C66.9767 16.5717 67.3778 16.1061 67.8915 15.7713C68.4086 15.4332 69.0118 15.2642 69.7012 15.2642C70.2381 15.2642 70.722 15.3636 71.1529 15.5625C71.5837 15.7614 71.9367 16.0398 72.2118 16.3977C72.4869 16.7557 72.6576 17.1733 72.7239 17.6506H71.5506C71.4611 17.3026 71.2623 16.9943 70.954 16.7259C70.6491 16.4541 70.2381 16.3182 69.7211 16.3182C69.2637 16.3182 68.8626 16.4375 68.5179 16.6761C68.1766 16.9115 67.9097 17.2446 67.7175 17.6754C67.5286 18.103 67.4341 18.6051 67.4341 19.1818C67.4341 19.7718 67.5269 20.2855 67.7125 20.723C67.9015 21.1605 68.1666 21.5002 68.508 21.7422C68.8527 21.9841 69.257 22.1051 69.7211 22.1051C70.026 22.1051 70.3027 22.0521 70.5513 21.946C70.7999 21.84 71.0104 21.6875 71.1827 21.4886C71.3551 21.2898 71.4777 21.0511 71.5506 20.7727H72.7239C72.6576 21.2235 72.4935 21.6295 72.2317 21.9908C71.9732 22.3487 71.6301 22.6338 71.2026 22.8459C70.7784 23.0547 70.2845 23.1591 69.7211 23.1591ZM74.4391 23V15.3636H75.5726V16.517H75.6522C75.7914 16.1392 76.0433 15.8326 76.4078 15.5973C76.7724 15.362 77.1834 15.2443 77.6408 15.2443C77.727 15.2443 77.8347 15.246 77.964 15.2493C78.0932 15.2526 78.191 15.2576 78.2573 15.2642V16.4574C78.2175 16.4474 78.1264 16.4325 77.9838 16.4126C77.8446 16.3894 77.6971 16.3778 77.5414 16.3778C77.1702 16.3778 76.8387 16.4557 76.5471 16.6115C76.2587 16.764 76.03 16.9761 75.861 17.2479C75.6953 17.5163 75.6124 17.8229 75.6124 18.1676V23H74.4391ZM81.8952 23.179C81.4113 23.179 80.9722 23.0878 80.5778 22.9055C80.1834 22.7199 79.8701 22.4531 79.6381 22.1051C79.4061 21.7538 79.2901 21.3295 79.2901 20.8324C79.2901 20.3949 79.3763 20.0402 79.5487 19.7685C79.721 19.4934 79.9513 19.2779 80.2397 19.1222C80.5281 18.9664 80.8462 18.8504 81.1942 18.7741C81.5456 18.6946 81.8986 18.6316 82.2532 18.5852C82.7172 18.5256 83.0934 18.4808 83.3817 18.451C83.6734 18.4179 83.8855 18.3632 84.0181 18.2869C84.154 18.2107 84.2219 18.0781 84.2219 17.8892V17.8494C84.2219 17.3589 84.0877 16.9777 83.8192 16.706C83.5541 16.4342 83.1514 16.2983 82.6112 16.2983C82.051 16.2983 81.6119 16.4209 81.2937 16.6662C80.9755 16.9115 80.7518 17.1733 80.6225 17.4517L79.5089 17.054C79.7077 16.59 79.9729 16.2287 80.3043 15.9702C80.6391 15.7083 81.0037 15.526 81.3981 15.4233C81.7958 15.3172 82.1869 15.2642 82.5714 15.2642C82.8166 15.2642 83.0984 15.294 83.4165 15.3537C83.738 15.41 84.0479 15.5277 84.3462 15.7067C84.6478 15.8857 84.8981 16.1558 85.0969 16.517C85.2958 16.8783 85.3952 17.3622 85.3952 17.9688V23H84.2219V21.9659H84.1623C84.0827 22.1316 83.9502 22.3089 83.7646 22.4979C83.579 22.6868 83.332 22.8475 83.0238 22.9801C82.7156 23.1127 82.3394 23.179 81.8952 23.179ZM82.0742 22.125C82.5382 22.125 82.9293 22.0339 83.2475 21.8516C83.569 21.6693 83.811 21.4339 83.9734 21.1456C84.1391 20.8572 84.2219 20.554 84.2219 20.2358V19.1619C84.1722 19.2216 84.0629 19.2763 83.8938 19.326C83.7281 19.3724 83.5359 19.4138 83.3171 19.4503C83.1017 19.4834 82.8912 19.5133 82.6857 19.5398C82.4835 19.563 82.3195 19.5829 82.1935 19.5994C81.8886 19.6392 81.6036 19.7038 81.3384 19.7933C81.0766 19.8795 80.8645 20.0104 80.7021 20.1861C80.543 20.3584 80.4634 20.5937 80.4634 20.892C80.4634 21.2997 80.6142 21.608 80.9158 21.8168C81.2208 22.0223 81.6069 22.125 82.0742 22.125ZM87.5368 25.8636V15.3636H88.6703V16.5767H88.8095C88.8957 16.4441 89.015 16.2751 89.1674 16.0696C89.3232 15.8608 89.5453 15.6752 89.8336 15.5128C90.1253 15.3471 90.5197 15.2642 91.0169 15.2642C91.6599 15.2642 92.2266 15.425 92.7172 15.7464C93.2077 16.0679 93.5905 16.5237 93.8656 17.1136C94.1407 17.7036 94.2782 18.3996 94.2782 19.2017C94.2782 20.0104 94.1407 20.7114 93.8656 21.3047C93.5905 21.8946 93.2093 22.352 92.7221 22.6768C92.2349 22.9983 91.6731 23.1591 91.0368 23.1591C90.5462 23.1591 90.1535 23.0779 89.8585 22.9155C89.5635 22.7498 89.3365 22.5625 89.1774 22.3537C89.0183 22.1416 88.8957 21.9659 88.8095 21.8267H88.71V25.8636H87.5368ZM88.6902 19.1818C88.6902 19.7585 88.7747 20.2673 88.9437 20.7081C89.1127 21.1456 89.3597 21.4886 89.6845 21.7372C90.0093 21.9825 90.407 22.1051 90.8777 22.1051C91.3682 22.1051 91.7775 21.9759 92.1056 21.7173C92.4371 21.4555 92.6857 21.1042 92.8514 20.6634C93.0204 20.2192 93.1049 19.7254 93.1049 19.1818C93.1049 18.6449 93.0221 18.161 92.8564 17.7301C92.694 17.2959 92.447 16.9529 92.1156 16.701C91.7875 16.4458 91.3748 16.3182 90.8777 16.3182C90.4004 16.3182 89.9993 16.4392 89.6745 16.6811C89.3497 16.9197 89.1045 17.2545 88.9387 17.6854C88.773 18.1129 88.6902 18.6117 88.6902 19.1818ZM96.068 23V15.3636H97.2413V23H96.068ZM96.6646 14.0909C96.4359 14.0909 96.2387 14.013 96.073 13.8572C95.9106 13.7015 95.8294 13.5142 95.8294 13.2955C95.8294 13.0767 95.9106 12.8894 96.073 12.7337C96.2387 12.5779 96.4359 12.5 96.6646 12.5C96.8933 12.5 97.0888 12.5779 97.2512 12.7337C97.417 12.8894 97.4998 13.0767 97.4998 13.2955C97.4998 13.5142 97.417 13.7015 97.2512 13.8572C97.0888 14.013 96.8933 14.0909 96.6646 14.0909ZM100.564 18.4062V23H99.3903V15.3636H100.524V16.5568H100.623C100.802 16.169 101.074 15.8575 101.439 15.6222C101.803 15.3835 102.274 15.2642 102.85 15.2642C103.368 15.2642 103.82 15.3703 104.208 15.5824C104.596 15.7912 104.897 16.1094 105.113 16.5369C105.328 16.9612 105.436 17.4981 105.436 18.1477V23H104.262V18.2273C104.262 17.6274 104.107 17.16 103.795 16.8253C103.484 16.4872 103.056 16.3182 102.512 16.3182C102.138 16.3182 101.803 16.3994 101.508 16.5618C101.217 16.7242 100.986 16.9612 100.817 17.2727C100.648 17.5843 100.564 17.9621 100.564 18.4062ZM110.662 26.0227C110.095 26.0227 109.608 25.9498 109.2 25.804C108.793 25.6615 108.453 25.4725 108.181 25.2372C107.913 25.0052 107.699 24.7566 107.54 24.4915L108.475 23.8352C108.581 23.9744 108.715 24.1335 108.877 24.3125C109.04 24.4948 109.262 24.6522 109.544 24.7848C109.829 24.9207 110.201 24.9886 110.662 24.9886C111.279 24.9886 111.787 24.8395 112.188 24.5412C112.589 24.2429 112.79 23.7756 112.79 23.1392V21.5881H112.691C112.604 21.7273 112.482 21.8996 112.323 22.1051C112.167 22.3073 111.941 22.4879 111.646 22.647C111.355 22.8028 110.96 22.8807 110.463 22.8807C109.847 22.8807 109.293 22.7348 108.803 22.4432C108.316 22.1515 107.929 21.7273 107.644 21.1705C107.363 20.6136 107.222 19.9375 107.222 19.142C107.222 18.3598 107.359 17.6787 107.634 17.0987C107.91 16.5154 108.292 16.0646 108.783 15.7464C109.273 15.425 109.84 15.2642 110.483 15.2642C110.98 15.2642 111.375 15.3471 111.666 15.5128C111.961 15.6752 112.187 15.8608 112.343 16.0696C112.502 16.2751 112.624 16.4441 112.71 16.5767H112.83V15.3636H113.963V23.2188C113.963 23.875 113.814 24.4086 113.516 24.8196C113.221 25.2339 112.823 25.5372 112.323 25.7294C111.825 25.925 111.272 26.0227 110.662 26.0227ZM110.622 21.8267C111.093 21.8267 111.491 21.719 111.816 21.5036C112.14 21.2881 112.387 20.9782 112.556 20.5739C112.725 20.1695 112.81 19.6856 112.81 19.1222C112.81 18.572 112.727 18.0864 112.561 17.6655C112.396 17.2446 112.15 16.9148 111.825 16.6761C111.501 16.4375 111.1 16.3182 110.622 16.3182C110.125 16.3182 109.711 16.4441 109.379 16.696C109.051 16.9479 108.804 17.286 108.639 17.7102C108.476 18.1345 108.395 18.6051 108.395 19.1222C108.395 19.6525 108.478 20.1214 108.644 20.5291C108.813 20.9335 109.061 21.2517 109.389 21.4837C109.721 21.7124 110.132 21.8267 110.622 21.8267Z" fill="#0077CC"/>
</svg>
